<?xml version="1.0" encoding="UTF-8" standalone="no"?>
<!-- Created with Inkscape (http://www.inkscape.org/) -->

<svg
   width="51.700016mm"
   height="31.560841mm"
   viewBox="0 0 51.700016 31.56084"
   version="1.1"
   id="svg1"
   xml:space="preserve"
   xmlns="http://www.w3.org/2000/svg"
   xmlns:svg="http://www.w3.org/2000/svg"><defs
     id="defs1" /><g
     id="layer1"
     transform="translate(-59.230194,-166.75525)"><path
       d="m 86.55299,194.66705 c -0.09535,-0.12992 -0.202927,-0.18371 -0.329714,-0.21829 -0.60599,-0.13691 -1.212329,0.0307 -1.818668,-0.1418 -0.23995,-0.008 -0.582937,0.058 -0.804726,0.10198 -0.205722,0.0412 -0.433099,0.17778 -0.63917,0.31959 -0.203277,0.14041 -0.43764,0.35836 -0.616469,0.57107 -0.154727,0.18406 -0.399568,0.43274 -0.476758,0.63567 -0.06496,0.17219 -0.111767,0.38559 -0.05973,0.55883 0.06112,0.20433 0.204326,0.46454 0.361499,0.63988 0.214803,0.23925 0.609482,0.47571 0.888551,0.61542 0.311902,0.15577 0.749542,0.31329 1.086241,0.36953 0.260908,0.044 0.56268,-0.0231 0.82254,-0.081 0.372675,-0.19385 0.714962,-0.30283 1.086241,-0.57351 0.296184,-0.22179 0.492126,-0.53683 0.64895,-0.78307 0.09291,-0.1453 0.150536,-0.30597 0.164507,-0.45546 0.02759,-0.29199 0.06881,-0.7167 -0.02096,-1.00276 -0.05484,-0.17569 -0.172891,-0.39363 -0.292342,-0.55605 m -0.325173,1.4488 c -0.06531,0.19 -0.29828,0.43309 -0.445324,0.60563 -0.113514,0.13308 -0.254271,0.23367 -0.405158,0.32483 -0.252874,0.15333 -0.53823,0.30457 -0.792851,0.37477 -0.110021,0.0304 -0.233314,0.0737 -0.344733,0.0632 -0.245888,-0.0234 -0.660127,-0.18896 -0.880169,-0.29339 -0.199086,-0.0943 -0.422271,-0.25532 -0.608784,-0.4097 -0.103734,-0.0859 -0.199435,-0.1921 -0.235061,-0.30492 -0.04191,-0.13237 0.0059,-0.28046 0.06462,-0.42052 0.06007,-0.14321 0.152283,-0.29234 0.274529,-0.43415 0.288151,-0.29234 0.637773,-0.55919 0.948976,-0.64336 0.198737,-0.0608 0.491428,-0.12049 0.695054,-0.10827 0.117007,0.0429 0.234363,0.0859 0.351719,0.12853 0.325873,0.006 0.651745,0.0126 0.977617,0.0189 0.174287,0.0234 0.339843,0.25497 0.400965,0.4111 0.05938,0.17848 0.06077,0.50679 -0.0014,0.68737 m 9.657077,-1.35244 c -0.16416,-0.18617 -0.364294,-0.36918 -0.538934,-0.47152 -0.27453,-0.16137 -0.60634,-0.30317 -0.90531,-0.39608 -0.16766,-0.052 -0.480261,-0.12783 -0.648951,-0.10653 -0.0887,0.0112 -0.15508,0.0789 -0.17394,0.18337 -0.0426,0.16765 0.15542,0.32169 0.0472,0.38944 -0.1666,0.14984 -0.74395,0.28571 -1.03664,0.46943 -0.23227,0.2134 -0.46489,0.42646 -0.69716,0.63986 -0.32866,-0.16904 -0.35975,-0.70379 -0.70064,-0.9591 -0.45615,-0.18162 -0.911951,-0.36289 -1.368102,-0.54452 -0.06392,0.007 -0.119451,0.0342 -0.154728,0.0957 l -0.04506,0.35312 c -0.325872,-0.0307 -0.835112,-0.0506 -1.238175,0.001 -0.176034,0.0597 -0.387693,0.25183 -0.53369,0.4324 -0.397473,0.5784 -0.573507,1.14387 -0.790755,1.71808 -0.06846,0.22702 -0.06182,0.50085 -0.0042,0.73138 0.03074,0.12329 0.07754,0.25322 0.171144,0.37442 0.09675,0.12574 0.227028,0.21865 0.346829,0.27313 0.34613,0.15682 0.732426,0.25986 1.087987,0.33356 0.180924,0.0374 0.36534,0.043 0.545566,0.0272 0.453356,-0.0779 0.908111,-0.15228 1.358673,-0.38944 0.424021,-0.18197 0.820441,-0.82115 1.122911,-1.04363 0.17813,0.23716 0.35591,0.47396 0.53404,0.71112 0.1446,0.15333 0.29968,0.2651 0.45126,0.34229 0.17674,0.0905 0.37023,0.1673 0.54976,0.19245 0.46104,0.0346 0.910561,-0.24449 1.357631,-0.28606 0.37756,-0.19699 0.82114,-0.35835 1.155744,-0.70832 0.16311,-0.20642 0.33391,-0.64965 0.37442,-0.90148 0.0489,-0.30247 0.0573,-0.69575 -0.0199,-0.99857 -0.0402,-0.15822 -0.10898,-0.30666 -0.24694,-0.46313 m -0.393634,1.35413 c -0.0936,0.20327 -0.19245,0.40934 -0.37827,0.60843 -0.13936,0.14914 -0.2885,0.25462 -0.43379,0.31749 -0.35102,0.15159 -0.705881,0.2658 -1.059701,0.35312 -0.14145,0.0349 -0.29269,0.0471 -0.43275,0.0269 -0.16451,-0.0237 -0.3608,-0.14005 -0.48095,-0.26754 -0.12644,-0.13377 -0.24274,-0.33461 -0.32028,-0.50191 -0.0681,-0.14774 -0.0678,-0.28326 -0.0437,-0.42856 0.0199,-0.11771 0.0597,-0.22213 0.16311,-0.34264 0.1198,-0.14005 0.28291,-0.31085 0.42576,-0.42227 0.19036,-0.14879 0.56059,-0.35136 0.79879,-0.4516 0.25672,-0.10794 0.780981,-0.28083 1.050621,-0.25463 0.14075,0.014 0.29304,0.14356 0.4296,0.25881 0.1205,0.10165 0.2183,0.21131 0.26266,0.32797 0.074,0.25881 0.131324,0.51763 0.0189,0.77644 m -4.184301,-0.0803 c -0.0325,0.16276 -0.12259,0.36009 -0.23925,0.51761 -0.13238,0.17848 -0.30282,0.37233 -0.43485,0.49458 -0.142151,0.13202 -0.342284,0.2836 -0.510285,0.34543 -0.410746,0.13796 -0.823238,0.2658 -1.233634,0.27662 -0.308758,-0.0419 -0.665017,-0.19035 -0.958058,-0.31679 -0.106877,-0.0461 -0.193148,-0.13237 -0.229123,-0.25252 -0.03353,-0.11142 -0.0028,-0.21795 0.04261,-0.3367 0.202578,-0.49562 0.380358,-1.0094 0.661175,-1.49559 0.127484,-0.16731 0.330412,-0.24205 0.495968,-0.29234 0.235061,-0.0335 0.470122,-0.0671 0.705183,-0.10059 0.06846,-0.10933 0.136915,-0.2183 0.205722,-0.32728 0.104433,-0.0101 0.868642,0.44638 1.008002,0.56059 0.21166,0.17464 0.36499,0.46279 0.44672,0.67026 0.0353,0.0901 0.0576,0.1666 0.0398,0.25672 m -9.645538,-4.85316 c -0.276625,-0.0286 -0.55325,-0.0569 -0.829874,-0.0856 -0.163461,-0.0203 -0.295137,0.0468 -0.458947,0.18337 -0.319585,0.26998 -0.56722,0.60109 -0.708326,0.90077 -0.06741,0.20014 -0.05868,0.53579 -0.01851,0.73941 0.01851,0.0936 0.07125,0.18512 0.143551,0.27453 0.0943,0.11701 0.19734,0.20258 0.323078,0.24799 0.338097,0.0709 0.672002,0.0587 1.008702,0.0171 0.148441,-0.0468 0.316092,-0.14949 0.457548,-0.26719 0.18302,-0.15263 0.315045,-0.35381 0.424018,-0.53264 0.09256,-0.15194 0.171843,-0.30422 0.20188,-0.4593 0.02829,-0.1453 0.04017,-0.32308 -0.01013,-0.46802 -0.04226,-0.12155 -0.144598,-0.25498 -0.25951,-0.37408 -0.09151,-0.0946 -0.178478,-0.15508 -0.27348,-0.17638 m 0.05693,1.00206 c -0.073,0.18477 -0.218295,0.44567 -0.374421,0.56513 -0.195243,0.14948 -0.479552,0.27138 -0.685973,0.28954 -0.107227,0.009 -0.234362,0.0203 -0.338096,-0.0293 -0.05553,-0.0262 -0.113166,-0.074 -0.155427,-0.12539 -0.128184,-0.16451 -0.09745,-0.33216 -0.06357,-0.50121 0.122246,-0.24239 0.310853,-0.5522 0.582937,-0.74046 0.166255,-0.10967 0.435894,-0.20398 0.594814,-0.1659 0.123642,0.0293 0.315393,0.18441 0.386994,0.29618 0.07859,0.1219 0.10583,0.27697 0.05274,0.41144 m 28.088939,-0.98111 c -0.0985,0.10269 -0.17917,0.30597 -0.19769,0.45197 -0.0129,0.0995 0.008,0.19698 0.0905,0.28465 0.16939,0.0737 0.33879,0.14739 0.50854,0.22144 0.0814,0.0678 0.12958,0.19874 0.15053,0.30247 0.0245,0.1212 -0.0119,0.20258 -0.13307,0.28117 -0.17044,0.11037 -0.60285,0.17429 -0.6734,0.26964 -0.051,0.0699 -0.0119,0.14774 0.0636,0.18337 0.0894,0.0426 0.26021,0.0758 0.37267,0.0887 0.17779,0.0209 0.58678,-0.0325 0.73627,-0.11561 0.13971,-0.0782 0.18931,-0.21864 0.19699,-0.34298 -0.009,-0.2424 0.044,-0.5096 -0.0423,-0.72999 -0.22144,-0.32063 -0.74186,-0.43694 -0.86166,-0.55918 0.10933,-0.13902 0.2183,-0.27768 0.32762,-0.41634 0.0419,-0.10373 0.004,-0.17184 -0.0835,-0.16555 -0.1233,0.009 -0.36639,0.15367 -0.45511,0.24623 m -7.16395,0.25533 c -0.20572,0.22388 -0.36953,0.48619 -0.43764,0.72229 -0.0503,0.17394 -0.1191,0.37442 -0.10583,0.5508 0.0108,0.14705 0.0569,0.3161 0.11037,0.4614 0.0339,0.0908 0.0873,0.19524 0.16626,0.27313 0.0821,0.0817 0.17219,0.11351 0.27068,0.14006 0.16591,0.0444 0.30492,0.0566 0.46384,0.0223 0.2382,-0.0831 0.50191,-0.0625 0.71671,-0.24973 0.13098,-0.12749 0.22877,-0.3105 0.28955,-0.45371 0.0978,-0.23227 0.1907,-0.48654 0.24414,-0.72893 0.0328,-0.14809 0.0182,-0.32518 -0.0503,-0.46838 -0.0402,-0.11735 -0.20013,-0.20502 -0.29758,-0.15333 -0.17289,0.40377 -0.34613,0.80752 -0.51937,1.21128 -0.0786,0.10513 -0.20572,0.19874 -0.31365,0.23611 -0.12538,0.0433 -0.29339,0.044 -0.39782,-0.0615 -0.0678,-0.0681 -0.0824,-0.15298 -0.087,-0.23961 -0.009,-0.17324 -0.0461,-0.43274 0.0398,-0.60214 0.20852,-0.37163 0.71112,-0.56233 0.88471,-0.90951 0.0112,-0.0664 -0.0161,-0.13517 -0.0639,-0.19 -0.0534,-0.0615 -0.11316,-0.0922 -0.18197,-0.0947 -0.26475,0.0566 -0.51832,0.36605 -0.73103,0.53405 m -15.899291,-0.53859 c -0.212708,0.10059 -0.425416,0.20083 -0.637774,0.30142 -0.21131,-0.0147 -0.422621,-0.0293 -0.633931,-0.044 -0.05763,0.0168 -0.105481,0.0486 -0.138313,0.11107 -0.03004,0.058 -0.03807,0.12713 -0.01327,0.19663 0.05204,0.14565 0.219693,0.26231 0.333557,0.28921 0.215851,0.0513 0.520417,0.0297 0.737316,-0.0255 0.149838,-0.0384 0.320284,-0.10548 0.462787,-0.25183 0.107227,-0.11037 0.184417,-0.25881 0.171843,-0.38071 -0.0017,-0.12434 -0.148791,-0.20571 -0.282213,-0.19629 m 18.584509,-0.24449 c -0.14146,0.0765 -0.36534,0.32377 -0.4352,0.43869 -0.17987,0.51728 -0.12678,1.07401 -0.28535,1.62272 -0.009,0.0996 0.0182,0.20153 0.10268,0.25323 0.05,0.0304 0.1212,0.0356 0.18651,0.0217 0.10583,-0.0231 0.1722,-0.0863 0.21027,-0.16836 0.0908,-0.4778 0.18127,-0.95596 0.27208,-1.43376 0.0356,-0.1226 0.11282,-0.2211 0.22912,-0.23367 0.11457,-0.0126 0.20084,0.0527 0.24415,0.15647 0.11211,0.41494 0.22458,0.82953 0.3367,1.24412 0.0335,0.0597 0.0772,0.11386 0.13866,0.12923 0.0566,0.014 0.11945,-0.0133 0.15857,-0.0583 0.094,-0.10897 0.13202,-0.4083 0.13202,-0.54487 -0.0604,-0.39258 -0.1177,-0.78202 -0.31574,-1.18299 -0.0559,-0.0943 -0.13691,-0.19314 -0.23122,-0.24239 -0.168,-0.0884 -0.58398,-0.0873 -0.74325,-0.002 m -27.862612,0.65035 c 0.104433,0.13797 0.187211,0.18268 0.319586,0.19036 0.234711,0.0136 0.499111,0.0223 0.733125,-0.0164 0.17324,-0.0286 0.387694,-0.0908 0.550455,-0.15962 0.132724,-0.0468 0.287103,-0.22982 0.323776,-0.39956 0.0063,-0.0667 -0.02166,-0.12889 -0.06846,-0.16661 -0.04541,-0.036 -0.117007,-0.0461 -0.174288,-0.0482 -0.358354,0.0856 -0.71636,0.17149 -1.074365,0.25742 -0.184766,-0.10548 -0.369532,-0.21061 -0.554298,-0.3161 -0.134819,0.0115 -0.21131,0.14006 -0.20642,0.26859 -0.0031,0.13447 0.05134,0.25916 0.150886,0.39014 m 29.266695,0.25009 c 0.014,0.32342 0.058,0.6947 0.12224,0.99263 0.0245,0.11352 0.051,0.25078 0.16521,0.3587 0.0884,0.0838 0.18337,0.10409 0.28082,0.10967 0.12015,0.007 0.2609,0.0126 0.37512,-0.0342 0.21654,-0.0884 0.55429,-0.5997 0.67794,-0.60041 0.0692,0.1736 0.13831,0.34719 0.20746,0.52077 0.0859,0.0905 0.25078,0.13657 0.35312,0.0695 0.10234,-0.0671 0.13063,-0.23087 0.1177,-0.35416 -0.0499,-0.47886 -0.0154,-0.91336 -0.0838,-1.3538 -0.0136,-0.0894 -0.0527,-0.18546 -0.12609,-0.28046 -0.0723,-0.094 -0.16171,-0.16974 -0.26405,-0.1687 -0.074,9e-4 -0.12399,0.03 -0.18127,0.087 -0.17988,0.35416 -0.35941,0.70797 -0.53893,1.06214 -0.0709,0.1177 -0.22249,0.35381 -0.34893,0.36184 -0.0793,0.005 -0.12119,-0.0835 -0.13656,-0.1701 -0.0779,-0.44113 -0.0587,-0.95805 -0.19944,-1.43341 -0.0189,-0.0632 -0.043,-0.10165 -0.10653,-0.14007 -0.087,-0.052 -0.20257,-0.0604 -0.25601,-0.0143 -0.10479,0.25916 -0.0493,0.66501 -0.058,0.9874 m -13.114189,-0.99684 c -0.0985,0.0273 -0.18616,0.0734 -0.28256,0.15439 -0.18372,0.15437 -0.3863,0.36044 -0.52915,0.53997 -0.12015,0.15054 -0.20642,0.30946 -0.25462,0.46209 -0.0852,0.27034 -0.0985,0.73836 -0.0314,1.00975 0.0356,0.18197 0.29408,0.37582 0.46732,0.44392 0.24694,0.0615 0.50785,0.008 0.74221,-0.10093 0.20782,-0.20608 0.369881,-0.53055 0.505751,-0.80298 0.0227,-0.0646 0.0423,-0.13238 0.0328,-0.18512 -0.0112,-0.0604 -0.0412,-0.0915 -0.10618,-0.0968 -0.259861,0.003 -0.496321,0.43625 -0.721951,0.54906 -0.0824,0.0377 -0.16381,0.0175 -0.24344,-0.0237 -0.0831,-0.0426 -0.13377,-0.0961 -0.15159,-0.17638 -0.0318,-0.21131 0.0493,-0.44288 0.20538,-0.67515 0.13342,-0.1921 0.34368,-0.45754 0.5054,-0.60215 0.12818,-0.0737 0.25671,-0.14704 0.384901,-0.22038 0.0262,-0.102 -0.110031,-0.23367 -0.234371,-0.27838 -0.0943,-0.0342 -0.19419,-0.023 -0.2885,0.003 m -6.263175,1.9018 c 0.102687,0.15263 0.289898,0.32132 0.437291,0.42715 0.0964,0.0688 0.183718,0.10862 0.279419,0.1226 0.142504,0.021 0.329016,0.0286 0.469074,-0.0276 0.246238,-0.0988 0.580143,-0.50226 0.689466,-0.50855 0.1205,0.0622 0.08767,0.41599 0.354862,0.61507 0.14914,0.13657 0.313997,0.10968 0.469774,0.0912 0.192449,-0.0304 0.363942,-0.10687 0.552201,-0.24519 0.288158,-0.27488 0.575958,-0.5494 0.864108,-0.82428 0.0534,-0.0231 0.0831,-0.0164 0.11351,0.0265 0.0283,0.10618 0.0562,0.2127 0.0842,0.31888 0.0321,0.0503 0.0908,0.10129 0.15507,0.12854 0.0748,0.0314 0.13517,0.0349 0.19769,0.007 0.0943,-0.0416 0.11422,-0.13273 0.1205,-0.22354 0.0217,-0.31539 0.0444,-0.6954 -0.0342,-1.01114 -0.0224,-0.0891 -0.0555,-0.20293 -0.11211,-0.27628 -0.0608,-0.0789 -0.14286,-0.10618 -0.24764,-0.10652 -0.10583,0 -0.18232,0.0276 -0.24484,0.10407 -0.28431,0.34789 -0.6975,0.87109 -1.122219,1.22735 -0.107925,0.0908 -0.235759,0.20293 -0.330412,0.22459 -0.0468,0.0108 -0.08837,-0.005 -0.109672,-0.0398 -0.06636,-0.15054 0.06636,-0.36464 0.207119,-0.56792 0.169747,-0.24379 0.443578,-0.6465 0.575604,-0.7705 0.12399,-0.095 0.3402,-0.18721 0.38385,-0.32622 0.0266,-0.0849 -0.0126,-0.20083 -0.0803,-0.25217 -0.0457,-0.0346 -0.10478,-0.0388 -0.1687,-0.0328 -0.0953,0.009 -0.19908,0.043 -0.290248,0.10094 -0.188258,0.11981 -0.37477,0.34264 -0.547311,0.51588 -0.267544,0.34229 -0.535436,0.68493 -0.80298,1.02721 -0.199436,0.11038 -0.570364,0.23716 -0.778531,0.2658 -0.113514,0.0157 -0.223535,0.005 -0.335303,-0.0716 -0.130628,-0.0887 -0.277672,-0.26929 -0.300724,-0.39573 -0.0241,-0.12923 0.02969,-0.3828 0.136566,-0.48723 0.284658,-0.20153 0.643711,-0.003 0.963995,-0.13063 0.179177,-0.0912 0.516226,-0.42471 0.606339,-0.60983 0.05728,-0.11771 0.05798,-0.26719 -0.0021,-0.3877 -0.09011,-0.17638 -0.290595,-0.30596 -0.433797,-0.29164 -0.178828,-0.0105 -0.377564,-0.014 -0.555345,0.0412 -0.186512,0.058 -0.37058,0.1673 -0.55255,0.33251 -0.221789,0.20119 -0.417382,0.42368 -0.522165,0.63184 -0.116308,0.23052 -0.183717,0.49457 -0.205024,0.73243 -0.008,0.21514 -0.02305,0.4303 0.11561,0.64581 m 0.726836,-1.31849 0.04715,0.0471 -0.04715,0.0471 -0.04715,-0.0471 0.04715,-0.0471 m 0.601798,-0.21201 c -0.172191,0.0723 -0.461041,0.2595 -0.498413,0.13412 -0.007,-0.10374 0.17324,-0.33985 0.281165,-0.40726 0.09919,-0.0618 0.223885,-0.12224 0.32203,-0.12399 0.07579,-0.002 0.166255,0.0241 0.180924,0.0712 0.02724,0.0884 -0.157871,0.25288 -0.285706,0.32588 m 11.408333,-1.72751 c -0.0901,0.13167 -0.114214,0.39607 -0.139364,0.54906 0.0335,1.008 -0.19909,2.00133 -0.19804,3.05334 0.005,0.15124 0.0433,0.3126 0.14739,0.46908 0.0877,0.13238 0.195954,0.18546 0.337054,0.18896 0.168,0.004 0.32238,-0.0646 0.46035,-0.20328 0.19734,-0.19874 0.3587,-0.47885 0.48933,-0.71147 0.13377,-0.23855 0.24938,-0.48339 0.31015,-0.72754 0.0433,-0.30003 0.0765,-0.62346 -0.009,-0.90671 -0.0507,-0.0803 -0.15368,-0.14879 -0.25043,-0.18232 -0.2651,-0.13832 -0.62555,0.11561 -0.75234,0.0583 -0.11456,-0.41739 0.0758,-0.942 0.0513,-1.40548 -0.0143,-0.1191 -0.16067,-0.27348 -0.29584,-0.26824 -0.0716,0 -0.11281,0.0304 -0.15088,0.0863 m 0.89798,2.25805 c -0.0189,0.14006 -0.0775,0.28606 -0.13797,0.42681 -0.11665,0.25322 -0.30107,0.65663 -0.50784,0.80019 -0.0657,0.01 -0.0283,-0.94479 0.0611,-1.11139 0.11352,-0.1687 0.39049,-0.30526 0.5288,-0.30037 0.0608,0.0196 0.0678,0.0971 0.0559,0.18476 m -5.844758,-2.14978 c 0.074,0.18233 0.1481,0.36464 0.22214,0.54697 0.05,0.42855 0.0154,0.89868 0.003,1.32933 -0.0122,0.41424 -0.22842,0.83476 -0.241,1.26157 -0.003,0.11771 0.0726,0.27489 0.19106,0.34369 0.0856,0.0496 0.19349,0.0489 0.272434,0.003 0.22144,-0.1467 0.25602,-0.59761 0.46558,-0.68074 0.2155,0.0604 0.43834,0.47117 0.61088,0.59411 0.0807,0.0444 0.19105,0.0451 0.26754,-0.008 0.0747,-0.0517 0.11037,-0.15473 0.11841,-0.25288 0.008,-0.10303 -0.0168,-0.18929 -0.0789,-0.29094 -0.241,-0.49492 -0.90008,-0.72439 -1.06982,-0.99578 -0.0154,-0.50295 -0.0307,-1.00625 -0.0461,-1.50921 -0.0751,-0.1687 -0.14914,-0.39363 -0.334604,-0.54102 -0.10304,-0.0817 -0.20642,-0.11073 -0.2899,-0.0594 -0.0852,0.052 -0.11246,0.16207 -0.0905,0.25846 m -11.910928,-0.36674 c -0.157873,0.10374 -0.330414,0.29689 -0.398871,0.43765 -0.18302,0.36184 -0.171144,0.72404 -0.230521,1.08659 0.0066,0.16939 0.01362,0.33879 0.02061,0.50819 -0.0468,0.1219 -0.296533,0.14879 -0.282911,0.30456 0.07963,0.12644 0.158919,0.25288 0.238554,0.37966 0.0031,0.35068 0.03318,0.70763 0.140407,1.06948 0.06566,0.12504 0.227727,0.26614 0.349624,0.26405 0.09745,-0.002 0.117704,-0.0796 0.124341,-0.16765 -0.01572,-0.35172 -0.03144,-0.70379 -0.0475,-1.0555 0.239253,-0.22389 0.677592,-0.13867 1.014989,-0.22878 0.122246,-0.0684 0.301772,-0.29338 0.340891,-0.43833 0.01851,-0.0692 0.01188,-0.13657 -0.02165,-0.19281 -0.03667,-0.0622 -0.08662,-0.0915 -0.152982,-0.0967 -0.18267,0.0796 -0.365341,0.15891 -0.548011,0.23855 -0.183019,-0.007 -0.440084,0.0594 -0.545565,-0.0737 -0.01676,-0.36499 0.04785,-0.80996 0.176034,-1.1987 0.0475,-0.0824 0.12993,-0.17359 0.212708,-0.20468 0.150187,0.008 0.300375,0.0157 0.450563,0.0238 0.09849,-0.0269 0.167651,-0.0922 0.186162,-0.19211 0.01851,-0.10024 -0.01607,-0.19943 -0.09151,-0.27557 -0.121896,-0.1226 -0.402711,-0.27872 -0.556043,-0.29409 -0.120499,-0.0122 -0.260558,0.0283 -0.37931,0.10617 m -7.416476,-0.61296 c -0.09919,0.0482 -0.196641,0.14704 -0.260907,0.24064 -0.253572,0.52496 -0.434846,1.01639 -0.723345,1.53995 -0.01397,0.0639 -0.01013,0.13098 0.02689,0.18441 0.03493,0.0506 0.09745,0.0782 0.147045,0.0681 0.18721,-0.10338 0.367784,-0.44777 0.5047,-0.63323 0.06007,-0.0643 0.08452,-0.0398 0.0964,0.044 -0.08662,0.84873 -0.126787,1.69817 -0.264052,2.56122 -0.01397,0.23541 0.01223,0.48689 0.06252,0.70658 0.01851,0.14705 -0.212008,0.17359 -0.286753,0.29549 -0.02969,0.0492 -0.04017,0.11595 -0.02934,0.18022 0.01781,0.10479 0.08522,0.18058 0.180225,0.24379 0.121198,0.0803 0.260558,0.13587 0.377565,0.13971 0.457199,-0.10932 0.902523,-0.25217 1.366358,-0.42541 0.151585,-0.0681 0.347528,-0.15438 0.364642,-0.31609 0.01607,-0.0873 -0.0021,-0.20992 -0.05099,-0.28571 -0.03842,-0.0594 -0.07859,-0.0845 -0.146346,-0.0957 -0.388043,0.0283 -0.724743,0.29024 -1.074016,0.36499 -0.08907,0.0192 -0.124691,-0.008 -0.141805,-0.094 -0.02934,-0.1446 -0.06671,-0.35696 -0.06636,-0.51029 0.102687,-1.03211 0.190703,-2.09494 0.328317,-3.14067 0.0021,-0.27837 0.06252,-0.63533 -0.01188,-0.90916 -0.0255,-0.0936 -0.09291,-0.16835 -0.199086,-0.18861 -0.06846,-0.0133 -0.134471,-0.002 -0.199785,0.0297 m -7.22612,-5.66802 c -0.06811,0.0922 -0.136217,0.18441 -0.204325,0.27663 -0.142154,0.0119 -0.414937,-0.073 -0.62066,0.0538 -0.126087,0.0688 -0.243443,0.18442 -0.334603,0.30248 -0.295486,0.39293 -0.443228,0.78342 -0.59621,1.17565 -0.09849,0.25706 -0.15403,0.63917 -0.154728,0.90846 -3.58e-4,0.17254 0.06636,0.37966 0.159967,0.55185 0.120499,0.22249 0.407602,0.55011 0.578746,0.69191 0.149489,0.12399 0.352068,0.19699 0.528102,0.25287 0.23506,0.0747 0.490729,0.14216 0.731029,0.14915 0.245191,0.007 0.489333,-0.0447 0.733474,-0.16661 0.20747,-0.10373 0.44777,-0.26265 0.622057,-0.47012 0.202579,-0.2417 0.375469,-0.56058 0.468026,-0.81869 0.100941,-0.28222 0.172542,-0.61543 0.181623,-0.91021 0.0091,-0.29514 -0.04122,-0.63253 -0.11107,-0.90532 -0.04715,-0.18441 -0.169746,-0.47222 -0.293389,-0.63428 -0.08278,-0.10897 -0.205024,-0.16276 -0.33181,-0.21097 -0.287801,-0.10931 -0.75478,-0.31119 -1.091131,-0.33879 -0.101638,-0.008 -0.190703,0.0203 -0.265098,0.0922 m 1.234682,0.95421 c 0.10094,0.18338 0.205024,0.4125 0.244142,0.60564 0.02934,0.14425 0.06846,0.29235 0.0496,0.43695 -0.03004,0.23191 -0.06811,0.47117 -0.181273,0.70029 -0.101988,0.20607 -0.215851,0.41808 -0.400617,0.61542 -0.200134,0.2141 -0.401664,0.31819 -0.601449,0.41913 -0.09186,0.0465 -0.166254,0.0751 -0.258113,0.0639 -0.187909,-0.0227 -0.426463,-0.11596 -0.604942,-0.21131 -0.193497,-0.10339 -0.424716,-0.33461 -0.592368,-0.53579 -0.130978,-0.15752 -0.187909,-0.27977 -0.193148,-0.42995 -0.0045,-0.1453 0.01222,-0.28047 0.0702,-0.4317 0.157173,-0.41075 0.356608,-0.96575 0.582239,-1.32725 0.05274,-0.0849 0.12015,-0.12259 0.212707,-0.1198 0.205374,0.0391 0.410397,0.0782 0.61577,0.11736 0.272782,-0.037 0.53858,-0.2134 0.789009,-0.10583 0.120848,0.0325 0.201181,0.081 0.268242,0.20292 m -4.262534,-0.75792 c -0.179178,-0.0175 -0.358704,-0.0349 -0.538232,-0.0524 -0.260557,-0.14145 -0.538928,-0.29828 -0.817998,-0.29968 -0.171843,-8.9e-4 -0.388043,0.0548 -0.5529,0.13762 -0.257414,0.12958 -0.604941,0.41354 -0.798788,0.59237 -0.164857,0.15228 -0.345432,0.40061 -0.446721,0.60284 -0.145298,0.29095 -0.264051,0.68947 -0.290945,0.99683 -0.02061,0.23471 -0.06566,0.59447 0.02864,0.82184 0.07998,0.19315 0.283261,0.48794 0.443927,0.63637 0.215502,0.15997 0.486538,0.13273 0.721599,0.18826 0.352417,0.0304 0.724743,0.0154 1.077859,0.004 0.22563,-0.007 0.501556,-0.0597 0.728933,-0.12505 0.0943,-0.0269 0.180575,-0.0709 0.27418,-0.15333 0.213406,-0.18721 0.478505,-0.48863 0.602497,-0.72579 0.13971,-0.26615 0.242745,-0.70657 0.291294,-0.99577 0.04226,-0.25009 0.0489,-0.56723 0.001,-0.81765 -0.03318,-0.1736 -0.133073,-0.39364 -0.279768,-0.54068 -0.117705,-0.1177 -0.298629,-0.22458 -0.444625,-0.26999 m 0.111768,1.26437 c -0.007,0.20502 -0.132375,0.50086 -0.200833,0.70344 -0.05868,0.17324 -0.148791,0.36115 -0.2644,0.52636 -0.08033,0.1149 -0.193149,0.22912 -0.309107,0.30525 -0.189307,0.124 -0.412492,0.16626 -0.609133,0.19944 -0.228076,0.0384 -0.476759,0.0227 -0.70658,0.0157 -0.17324,-0.006 -0.357308,-0.0412 -0.521815,-0.10233 -0.08662,-0.0321 -0.151934,-0.0779 -0.21201,-0.15613 -0.08138,-0.10618 -0.117006,-0.21655 -0.122245,-0.33495 -0.01432,-0.31819 0.0084,-0.64371 0.123992,-0.9612 0.06112,-0.16835 0.185464,-0.36429 0.327967,-0.52042 0.144251,-0.15823 0.334954,-0.28361 0.507844,-0.4083 0.174638,-0.10758 0.348576,-0.2885 0.522165,-0.25253 0.353814,0.0583 0.819744,0.18267 1.140029,0.30212 0.09011,0.0332 0.168349,0.0849 0.215152,0.17045 0.0709,0.12993 0.114212,0.37058 0.108974,0.51308 m 29.537371,-2.4051 c -0.24869,0.17219 -0.49772,0.4579 -0.61647,0.69226 -0.0988,0.1956 -0.11771,0.36011 -0.1191,0.54766 -0.003,0.36325 0.0416,0.72125 0.10688,1.08485 0.0499,0.27523 0.12643,0.54137 0.29443,0.8187 0.13273,0.21969 0.28885,0.41702 0.51623,0.55849 0.427864,0.17079 0.852584,0.0632 1.279044,0.0705 0.15123,-0.0248 0.3098,-0.0821 0.45964,-0.17289 0.15333,-0.0925 0.27383,-0.21095 0.36604,-0.36603 0.23681,-0.42891 0.31749,-0.84454 0.42192,-1.26821 0.0402,-0.18023 0.0468,-0.36499 0.0178,-0.54557 -0.0423,-0.26614 -0.10513,-0.55325 -0.1722,-0.8166 -0.0237,-0.0922 -0.0838,-0.19036 -0.17987,-0.27349 -0.2424,-0.21095 -0.74011,-0.44392 -1.08904,-0.60668 -0.16066,-0.0747 -0.38944,-0.0506 -0.55359,-0.022 -0.23856,0.0409 -0.500514,0.13936 -0.731734,0.29897 m 1.066684,0.19106 c -0.0775,0.0569 -0.15473,0.11421 -0.23227,0.17149 -0.0346,0.0772 0.002,0.18407 0.0723,0.24764 0.25811,0.18301 0.60075,0.0859 0.87179,0.17114 0.15193,0.10059 0.23227,0.31051 0.25357,0.47222 0.0245,0.22039 0.023,0.4806 -0.0112,0.70099 -0.0346,0.22214 -0.12015,0.48409 -0.23366,0.69575 -0.0765,0.14285 -0.21271,0.29095 -0.3587,0.39748 -0.12225,0.0894 -0.22109,0.11945 -0.34124,0.12399 -0.18722,0.007 -0.41843,0.0223 -0.59761,-0.065 -0.129234,-0.0629 -0.230874,-0.21969 -0.334614,-0.36429 -0.10897,-0.15263 -0.15857,-0.28571 -0.19664,-0.43659 -0.0775,-0.30701 -0.1432,-0.6528 -0.15822,-0.96609 -0.002,-0.28501 0.27523,-0.59622 0.44637,-0.85048 0.152994,-0.15194 0.493184,-0.34194 0.661534,-0.34648 0.0775,-0.002 0.16241,0.0262 0.15857,0.0482 m -27.426365,-1.98352 c -0.127485,0.0754 -0.364642,0.48897 -0.44218,0.62554 -0.09081,0.16032 -0.213756,1.09357 -0.21166,1.3489 7.15e-4,0.0985 0.03493,0.20502 0.120499,0.24484 0.05554,0.0262 0.127136,0.0189 0.18302,-0.01 0.06531,-0.0332 0.08976,-0.0758 0.107575,-0.13482 0.01886,-0.28571 0.08313,-0.61892 0.162413,-0.90043 0.03528,-0.12609 0.101639,-0.43171 0.193497,-0.43799 0.193499,0.11805 0.05484,0.60983 0.376168,0.89589 0.04436,0.051 0.07928,0.074 0.150537,0.0674 0.05833,-0.006 0.118753,-0.0405 0.145298,-0.0887 -0.02131,-0.39363 -0.140408,-0.85328 -0.212358,-1.27415 -0.03702,-0.1191 -0.141806,-0.26789 -0.286405,-0.3374 -0.09989,-0.0479 -0.205372,-0.0468 -0.286404,8.9e-4 m 5.435045,0.88401 c 0.08452,0.30876 0.07649,0.6224 0.275927,0.92069 0.114561,0.11071 0.258113,0.12434 0.385598,0.074 0.307012,-0.11352 0.522863,-0.49562 0.615419,-0.59795 0.095,0.0615 0.180576,0.40515 0.238554,0.60843 0.03633,0.0772 0.113514,0.11841 0.210962,0.0643 0.162412,-0.0967 0.117705,-0.29514 0.124691,-0.44184 -0.13936,-0.49876 -0.0475,-0.96609 -0.230172,-1.4397 -0.04331,-0.0559 -0.09675,-0.0817 -0.168001,-0.0793 -0.07055,0.002 -0.126785,0.0335 -0.176034,0.0824 -0.09884,0.23576 -0.197688,0.47187 -0.296882,0.70763 -0.136565,0.17429 -0.25462,0.47047 -0.421573,0.52915 -0.122595,-0.008 -0.15403,-0.20956 -0.171493,-0.32937 0.0024,-0.3332 0.0045,-0.66606 0.007,-0.99926 -0.0038,-0.10339 -0.119451,-0.0388 -0.217597,0.0409 -0.166603,0.20851 -0.137963,0.55919 -0.176383,0.85991 m -9.464615,1.37718 c 0.181972,0.0402 0.384201,-0.0209 0.565824,-0.10303 0.150187,-0.0678 0.305963,-0.34299 0.332857,-0.34334 0.05554,0.11387 0.111069,0.22773 0.166953,0.34159 0.0737,0.0772 0.184067,0.14914 0.27418,0.17743 0.250079,0.0454 0.49492,-0.0692 0.741158,-0.10442 0.182321,-0.0576 0.367785,-0.1708 0.548011,-0.29514 0.179526,-0.12364 0.508542,-0.36359 0.597606,-0.50785 0.08278,-0.13377 0.07754,-0.56407 0.02899,-0.73033 -0.01816,-0.0618 -0.04436,-0.10583 -0.109323,-0.14076 -0.05623,-0.0304 -0.123992,-0.0377 -0.176732,-0.0133 -0.167651,0.12154 -0.137265,0.4041 -0.270687,0.59446 -0.06846,0.11631 -0.179527,0.23645 -0.297232,0.34787 -0.166953,0.15823 -0.344034,0.22703 -0.526705,0.31121 -0.107227,0.0496 -0.232266,0.0531 -0.332508,0.0332 -0.08313,-0.0164 -0.118404,-0.0541 -0.11037,-0.13971 0.01187,-0.12749 0.08487,-0.29025 0.172541,-0.42053 0.209564,-0.35661 0.68737,-0.57211 0.891695,-0.82324 0.01816,-0.0576 -0.01153,-0.0831 -0.06182,-0.0926 -0.09675,-0.0182 -0.265447,0.037 -0.375468,0.0723 -0.183718,0.0587 -0.385249,0.19244 -0.535087,0.31678 -0.270338,0.22494 -0.512733,0.61892 -0.749192,0.79984 -0.104782,0.08 -0.451611,0.25951 -0.573856,0.23436 -0.08103,-0.0164 -0.126088,-0.0964 -0.143203,-0.18231 -0.0248,-0.12679 -0.03877,-0.39294 0.0248,-0.49248 0.217248,-0.15682 0.625199,-0.0493 0.93256,-0.21305 0.156824,-0.0852 0.341939,-0.2899 0.361149,-0.43904 0.01188,-0.0919 -0.01432,-0.20014 -0.05553,-0.28921 -0.04471,-0.0967 -0.117704,-0.17289 -0.212707,-0.23401 -0.123294,-0.0796 -0.254621,-0.12888 -0.377215,-0.14354 -0.148791,-0.0182 -0.319237,-0.0133 -0.466979,0.0304 -0.130279,0.0381 -0.222487,0.11666 -0.311203,0.24763 -0.106528,0.15682 -0.170096,0.31086 -0.212707,0.46105 -0.0503,0.17673 -0.104783,0.36603 -0.12015,0.54591 -0.02166,0.24659 -0.05204,0.57805 0.0049,0.82184 0.03667,0.15718 0.213406,0.336 0.375469,0.37197 m 0.911953,-1.8005 c -0.117705,0.11771 -0.279768,0.25987 -0.402363,0.35381 -0.08278,0.0632 -0.288151,0.0325 -0.323427,-0.0541 -0.01223,-0.13971 0.107925,-0.38455 0.290595,-0.48305 0.155427,-0.0817 0.351719,-0.0884 0.468725,0.0154 0.05274,0.0576 0.02515,0.10933 -0.03353,0.168 m 7.606479,-0.65558 c -0.04715,0.0911 -0.0943,0.18196 -0.141455,0.27313 -0.16835,-0.006 -0.336351,-0.0112 -0.504351,-0.0168 -0.153331,0.0244 -0.3126,0.0517 -0.463486,0.17882 -0.283261,0.2616 -0.367087,0.5543 -0.443577,0.82638 -0.01746,0.16136 0.02969,0.50749 0.113862,0.63882 0.0709,0.11073 0.222837,0.18337 0.345432,0.20258 0.153331,0.0238 0.323427,0.0178 0.468027,-0.0601 0.233314,-0.19698 0.46628,-0.39397 0.699595,-0.59096 0.07963,-0.029 0.12015,0.0248 0.135867,0.10547 -0.03912,0.4359 -0.07859,0.87179 -0.117705,1.30768 -0.08662,0.34893 -0.251477,0.7244 -0.431004,1.0625 -0.08418,0.15926 -0.230869,0.38909 -0.404109,0.47955 -0.185464,0.18756 -0.484093,-0.32343 -0.517973,-0.11107 10e-4,0.0975 0.08313,0.27732 0.165905,0.37617 0.09291,0.11107 0.235062,0.1907 0.363943,0.20258 0.102687,0.009 0.190354,-0.021 0.288849,-0.0964 0.153331,-0.11806 0.329016,-0.30388 0.43764,-0.44987 0.259161,-0.45615 0.439736,-0.90462 0.549058,-1.35763 0.09151,-0.5494 0.137964,-1.16552 0.107228,-1.71912 -0.01572,-0.2871 -0.06846,-0.62135 -0.152284,-0.89694 -0.0503,-0.1446 -0.09849,-0.35206 -0.243793,-0.42261 -0.08941,-0.0367 -0.195943,8.9e-4 -0.255669,0.0678 m -0.180923,0.89623 c -0.193847,0.23576 -0.585732,0.67375 -0.796343,0.72195 -0.07579,-0.0126 -0.07265,-0.15683 -0.06287,-0.2637 0.01013,-0.11282 0.03109,-0.22668 0.106179,-0.3395 0.08906,-0.13377 0.271386,-0.31574 0.402014,-0.40096 0.10094,-0.066 0.232267,-0.10688 0.300375,-0.0716 0.09081,0.0468 0.113165,0.23541 0.05065,0.35381 m 10.346181,-1.71424 c -0.320284,0.34928 -0.723695,0.40167 -0.970282,0.81836 -0.06706,0.15193 -0.03423,0.35974 0.08033,0.4502 0.266496,0.13308 0.598655,-0.0517 0.886806,-0.0314 0.08802,0.0143 0.172541,0.0615 0.183369,0.13866 0.01362,0.0971 -0.102337,0.22143 -0.201182,0.3091 -0.200483,0.13412 -0.400617,0.26825 -0.6011,0.40237 -0.06531,0.0723 -0.101289,0.18441 -0.06147,0.22877 0.06566,0.073 0.646156,-0.0318 0.80752,-0.13551 0.250779,-0.19072 0.494572,-0.47327 0.606339,-0.71357 0.04191,-0.13623 -0.01118,-0.35172 -0.09256,-0.46699 -0.05728,-0.0817 -0.155776,-0.14739 -0.252525,-0.18092 -0.330762,-0.16241 -0.849783,0.19944 -0.972727,0.0646 0.181273,-0.33634 0.880519,-0.78376 0.838955,-0.94163 -0.04226,-0.037 -0.14879,-0.0136 -0.251477,0.058 m -3.577958,-0.0604 c -0.258113,0.1617 -0.479902,0.46732 -0.597607,0.6933 -0.130628,0.2609 -0.22109,0.55884 -0.229124,0.82254 -0.0073,0.22633 -0.04401,0.50819 0.0098,0.73138 0.0227,0.0957 0.08662,0.1928 0.187909,0.24763 0.150188,0.0814 0.425415,0.0762 0.570713,0.004 0.191752,-0.0953 0.563379,-0.50575 0.595162,-0.62555 0.02165,-0.0803 -0.05309,-0.11701 -0.156475,-0.12225 -0.17743,0.051 -0.354861,0.10164 -0.531942,0.15228 -0.07789,-0.0161 -0.134471,-0.0664 -0.146346,-0.13342 0.130279,-0.29304 0.686322,-0.75687 0.911953,-1.2263 0.05169,-0.0953 0.0723,-0.18651 0.06427,-0.28676 -0.0077,-0.0999 -0.04157,-0.19873 -0.117008,-0.24972 -0.115958,-0.0782 -0.419477,-0.0751 -0.561282,-0.007 m -0.163101,0.844 0.04715,0.0471 -0.04715,0.0472 -0.04715,-0.0472 0.04715,-0.0471 m 0.08941,-0.0894 0.04715,0.0471 -0.04715,0.0471 -0.04715,-0.0471 0.04715,-0.0471 m 11.95493,-0.87703 c 0.0112,0.51797 -0.17428,1.03315 -0.0842,1.55217 0.0241,0.15438 0.0538,0.32342 0.18267,0.44497 0.10059,0.095 0.26789,0.20049 0.36743,0.15822 0.0761,-0.0325 0.12225,-0.15228 0.11561,-0.24413 -0.0175,-0.23507 -0.21864,-0.43905 -0.24274,-0.72056 -0.0335,-0.39188 -0.001,-0.76177 0.0426,-1.16343 -0.002,-0.0685 -0.0182,-0.10688 -0.0786,-0.14774 -0.0534,-0.0356 -0.12818,-0.0524 -0.18441,-0.0465 -0.0936,0.0101 -0.11142,0.0737 -0.11841,0.16695 m -10.093302,-0.5309 c -0.237855,0.25183 -0.384201,0.55046 -0.495619,0.81416 -0.168,0.48235 -0.272783,0.95701 -0.331111,1.44704 -0.0052,0.1659 -0.04366,0.38804 0.04226,0.55429 0.04995,0.0964 0.152982,0.20398 0.260559,0.22599 0.111418,0.0223 0.17778,-0.052 0.210612,-0.13622 0.130977,-0.35382 0.06671,-0.72439 0.133772,-1.08275 0.08173,-0.33111 0.169747,-0.64964 0.342637,-0.97482 0.05588,-0.10513 0.135867,-0.25777 0.233664,-0.31854 0.101638,-0.0873 0.311901,0.10304 0.407602,-0.0576 0.06217,-0.0943 0.0059,-0.25846 -0.0468,-0.37512 -0.04575,-0.10164 -0.09849,-0.16136 -0.192451,-0.18546 -0.180224,-0.009 -0.392932,-0.0597 -0.565124,0.0891 m 11.016081,-0.0604 c 0.11317,0.27138 0.26545,0.52844 0.28047,0.80123 -0.0457,0.20781 -0.0915,0.41599 -0.13726,0.62415 -0.0168,0.19734 -0.0136,0.46139 0.0381,0.62799 0.0157,0.0506 0.0388,0.0685 0.0894,0.0493 0.0552,-0.021 0.0866,-0.0597 0.10793,-0.12329 0.014,-0.17778 0.0279,-0.35556 0.0419,-0.53334 0.0262,-0.0821 0.0786,-0.1701 0.13133,-0.16835 0.25532,0.32866 0.51063,0.65733 0.76595,0.986 0.113521,0.12434 0.282571,0.20991 0.361501,0.13447 0.0887,-0.0971 0.0105,-0.30003 -0.0709,-0.44777 -0.28815,-0.45126 -0.643011,-0.90112 -0.845941,-1.33423 -0.022,-0.10896 -0.008,-0.22248 0.0573,-0.34438 0.10373,-0.14948 0.20782,-0.29898 0.31155,-0.44812 -0.029,-0.037 -0.14879,-0.0426 -0.24379,-0.0112 -0.1439,0.087 -0.28745,0.17359 -0.43101,0.26022 -0.0995,-0.14041 -0.19908,-0.28082 -0.29862,-0.42123 -0.0391,-0.0276 -0.1006,-0.03 -0.13902,0.001 -0.0782,0.0636 -0.0524,0.23122 -0.0189,0.34753 m -15.92058,-0.27872 c 0.0723,0.46383 0.06077,0.88785 0.04331,1.33142 -0.0213,0.25358 -0.503302,0.44847 -0.502254,0.64302 0.02794,0.22353 0.424017,-0.23646 0.477107,-0.0482 -0.04785,0.37582 -0.09535,0.75128 -0.143202,1.12675 0.01886,0.22773 0.03772,0.45511 0.05658,0.68248 0.05833,0.0339 0.16835,-0.1163 0.190354,-0.22493 0.05309,-0.59271 0.129581,-1.19311 0.108974,-1.78059 0.02969,-0.23611 0.463835,-0.26615 0.559187,-0.47257 0.02165,-0.0828 -0.06392,-0.1219 -0.164159,-0.10199 -0.157872,0.0311 -0.323078,0.241 -0.378962,0.14705 -0.01048,-0.34544 -0.02096,-0.69087 -0.03143,-1.0363 -0.0094,-0.10478 -0.03912,-0.28256 -0.129581,-0.32483 -0.0503,-0.0234 -0.07614,0.008 -0.08592,0.0587 m -12.985642,-0.0115 c -0.14879,1.10161 -0.283609,2.2116 -0.457199,3.32787 -0.0098,0.11038 -0.02759,0.2665 0.04331,0.36744 0.04226,0.0601 0.0957,0.0919 0.168001,0.0926 0.108973,0.001 0.214454,-0.081 0.252525,-0.17708 0.06846,-0.80857 0.174287,-1.61713 0.316791,-2.43304 0.02061,-0.26684 0.01746,-0.55918 -0.008,-0.82568 -0.01292,-0.13273 -0.06007,-0.45999 -0.142504,-0.48759 -0.06636,-0.022 -0.145647,0.0513 -0.17289,0.13552 m 28.469284,-0.43031 c -0.15542,-0.0231 -0.46138,0.17079 -0.56373,0.27279 -0.073,0.0727 -0.11072,0.17603 -0.0629,0.25985 0.0307,0.0534 0.0943,0.0894 0.15962,0.0971 0.0765,0.009 0.12888,-0.0129 0.20048,-0.0545 0.1233,-0.0713 0.27488,-0.19175 0.35731,-0.30632 0.043,-0.0594 0.0678,-0.1205 0.0503,-0.17114 -0.0182,-0.0517 -0.0779,-0.0884 -0.1411,-0.0978 m -30.773787,-0.0217 c -0.220741,0.0367 -0.524259,0.0999 -0.729283,0.20118 -0.249381,0.12295 -0.514479,0.31749 -0.724044,0.51378 -0.228075,0.21376 -0.434496,0.48584 -0.53858,0.71986 -0.112117,0.25287 -0.218645,0.55604 -0.262304,0.8173 -0.05623,0.33704 -0.04261,0.74499 -0.01118,1.08344 0.02654,0.28641 0.19664,0.73802 0.335651,1.00102 0.04645,0.0884 0.116308,0.15193 0.213057,0.20362 0.295136,0.15788 0.614721,0.19525 0.911953,0.24345 0.190354,0.0307 0.453358,0.0541 0.640568,-0.009 0.360451,-0.25252 0.720551,-0.50505 1.080652,-0.75792 0.128533,-0.0995 0.468376,-0.37198 0.496318,-0.51937 0.01781,-0.0936 -0.05588,-0.16521 -0.146345,-0.19175 -0.107577,-0.0311 -0.268242,-0.0234 -0.377915,0.0108 -0.510637,0.22842 -1.016385,0.80891 -1.515847,0.92068 -0.226679,-0.0493 -0.462438,-0.0493 -0.678289,-0.24135 -0.245889,-0.21864 -0.288151,-0.50854 -0.401665,-0.76316 -0.06357,-0.21166 -0.06147,-0.48654 -0.03039,-0.69925 0.186512,-0.40341 0.18756,-0.83581 0.432749,-1.23643 0.176733,-0.26684 0.56722,-0.59201 0.879471,-0.74674 0.178479,-0.0884 0.438688,-0.20328 0.609832,-0.23855 0.119801,0.008 0.454056,0.0555 0.507145,-0.0346 0.02759,-0.0468 -0.100242,-0.19176 -0.225281,-0.25288 -0.142853,-0.0699 -0.323777,-0.0482 -0.466281,-0.0245 m 16.415857,2.04744 c -0.03877,0.10724 -0.14425,0.18757 -0.21131,0.21586 0.03493,0.1205 0.06985,0.24065 0.104433,0.3608 -0.09605,0.4317 -0.196641,0.88331 -0.161015,1.344 0.007,0.0929 0.03143,0.19874 0.124341,0.22877 0.111419,0.0374 0.237855,-0.10128 0.280466,-0.22109 0.0716,-0.55534 0.124342,-1.08693 0.319237,-1.59722 0.218296,-0.26999 0.709374,-0.28291 0.907063,-0.48689 0.02864,-0.0734 -0.05065,-0.10443 -0.145647,-0.11456 -0.219693,0.0283 -0.439386,0.0562 -0.659079,0.0842 -0.01991,-0.34403 0.165206,-0.79215 0.233315,-1.21302 -0.0482,-0.26091 -0.0098,-0.61542 -0.205024,-0.7747 -0.05798,-0.0234 -0.486189,1.89307 -0.58678,2.17388 m 21.926703,-2.48822 c -0.0702,0.18337 -0.20782,0.57456 -0.25986,0.81206 0.0126,0.15054 0.0252,0.30142 0.0374,0.45196 -0.0793,0.35626 -0.15857,0.71252 -0.23785,1.06913 -0.0227,0.25566 -0.10129,0.61891 -0.0625,0.90776 0.009,0.0688 0.036,0.12225 0.0905,0.16171 0.044,0.0314 0.1198,0.0468 0.17918,0.0479 0.17394,0.003 0.416334,-0.13238 0.556044,-0.2197 0.10723,-0.0667 0.22912,-0.21375 0.2644,-0.34683 0.0279,-0.10583 -0.004,-0.18162 -0.0964,-0.20642 -0.15612,-0.0517 -0.32727,0.12749 -0.450214,0.14181 -0.11317,0.0147 -0.20328,-0.0485 -0.22493,-0.1474 0.0293,-0.75338 0.421574,-1.56858 0.515524,-2.39357 0.0122,-0.0918 0.0119,-0.20013 -0.0437,-0.27732 -0.0409,-0.0566 -0.0922,-0.0849 -0.152984,-0.0849 -0.065,0 -0.0932,0.0286 -0.11456,0.0838 m -9.656722,-0.27662 c -0.08592,0.10129 -0.104433,0.18476 -0.110021,0.27767 -0.01747,0.67305 0.23052,1.39046 0.143202,2.03486 -0.125739,0.18757 -0.443927,0.19246 -0.660826,0.2679 -0.05414,0.0318 -0.08278,0.065 -0.08138,0.12748 0.0024,0.0901 0.08313,0.16311 0.178479,0.19315 0.202229,0.0772 0.462089,-0.13342 0.569316,0.0217 0.05798,0.0796 0.17813,0.24694 0.202928,0.34578 0.0042,0.20432 -0.0094,0.38839 0.08243,0.61542 0.09011,0.16451 0.146349,0.44462 0.320629,0.44497 0.0845,-0.005 0.12574,-0.0918 0.11666,-0.18511 -0.10408,-0.15648 -0.20782,-0.31295 -0.3119,-0.46978 -0.07614,-0.18057 -0.129231,-0.6713 -0.104783,-0.8641 0.01153,-0.0894 0.06985,-0.16905 0.159973,-0.24624 0.23471,-0.16066 0.46942,-0.32133 0.70413,-0.48199 0.073,-0.0828 0.0922,-0.1701 0.0884,-0.27907 -0.004,-0.10723 -0.0245,-0.16556 -0.0667,-0.14041 -0.0423,0.0702 -0.19001,0.24763 -0.33635,0.33495 -0.1226,0.0727 -0.30702,0.17185 -0.42123,0.18127 -0.0485,0.004 -0.09221,-0.014 -0.114561,-0.0517 -0.07579,-0.12714 -0.155426,-1.47428 -0.08278,-1.63809 0.05204,-0.11736 0.183371,-0.21899 0.286411,-0.23122 0.14704,0.0405 0.29408,0.0807 0.44148,0.1212 0.0615,0 0.0912,-0.0265 0.0985,-0.0821 0.0133,-0.10583 -0.0974,-0.22214 -0.18756,-0.27802 -0.12888,-0.0803 -0.46313,-0.20433 -0.633932,-0.19001 -0.09395,0.008 -0.19734,0.0734 -0.280466,0.1715 m 14.129877,-0.2665 c -0.22948,0.19664 -0.35626,0.46733 -0.54697,0.71846 -0.19524,0.33216 -0.17568,0.66885 -0.25811,1.00276 0.0716,0.36394 0.014,0.72195 0.23576,1.09323 0.0713,0.12154 0.17254,0.25183 0.29549,0.34683 0.14564,0.11246 0.31609,0.17707 0.46907,0.1914 0.13238,0.0126 0.35381,-0.0175 0.46419,-0.081 0.0478,-0.0276 0.0751,-0.0618 0.0541,-0.11595 -0.1652,-0.0779 -0.33076,-0.15543 -0.49631,-0.23297 -0.14949,-0.095 -0.28082,-0.21026 -0.36115,-0.3353 -0.0667,-0.10409 -0.11631,-0.22423 -0.13762,-0.33705 -0.0356,-0.19245 -0.0227,-0.41005 -0.0143,-0.60389 0.004,-0.0926 0.0164,-0.15403 0.0898,-0.21166 0.1404,-0.0852 0.28081,-0.17045 0.42122,-0.25567 0.19175,-0.15578 0.44288,-0.39328 0.52042,-0.53649 0.0604,-0.11107 0.0625,-0.39327 0.023,-0.54416 -0.0203,-0.13377 -0.16102,-0.20922 -0.2899,-0.20433 -0.15647,0.005 -0.32098,-0.0321 -0.46872,0.10583 m 0.50435,0.54871 c -0.12295,0.17569 -0.28082,0.35417 -0.42158,0.47536 -0.10757,0.0922 -0.22737,0.18476 -0.26265,0.12434 -0.0423,-0.18371 0.22004,-0.49807 0.35382,-0.73767 0.0573,-0.0772 0.13656,-0.16101 0.20607,-0.18895 0.0527,-0.0213 0.0796,-0.015 0.11735,0.0238 0.0772,0.0789 0.0856,0.19035 0.007,0.30317 m -5.078094,-0.97482 c -0.0178,0.0796 -0.0213,0.20153 0.002,0.28291 0.0255,0.0901 0.0926,0.15507 0.19804,0.17952 0.104084,0.0245 0.190704,-0.002 0.267544,-0.0835 0.0723,-0.0765 0.1233,-0.19141 0.13238,-0.285 0.009,-0.0985 -0.0206,-0.20398 -0.10653,-0.28781 -0.0622,-0.0604 -0.11875,-0.0877 -0.18861,-0.0905 -0.149844,0.006 -0.273834,0.15019 -0.304914,0.28431 m -2.67963,-0.46279 c -0.17813,1.04433 -0.15159,2.09843 -0.27034,3.148 0.0611,0.57595 0.19035,1.11209 0.21515,1.70935 0.0402,0.0974 0.14879,0.20292 0.24694,0.25182 0.0664,0.0332 0.13377,0.044 0.19978,0.0339 0.10199,-0.0161 0.18931,-0.0849 0.26894,-0.17463 0.17429,-0.19595 0.32378,-0.4324 0.42821,-0.64127 0.14356,-0.42402 0.31121,-0.84385 0.31819,-1.27101 -0.0328,-0.33705 -0.0915,-0.66327 -0.31609,-1.0059 -0.0716,-0.096 -0.15438,-0.16661 -0.25811,-0.17744 -0.10024,-0.0105 -0.20677,0.0339 -0.25742,0.10444 -0.0845,0.11805 -0.0761,0.49841 -0.0346,0.64615 0.0185,0.0646 0.0468,0.11037 0.10549,0.13657 0.0737,-0.001 0.14739,-0.003 0.22074,-0.005 0.0629,0.0845 0.0995,0.27453 0.0789,0.39468 -0.051,0.30037 -0.14285,0.67585 -0.28466,0.96015 -0.0503,0.10059 -0.13586,0.24973 -0.22004,0.31714 -0.0695,0.0559 -0.12644,0.0335 -0.1659,-0.0517 -0.10688,-0.39922 -0.11561,-0.84734 -0.16626,-1.23084 0.0576,-0.97517 0.11421,-2.04569 0.16661,-2.99921 0.0527,-0.10688 0.30142,0.0405 0.27383,-0.13097 -0.007,-0.11736 -0.11561,-0.25393 -0.25008,-0.25917 -0.13971,-0.0206 -0.28117,0.1198 -0.29933,0.24449 m 4.441364,-1.07786 c -0.0919,0.12958 -0.18791,0.3168 -0.22738,0.45685 -0.23855,1.23538 -0.47256,2.43968 -0.82254,3.67227 -0.0346,0.25497 -0.0265,0.5742 0.0161,0.82882 0.0587,0.16905 0.0283,0.41948 0.19525,0.45196 0.13062,0.0332 0.26789,-10e-4 0.27732,-0.0999 -0.0304,-0.11875 -0.0608,-0.23785 -0.0912,-0.35661 -0.007,-0.22074 0.0189,-0.48724 0.0384,-0.71356 0.0698,-0.26056 0.0597,-0.69261 0.25182,-0.79111 0.36569,0.33495 0.85607,0.68947 1.31292,1.01429 0.15788,0.10583 0.92767,0.56268 0.95422,0.53229 0.0451,-0.0517 -0.20991,-0.38979 -0.31644,-0.49073 -0.44148,-0.31608 -0.88297,-0.63218 -1.32445,-0.94828 -0.15892,-0.12643 -0.39084,-0.33495 -0.44777,-0.49422 -0.0321,-0.0908 0.006,-0.15682 0.0905,-0.22318 0.3112,-0.23017 0.7904,-0.24868 1.02511,-0.49248 0.0241,-0.081 -0.0632,-0.10408 -0.16136,-0.0856 -0.32937,0.1233 -0.77609,0.35067 -1.00102,0.31609 0.1666,-0.81555 0.22982,-1.86826 0.43589,-2.70477 -0.0555,-0.0276 -0.14704,0.0454 -0.20537,0.12783 m -0.30072,2.65767 0.0472,0.0472 -0.0472,0.0471 -0.0472,-0.0471 0.0472,-0.0472 m -7.951569,-6.77626 c -0.14774,0.41634 -0.40621,0.84245 -0.39363,1.29057 0.0213,0.095 0.0831,0.14321 0.17568,0.17394 0.19839,0.0321 0.45755,0.0517 0.61368,0.15053 0.0852,0.0538 0.15368,0.18931 0.15263,0.2871 -0.002,0.10968 -0.10374,0.1949 -0.22738,0.25952 -0.28466,0.0999 -0.56897,0.19979 -0.85362,0.29967 -0.0499,0.0671 -0.0122,0.14879 0.0671,0.1935 0.0734,0.0412 0.19175,0.0629 0.27697,0.0775 0.27593,0.021 0.54347,0.0548 0.82289,-0.0552 0.12434,-0.0514 0.245891,-0.1226 0.338451,-0.22808 0.0716,-0.0814 0.11281,-0.17149 0.12748,-0.26579 0.002,-0.27942 0.0548,-0.55256 -0.11386,-0.83408 -0.214811,-0.38035 -0.598661,-0.22283 -0.731381,-0.45964 -0.0531,-0.28745 0.2155,-0.61891 0.2169,-0.9619 0.007,-0.12679 -0.0772,-0.27243 -0.20398,-0.26998 -0.15997,-0.005 -0.20362,0.20153 -0.26789,0.34228 m -17.63118,-1.86132 c 0.1446,0.0468 0.305265,-0.0423 0.301424,0.11107 -0.161016,1.35553 -0.429956,2.80083 -0.681433,4.19198 -0.0234,0.27104 -0.09221,0.63882 -0.06846,0.91126 0.01188,0.13586 0.130978,0.25077 0.268941,0.28256 0.415286,0.0657 0.793899,-0.22319 1.165875,-0.30736 0.189306,-0.0112 0.180574,0.36394 0.430305,0.31364 6.925745,-0.0269 13.843808,0.15613 20.784233,0.094 0.1652,-0.009 0.90811,-0.0706 0.94688,-0.1425 0.0346,-0.0639 -0.0468,-0.0957 -0.13762,-0.10863 -0.39293,-0.0608 -0.78551,-0.1219 -1.17845,-0.18302 -1.984224,-0.008 -3.968795,-0.0161 -5.953025,-0.0241 -0.12224,-0.13516 0.35137,0.008 0.48515,-0.18337 0.11945,-0.12294 0.24344,-0.3133 0.30002,-0.46103 0.0444,-0.11527 0.10024,-0.28431 0.0461,-0.34928 -0.0454,-0.0545 -0.16032,-0.0548 -0.23961,-0.0143 -0.12818,0.0975 -0.25671,0.19525 -0.3849,0.29269 -0.1432,0.0727 -0.28116,0.11421 -0.42262,0.11037 -0.1673,-0.005 -0.54451,-0.0493 -0.701339,-0.12504 -0.08278,-0.0402 -0.17848,-0.12993 -0.243444,-0.21306 -0.07021,-0.0898 -0.09081,-0.16136 -0.08802,-0.25007 0.0049,-0.16032 0.073,-0.34998 0.154728,-0.51623 0.0744,-0.15194 0.197695,-0.39084 0.338105,-0.49667 0.14564,-0.1191 0.12119,0.18931 0.33705,0.26929 0.096,0.0534 0.19524,0.0768 0.29234,0.0622 0.168,-0.0252 0.4331,-0.21725 0.53299,-0.37338 0.11421,-0.23856 0.14844,-0.49317 0.1177,-0.74186 -0.0175,-0.0723 -0.0409,-0.12294 -0.10198,-0.18407 -0.087,-0.087 -0.18337,-0.10722 -0.27768,-0.11316 -0.27732,0.004 -0.55779,-0.009 -0.83232,0.1914 -0.26929,0.21655 -0.600051,0.54941 -0.778181,0.81032 -0.141456,0.20711 -0.225631,0.42925 -0.277673,0.63952 -0.03842,0.33635 -0.09395,0.67061 0.03283,1.0094 0.07963,0.14529 0.243793,0.33775 0.391535,0.43519 0.179876,0.0597 0.360102,0.11945 0.540319,0.17918 -0.304908,0.0789 -1.036636,0.0573 -1.463798,0.0143 -0.09395,-0.32343 0.07474,-0.92662 -0.0052,-1.37544 -0.03563,-0.2169 -0.06706,-0.42227 -0.08697,-0.62415 -0.073,-0.17498 -0.145647,-0.34998 -0.218645,-0.52531 -0.03109,-0.18232 0.16835,-0.26929 0.212707,-0.43694 0.01886,-0.0796 0.01607,-0.19559 0.01013,-0.28466 0.01153,-0.12469 -0.09256,-0.26894 -0.183368,-0.23541 -0.104782,0.0412 -0.386646,1.03664 -0.410746,1.22246 0.04261,0.42227 0.06881,0.86271 0.160666,1.26542 0.01257,0.22877 -0.01048,0.76037 -0.12015,0.94024 -0.04191,0.0688 -0.118055,0.08 -0.208866,0.0838 -0.30282,-0.002 -0.670955,0.0293 -0.929068,-0.0251 0.03807,-0.51273 -0.08557,-1.35868 -0.09395,-2.00658 -0.02165,-0.24518 -0.259161,-0.47641 -0.1687,-0.67968 0.01781,-0.0793 0.06357,-0.12016 0.150538,-0.1481 0.113514,-0.0363 0.300026,-0.0866 0.412492,-0.0775 0.1439,-0.0126 0.185464,0.21586 0.295136,0.2906 0.04645,0.0262 0.110021,0.0258 0.166255,-0.003 0.08906,-0.0465 0.156474,-0.15298 0.189655,-0.24904 0.03178,-0.0933 0.04017,-0.19734 0.01816,-0.29059 -0.03318,-0.14181 -0.147045,-0.25427 -0.28396,-0.28676 -0.348924,-0.0974 -0.812759,0.12434 -1.020577,-0.0216 -0.06112,-0.42192 -0.121896,-0.93396 -0.229473,-1.39499 -0.03842,-0.13797 -0.136216,-0.36325 -0.28326,-0.35731 -0.06007,0.002 -0.08906,0.0335 -0.10583,0.0915 -0.04121,0.14215 -0.01711,0.40552 -0.01257,0.55081 0.05449,0.32901 0.108624,0.65803 0.163111,0.98704 l -0.05868,0.63289 c 0.0489,0.0939 0.0978,0.18791 0.147044,0.28221 0.140408,0.56513 0.151235,1.36077 0.185115,1.94895 -0.0262,0.20886 0.06706,0.5047 -0.08243,0.63532 -0.223884,0.0332 -0.625549,0.095 -0.785167,-0.0503 0.01397,-0.17289 0.02759,-0.34578 0.04156,-0.51866 -0.136566,-0.60774 -0.17324,-1.17217 -0.382455,-1.79143 -0.06252,-0.14215 -0.207119,-0.34159 -0.344034,-0.45581 -0.147394,-0.12259 -0.315743,-0.11142 -0.472916,-0.10268 -0.10129,0.006 -0.18267,0.0248 -0.264051,0.10198 -0.175685,0.16626 -0.449166,0.54103 -0.52426,0.66397 0.08907,0.54347 -0.11561,1.13829 -0.03458,1.70481 0.01746,0.0608 0.04645,0.11561 0.112466,0.14669 0.09291,0.0433 0.205373,0.005 0.259511,-0.0663 0.06077,-0.4848 0.08941,-1.02932 0.262653,-1.51236 0.03877,-0.15752 0.154029,-0.39887 0.276974,-0.43135 0.21166,0.14878 0.289897,0.59691 0.384201,0.87423 0.06007,0.25252 0.282562,1.47813 0.221439,1.49454 -0.959454,-0.0175 -1.918909,-0.0349 -2.878363,-0.0524 -0.06462,-0.12469 0.310854,-0.60494 0.478155,-0.70623 0.09465,0.10583 0.189307,0.21166 0.28396,0.31714 0.09046,0.0339 0.200133,-0.003 0.256017,-0.0758 0.06741,-0.087 0.05239,-0.23855 0.04296,-0.35067 -0.022,-0.26859 -0.03039,-0.67095 -0.165206,-0.92767 -0.0503,-0.0964 -0.12015,-0.1666 -0.218995,-0.18442 -0.09849,-0.0175 -0.197689,0.0168 -0.289199,0.0933 -0.224233,0.35486 -0.448816,0.70973 -0.673399,1.06458 -0.08243,0.1027 -0.197339,0.21725 -0.272084,0.19596 -0.185813,-0.18548 -0.195593,-0.60774 -0.397473,-0.89485 -0.02235,-0.20921 -0.04471,-0.41878 -0.06706,-0.62799 -0.05099,-0.12749 -0.161364,-0.26964 -0.274529,-0.26615 -0.05903,0.002 -0.09151,0.0342 -0.104083,0.0898 -0.04785,0.20992 -0.03772,0.58643 -0.01746,0.81905 0.05344,0.47082 0.231917,1.0073 0.382455,1.40757 -0.270688,0.14356 -0.932211,0.0657 -1.28882,0.0471 -0.0073,-0.006 0.648251,-1.06318 0.693308,-1.26611 0.05274,-0.30596 0.14949,-0.60878 0.0971,-0.91719 -0.01781,-0.1247 -0.159967,-0.27348 -0.296533,-0.26021 -0.247635,0.0817 -0.546264,0.1701 -0.71147,0.36254 -0.02759,0.0548 -0.02724,0.12225 -0.0014,0.1729 0.0723,0.12923 0.301772,0.15088 0.2885,0.29129 -0.04471,0.24414 -0.133773,0.50784 -0.329715,0.75967 -0.122944,0.13796 -0.288151,0.27348 -0.42332,0.32028 -0.142503,0.0493 -0.466629,0.0632 -0.579793,-0.005 -0.102337,-0.0622 -0.08662,-0.24204 -0.08138,-0.37266 0.0049,-0.11771 0.03737,-0.2204 0.107227,-0.34509 0.232616,-0.43589 0.700991,-0.79146 0.99508,-1.17775 0.01048,-0.0643 -0.01816,-0.12888 -0.06531,-0.16626 -0.04296,-0.0342 -0.123294,-0.0496 -0.179178,-0.051 -0.199784,-0.015 -0.380708,0.14146 -0.562679,0.28815 -0.276625,0.23157 -0.575603,0.54277 -0.705882,0.80368 -0.10094,0.20153 -0.170446,0.43625 -0.186163,0.64197 -0.01677,0.21864 0.238205,0.8641 0.158571,0.91963 -0.468027,0.0594 -1.047123,0.0175 -1.551473,0.0224 -0.08383,-0.0122 -0.110371,-0.0377 -0.0503,-0.0992 0.194546,-0.15437 0.389091,-0.30876 0.583986,-0.46314 0.127833,-0.13865 0.248682,-0.30526 0.289547,-0.45195 0.151585,-0.51553 0.07859,-1.03071 0.09535,-1.54624 0.06462,-0.21445 -0.353115,-0.41808 -0.279767,-0.61821 0.318188,-0.49877 0.743952,-0.99753 0.954564,-1.50048 0.09116,-0.23052 0.190704,-0.49247 0.210961,-0.72684 0.02096,-0.23995 0.01502,-0.482 -0.05099,-0.72998 -0.0262,-0.0975 -0.05763,-0.18581 -0.137614,-0.27697 -0.118054,-0.13448 -0.3126,-0.28326 -0.455453,-0.3423 -0.337748,-0.0629 -0.673749,-0.0468 -1.010099,-0.0108 -0.307361,0.0939 -0.724393,0.40551 -0.998574,0.62974 -0.258811,0.241 -0.595162,0.52811 -0.700991,0.80682 -0.02515,0.10164 0.0024,0.21061 0.09116,0.263 m 1.172859,5.0638 0.04715,0.0471 -0.04715,0.0471 -0.04715,-0.0471 0.04715,-0.0471 m 14.299256,-2.36109 -0.0175,0.0126 -0.0339,-0.009 -0.0241,-0.0157 0.0175,-0.0126 0.0339,0.009 0.0241,0.0157 m -13.718414,0.61787 c -0.01572,0.18651 -0.0716,0.42681 -0.194196,0.60285 -0.15892,0.22841 -0.460692,0.39432 -0.676194,0.52111 -0.149489,0.088 -0.460342,0.23785 -0.566871,0.2106 -0.05973,-0.015 -0.0737,-0.0915 -0.06112,-0.17742 0.105132,-0.50505 0.222488,-1.09707 0.26929,-1.55672 0.08976,-0.14773 0.346829,0.16696 0.565125,0.0734 0.199085,-0.0978 0.397822,-0.19594 0.596559,-0.29373 0.130279,0.0863 0.05518,0.41808 0.06741,0.61996 m 13.958721,-0.80683 0.0206,0.029 -0.0245,0.0412 -0.0534,0.029 -0.0517,-0.001 -0.0206,-0.029 0.0245,-0.0412 0.0534,-0.029 0.0517,10e-4 M 78.17741,167.54666 c 0.06287,0.08 0.101289,0.16241 0.111419,0.24694 0.01921,0.30282 -0.177781,0.63463 -0.290945,0.95701 -0.405158,0.59237 -0.810315,1.18439 -1.215472,1.77676 -0.12015,0.1404 -0.370579,0.37127 -0.470821,0.37022 -0.0031,0 0.199785,-1.89166 0.281166,-2.1882 0.08278,-0.095 0.165555,-0.19 0.248333,-0.28501 -0.01223,-0.20257 -0.02445,-0.4048 -0.03667,-0.60738 0.0971,-0.17673 0.469423,-0.38455 0.652094,-0.46907 0.140059,-0.0646 0.282213,-0.0803 0.417382,-0.0346 0.110021,0.0374 0.222836,0.13063 0.303518,0.23331 m -1.48092,1.52004 h 0.14949 v -0.14948 h -0.14949 v 0.14948"
       style="fill:#000000;fill-opacity:1;fill-rule:nonzero;stroke-width:0.089414"
       id="path1-1" /></g></svg>
