<?xml version="1.0" encoding="UTF-8" standalone="no"?>
<!-- Created with Inkscape (http://www.inkscape.org/) -->

<svg
   width="40.505005mm"
   height="28.162323mm"
   viewBox="0 0 40.505005 28.162323"
   version="1.1"
   id="svg1"
   xml:space="preserve"
   xmlns="http://www.w3.org/2000/svg"
   xmlns:svg="http://www.w3.org/2000/svg"><defs
     id="defs1" /><g
     id="layer1"
     transform="translate(-29.337635,-133.53637)"><g
       id="g31"
       transform="translate(-21.127119,-27.228813)"><path
         d="m 55.324685,184.10938 c -0.325524,0.0237 -0.650698,0.0475 -0.97622,0.0713 -0.179178,-0.10653 -0.358704,-0.21341 -0.537882,-0.32028 -0.118752,-0.0395 -0.251127,-0.029 -0.372325,-0.009 -0.304567,0.0496 -0.61542,0.1673 -0.911255,0.36429 -0.290595,0.1935 -0.621707,0.48165 -0.88471,0.7946 -0.09675,0.11526 -0.207817,0.24658 -0.260208,0.36813 -0.05973,0.24205 -0.119452,0.4841 -0.178828,0.72649 -0.06881,0.27698 -0.06462,0.62555 -0.02061,0.90427 0.04261,0.2672 0.0489,0.55395 0.199436,0.8173 0.166603,0.29129 0.47117,0.63533 0.788659,0.90601 0.0957,0.0817 0.179876,0.12679 0.274529,0.15369 0.175685,0.0499 0.373374,0.0468 0.550106,0.0311 0.40865,-0.0363 0.872835,-0.22772 1.267164,-0.39328 0.23576,-0.0992 0.502606,-0.25706 0.722997,-0.43415 0.390138,-0.31295 0.805076,-0.64336 1.154,-1.06284 0.125738,-0.15053 0.221789,-0.30386 0.273481,-0.45579 0.0709,-0.20957 0.119451,-0.43066 0.102686,-0.64092 -0.03004,-0.37303 -0.150188,-0.82289 -0.30247,-1.1802 -0.06182,-0.14529 -0.174986,-0.32029 -0.333207,-0.45231 -0.174637,-0.14529 -0.386646,-0.17359 -0.555345,-0.18826 m 0.433099,1.11803 c 0.05938,0.1907 0.138661,0.42157 0.123643,0.61402 -0.01048,0.13936 -0.05414,0.29549 -0.112816,0.431 -0.0737,0.17045 -0.223535,0.36185 -0.35556,0.52182 -0.390139,0.42925 -0.975172,0.85118 -1.452978,1.19626 -0.318538,0.18477 -0.72614,0.2878 -1.055156,0.35521 -0.121198,0.0248 -0.220741,0.0199 -0.330413,-0.0625 -0.222137,-0.16625 -0.559536,-0.60529 -0.681083,-0.84804 -0.115959,-0.23296 -0.186163,-0.5494 -0.186163,-0.78935 3.49e-4,-0.24798 0.09326,-0.64336 0.19734,-0.87703 0.126088,-0.28291 0.528451,-0.75687 0.700293,-0.9598 0.114911,-0.13622 0.337049,-0.26301 0.499811,-0.35591 0.132374,-0.0754 0.294437,-0.14495 0.420176,-0.14006 0.09465,0.003 0.240998,0.0765 0.244492,0.10548 -0.0234,0.0175 -0.07824,0.0877 -0.0737,0.17184 0.0045,0.0859 0.08278,0.12958 0.180225,0.15158 0.438338,0.01 0.87493,-0.0307 1.266117,-0.096 0.132374,0.0136 0.292691,0.0513 0.401315,0.16136 0.117006,0.1184 0.170795,0.27977 0.214454,0.42018 m -0.239952,-6.02951 c -0.358004,-0.13936 -0.71601,-0.27873 -1.074015,-0.41809 -0.468027,-0.0863 -1.032453,-0.1631 -1.438309,-0.16415 -0.212358,0.15822 -0.813109,0.7436 -1.096719,1.12291 -0.162761,0.21725 -0.255319,0.49283 -0.324126,0.72649 -0.106877,0.36325 -0.174636,0.81067 -0.143202,1.176 0.07544,0.3615 0.0943,0.72824 0.293739,1.09428 0.124342,0.18442 0.358355,0.36848 0.528102,0.44113 0.232267,0.0996 0.500509,0.13797 0.734173,0.0968 0.208865,-0.0367 0.437989,-0.11561 0.63917,-0.2148 0.503653,-0.24833 1.064237,-0.56932 1.528771,-0.89205 0.367087,-0.34018 0.787262,-0.82358 1.053409,-1.22839 0.06915,-0.30561 0.0255,-0.61402 0.02794,-0.92068 -0.01397,-0.0943 -0.05309,-0.18058 -0.121198,-0.27594 -0.156475,-0.21934 -0.398521,-0.42541 -0.607737,-0.54346 m 0.111768,1.53051 c -0.220391,0.28187 -0.42786,0.53964 -0.695054,0.78622 -0.203627,0.18791 -0.408301,0.3126 -0.617167,0.44637 -0.436591,0.27977 -0.952818,0.58783 -1.41316,0.72998 -0.09675,0.0297 -0.162762,0.0119 -0.257066,-0.0339 -0.133771,-0.065 -0.30771,-0.14075 -0.398171,-0.25287 -0.15403,-0.28885 -0.188259,-0.63393 -0.236808,-0.94618 -0.01292,-0.22703 0.05728,-0.47607 0.114911,-0.70309 0.0744,-0.29339 0.242396,-0.69541 0.416683,-0.96294 0.09919,-0.15229 0.301074,-0.2899 0.47117,-0.40656 0.252176,-0.19176 0.544868,-0.10129 0.785866,-0.14006 0.234014,0.0416 0.543819,0.15543 0.790057,0.23437 0.207818,0.0667 0.417382,0.15262 0.618214,0.2864 0.156475,0.10408 0.393981,0.28675 0.4806,0.45755 0.05553,0.16939 0.07544,0.32971 -0.06007,0.50469 m -0.748843,-7.61521 c -0.121197,-0.0227 -0.254969,-0.002 -0.373722,0.0279 -0.512035,0.13133 -1.172861,0.49842 -1.617486,0.71951 -0.382454,0.28431 -0.806123,0.63393 -1.159588,1.04713 -0.163111,0.20292 -0.271036,0.42925 -0.342288,0.63847 -0.104084,0.30525 -0.22109,0.68771 -0.221439,0.99997 0,0.20886 0.106179,0.43065 0.205722,0.64056 0.08208,0.17254 0.176033,0.39712 0.350321,0.52391 0.207469,0.15089 0.520068,0.20433 0.733125,0.21096 0.384201,0.0126 0.789009,0.0297 1.172162,-0.003 0.204674,-0.0175 0.431353,-0.0681 0.631837,-0.11945 0.279767,-0.0723 0.642313,-0.32692 0.901823,-0.54591 0.177082,-0.14949 0.359054,-0.3842 0.530896,-0.6004 0.164857,-0.20747 0.24065,-0.43135 0.275577,-0.64057 0.07195,-0.42961 0.07195,-1.01464 0,-1.4439 -0.02969,-0.17813 -0.09396,-0.37093 -0.206421,-0.54835 -0.180574,-0.28396 -0.333556,-0.56234 -0.599353,-0.76247 -0.09465,-0.0716 -0.185814,-0.12643 -0.281166,-0.1446 m 0.487587,1.73798 c 0.0098,0.27942 0.03528,0.60111 -0.01816,0.87773 -0.04226,0.22004 -0.175335,0.48549 -0.347178,0.69854 -0.192799,0.23961 -0.452309,0.42647 -0.687719,0.59447 -0.119801,0.0852 -0.233315,0.13028 -0.351719,0.16032 -0.253223,0.0646 -0.531594,0.12469 -0.791803,0.12608 -0.344034,-0.0108 -0.736618,0.0465 -1.032452,-0.11735 -0.192799,-0.2169 -0.340193,-0.55569 -0.348575,-0.82917 0.01153,-0.19385 0.0737,-0.41948 0.151235,-0.61018 0.07125,-0.175 0.156475,-0.35278 0.296184,-0.52531 0.316093,-0.36639 0.70204,-0.63289 1.04328,-0.83896 0.125389,-0.0657 0.300026,-0.17219 0.417382,-0.18023 0.132026,-0.0377 0.143901,0.23017 0.281166,0.17499 0.102685,-0.15089 0.205023,-0.30212 0.30736,-0.45301 0.158221,-0.0842 0.392583,-0.15124 0.554646,-0.0807 0.199086,0.26091 0.502256,0.67375 0.526356,1.00276 m -2.297522,-6.55167 c -0.325523,0.16346 -0.685624,0.31365 -0.980411,0.61996 -0.2162,0.23821 -0.51413,0.60809 -0.661524,0.89938 -0.179876,0.35557 -0.311552,0.88646 -0.345781,1.26717 -0.01886,0.21061 -0.02061,0.4282 0.06706,0.64161 0.08697,0.21201 0.255668,0.44288 0.479203,0.6245 0.149489,0.1219 0.30806,0.20607 0.459295,0.25323 0.179177,0.0269 0.358704,0.0534 0.53823,0.0803 0.24065,0.0995 0.481299,0.19944 0.721949,0.29932 0.511336,-0.0999 1.069825,-0.23959 1.517942,-0.52949 0.215503,-0.2396 0.537184,-0.61996 0.661525,-0.90462 0.119102,-0.27209 0.157872,-0.62485 0.18232,-0.90742 0.02235,-0.25846 0.03178,-0.55604 -0.01118,-0.8138 -0.03493,-0.20887 -0.11037,-0.43519 -0.276275,-0.64231 -0.164159,-0.20468 -0.417731,-0.46488 -0.618564,-0.58399 -0.394679,-0.19419 -0.783421,-0.37058 -1.18229,-0.41109 -0.191054,-0.0161 -0.362197,0.0189 -0.551504,0.10722 m 1.59653,1.0349 c 0.113164,0.10304 0.24973,0.23017 0.309107,0.34194 0.07474,0.14005 0.114212,0.3615 0.113863,0.51588 0,0.25007 -0.03877,0.6465 -0.119451,0.88226 -0.08976,0.2637 -0.397125,0.64581 -0.603895,0.86585 -0.281863,0.19001 -0.689815,0.28815 -1.011496,0.34473 -0.176034,-0.0775 -0.351718,-0.15543 -0.527752,-0.23332 -0.206421,-0.0587 -0.415636,0.0377 -0.617516,-0.0992 -0.144948,-0.088 -0.294088,-0.21341 -0.396425,-0.35137 -0.111419,-0.15019 -0.123992,-0.27803 -0.119452,-0.42717 0.0077,-0.24798 0.08557,-0.53124 0.175685,-0.78691 0.06287,-0.17813 0.145996,-0.34997 0.275227,-0.52915 0.160666,-0.22284 0.347178,-0.49387 0.6011,-0.69052 0.117705,-0.0911 0.558489,-0.41843 0.702389,-0.42436 0.405507,0.12224 0.813807,0.25288 1.218616,0.59132"
         style="fill:#9d9d9d;fill-opacity:1;fill-rule:nonzero;stroke-width:0.089414"
         id="path1-22" /><path
         d="m 75.319231,164.53154 c -0.04576,0.12294 -0.152981,0.37757 -0.187909,0.53963 -0.04261,0.1956 -0.05309,0.54521 0.0031,0.74326 0.02689,0.0953 0.09675,0.17044 0.208166,0.16625 0.147044,-0.006 0.214105,-0.13272 0.210612,-0.24834 0.01851,-0.25985 0.0255,-0.55185 0.06881,-0.81729 -0.01467,-0.17324 0.0468,-0.42437 -0.104782,-0.46978 -0.09221,-0.0258 -0.171843,0.0154 -0.198038,0.0863 M 65.223438,163.7492 c -0.06462,0.0286 -0.128882,0.0947 -0.161015,0.15088 -0.0936,0.44079 -0.06007,0.84245 -0.331461,1.24936 -0.186861,0.24798 -0.4565,0.45126 -0.671304,0.54032 -0.115609,0.0479 -0.226329,0.0699 -0.339493,0.0688 -0.08732,-10e-4 -0.163111,-0.0136 -0.201881,-0.0789 -0.0744,-0.24799 0.07964,-0.57212 0.137615,-0.84315 0.144598,-0.22564 0.416682,-0.49667 0.694705,-0.66327 0.146345,-0.10409 0.356957,0.21375 0.424367,0.16869 0.03632,-0.0328 -0.0021,-0.31923 -0.08243,-0.43204 -0.06531,-0.0912 -0.154728,-0.11073 -0.256017,-0.11701 -0.118404,-0.008 -0.262305,-0.0161 -0.377215,0.0405 -0.25986,0.12749 -0.759321,0.59587 -0.834416,0.78482 -0.135867,0.34159 -0.195243,0.75164 -0.174986,1.10161 0.0073,0.1233 0.05449,0.25183 0.194197,0.36814 0.256367,0.1907 0.496318,0.0828 0.744302,0.10442 0.190703,-0.0168 0.778531,-0.33459 0.807869,-0.26614 -0.103035,0.46034 -0.195243,1.04328 -0.493174,1.54309 -0.120499,0.13691 -0.286404,0.27558 -0.424368,0.31959 -0.183018,0.0789 -0.491427,-0.11038 -0.584334,0.003 -0.0213,0.0601 0.05099,0.16939 0.136566,0.23156 0.09186,0.0664 0.248334,0.146 0.363594,0.18547 0.2162,0.0503 0.447419,-0.0636 0.654189,-0.16731 0.220741,-0.1893 0.380359,-0.4764 0.463835,-0.70657 0.133074,-0.37617 0.24065,-0.78448 0.326222,-1.16902 0.155776,-0.70204 0.260907,-1.42015 0.288849,-2.15572 0.0035,-0.0985 -0.02864,-0.20851 -0.112466,-0.25776 -0.05099,-0.03 -0.12469,-0.0325 -0.191751,-0.003 m 2.053379,-0.24624 c -0.207119,0.11142 -0.464883,0.33845 -0.623104,0.49772 -0.239602,0.29898 -0.564076,0.65594 -0.647204,0.9825 3.58e-4,0.39643 -0.03632,0.79111 0.02096,1.18893 0.05274,0.15368 0.197689,0.31749 0.346829,0.42332 0.146696,0.10443 0.313648,0.18547 0.465582,0.21026 0.127834,0.0206 0.249032,-0.004 0.376167,-0.0559 0.156825,-0.0643 0.306313,-0.16137 0.459645,-0.30143 0.122246,-0.11211 0.2403,-0.2389 0.311901,-0.3594 0.0964,-0.16241 0.20712,-0.37826 0.263003,-0.55674 0.02096,-0.0664 0.02445,-0.11247 -0.01257,-0.14285 -0.03667,-0.0304 -0.08243,-0.0206 -0.147742,0.0154 -0.186163,0.19141 -0.372327,0.38281 -0.558489,0.57421 -0.14914,0.12155 -0.352766,0.27523 -0.508193,0.26894 -0.105481,-0.004 -0.231219,-0.0884 -0.317141,-0.16031 -0.08697,-0.0737 -0.190353,-0.1907 -0.236458,-0.30352 -0.04401,-0.25742 -0.073,-0.51553 0.03283,-0.77469 0.146695,-0.28011 0.415984,-0.60459 0.724044,-0.86271 0.08697,-0.073 0.16835,-0.13447 0.240999,-0.1453 0.07719,-0.0115 0.0964,0.0328 0.06671,0.10828 -0.0461,0.16661 -0.09221,0.3332 -0.138312,0.49981 -0.08243,0.17883 -0.455453,0.36324 -0.437291,0.54138 0.03563,0.0646 0.308758,0.0761 0.436243,0.0175 0.236808,-0.13447 0.402363,-0.41144 0.486189,-0.60494 0.100591,-0.23926 0.191751,-0.49283 0.155077,-0.74012 -0.03318,-0.1617 -0.292342,-0.34053 -0.472218,-0.37965 -0.09884,-0.0154 -0.193497,0.009 -0.287452,0.0594 m -4.800416,-0.13062 c -0.308408,-0.0653 -0.615769,-0.0231 -0.92278,0.0842 -0.291993,0.1694 -0.647553,0.44218 -0.848037,0.70938 -0.123642,0.17358 -0.256366,0.36359 -0.346479,0.54277 -0.08872,0.24169 -0.177431,0.48373 -0.266146,0.72579 l -0.308059,0.009 c -0.124691,0.0884 -0.212359,0.38316 -0.381058,0.39748 -0.147394,0.0367 -0.354164,0.0171 -0.508892,0.009 -0.08837,-0.005 -0.165555,-0.021 -0.251825,-0.0912 -0.08348,-0.0685 -0.136567,-0.15648 -0.154729,-0.241 -0.03283,-0.15438 -0.02166,-0.3622 0.008,-0.51798 0.03143,-0.1645 0.112815,-0.3594 0.207817,-0.51762 0.124691,-0.20712 0.365341,-0.37686 0.558838,-0.48724 0.127136,-0.0723 0.309107,-0.14354 0.395727,-0.0911 0.08872,0.051 -0.01572,0.21864 -0.104782,0.35346 -0.115261,0.16975 -0.440085,0.37163 -0.463486,0.46139 -0.02061,0.0967 0.125738,0.11072 0.245888,0.0499 0.180575,-0.0664 0.404809,-0.13342 0.542772,-0.29025 0.114911,-0.12993 0.193846,-0.31505 0.205023,-0.46453 0.01921,-0.15089 -0.06566,-0.35731 -0.206071,-0.44568 -0.255319,-0.0898 -0.563728,-0.0388 -0.826381,0.043 -0.147044,0.0622 -0.396425,0.19244 -0.535436,0.30421 -0.126089,0.10164 -0.223536,0.29549 -0.286405,0.43729 -0.124341,0.28046 -0.200483,0.53858 -0.236458,0.8173 -0.0234,0.18023 0.01187,0.47117 0.08627,0.64755 0.05134,0.12155 0.16311,0.25288 0.262304,0.33775 0.112815,0.0957 0.227027,0.12504 0.35556,0.12993 0.308059,-0.007 0.615071,0.0486 0.922432,-0.0426 0.281863,-0.1425 0.290246,-0.53928 0.432051,-0.59307 0.08557,0.0709 0.170795,0.14146 0.256367,0.21201 0.09011,0.0433 0.197688,0.0622 0.277673,0.021 0.180574,-0.13412 0.238553,-0.409 0.290944,-0.62031 -0.02899,-0.1219 -0.05798,-0.24415 -0.08697,-0.36639 0.04645,-0.13866 0.22074,-0.37093 0.36045,-0.48619 0.324126,-0.12678 0.71147,-0.48409 1.049217,-0.53125 0.218995,-0.0911 0.453707,0.20259 0.709374,0.23961 0.06147,-0.007 0.095,-0.0395 0.111419,-0.10338 0.01432,-0.0559 0.0049,-0.12958 -0.02515,-0.1956 -0.08697,-0.1893 -0.359403,-0.39188 -0.519021,-0.44672 m -1.801204,1.84309 0.04715,0.0471 -0.04715,0.0472 -0.04715,-0.0472 0.04715,-0.0471 m -6.445145,0.67549 c -0.02165,0.0884 -0.03947,0.19385 0.01816,0.27419 0.04191,0.059 0.0985,0.0856 0.169399,0.0845 0.107575,-0.002 0.183019,-0.0758 0.228774,-0.15647 0.198387,-0.50924 0.397124,-1.01849 0.595511,-1.52773 0.149839,-0.22878 0.305614,-0.62869 0.498413,-0.64056 0.130628,0.1893 0.05239,0.66467 0.05099,0.97586 -0.108624,0.42123 -0.216898,0.84245 -0.325173,1.26367 0.01676,0.0905 0.08906,0.16661 0.195593,0.17465 0.103734,0.008 0.208866,-0.0597 0.291643,-0.15439 0.301773,-0.67304 0.276275,-1.32095 0.505749,-1.97758 0.05833,-0.15229 0.158919,-0.38525 0.29793,-0.44707 0.08837,-0.0203 0.216899,0.094 0.285007,0.19245 0.09815,0.14215 0.152283,0.34892 0.179876,0.51098 0.03807,0.22075 0.03632,0.48445 3.58e-4,0.70658 -0.07614,0.33251 -0.152283,0.66537 -0.228426,0.99823 0.0098,0.0625 0.03702,0.10932 0.100941,0.13377 0.06531,0.0255 0.117356,0.0122 0.179876,-0.0342 0.135518,-0.10094 0.215152,-0.3119 0.270687,-0.44811 0.07754,-0.18966 0.12469,-0.36779 0.130628,-0.55012 0.01048,-0.31923 0.04191,-0.67793 -0.01537,-0.99508 -0.08138,-0.23995 -0.0957,-0.49631 -0.271735,-0.73277 -0.166952,-0.17708 -0.37023,-0.29968 -0.556392,-0.2864 -0.09361,-0.003 -0.193847,-0.003 -0.283611,0.0377 -0.107925,0.0786 -0.2162,0.15683 -0.324126,0.23541 -0.06741,-0.0768 -0.135169,-0.15368 -0.202578,-0.23053 -0.04785,-0.03 -0.110719,-0.0391 -0.174637,-0.0346 -0.188259,0.0126 -0.794248,0.25113 -0.892743,0.30596 -0.24065,0.6975 -0.375469,1.55218 -0.724743,2.32162 m 18.680896,-2.68975 c -0.396076,0.24728 -0.929416,0.72788 -1.164478,1.05865 -0.135867,0.22283 -0.21131,0.41983 -0.259859,0.63742 -0.05309,0.2382 -0.04331,0.48968 -0.03493,0.72824 0.0049,0.15438 0.05693,0.30282 0.129231,0.46348 0.05553,0.1226 0.132025,0.25881 0.252175,0.34509 0.114213,0.0814 0.24519,0.10408 0.36569,0.1149 0.179875,0.0164 0.375119,0.0203 0.554296,-0.0328 0.177082,-0.0527 0.386996,-0.12818 0.544169,-0.22143 0.119451,-0.0709 0.295835,-0.21236 0.345082,-0.32832 0.022,-0.052 0.01991,-0.11072 -0.01502,-0.1481 -0.03598,-0.0391 -0.10129,-0.0524 -0.165207,-0.0451 -0.124341,0.0524 -0.248333,0.10478 -0.372675,0.15718 -0.258113,0.0248 -0.520068,0.15577 -0.774339,0.059 -0.119452,-0.058 -0.213058,-0.18756 -0.254271,-0.29793 -0.06497,-0.17428 -0.128184,-0.42262 -0.127835,-0.60389 0.02305,-0.23088 0.129231,-0.45929 0.324126,-0.69471 0.223885,-0.26859 0.505748,-0.47187 0.777833,-0.68877 0.171842,-0.13691 0.345781,-0.20712 0.515527,-0.241 0.114562,0.0248 0.228775,0.0493 0.343336,0.0737 0.06601,-0.0643 -0.01642,-0.25252 -0.14425,-0.32517 -0.285706,-0.0765 -0.559885,-0.0604 -0.838606,-0.0105 m -3.877285,0.88122 c -0.20188,0.42226 -0.477806,1.04468 -0.59656,1.534 -0.03388,0.11806 -0.02375,0.28117 0.102337,0.34613 0.122596,0.0608 0.273132,-0.0262 0.338447,-0.13656 0.252524,-0.59761 0.505398,-1.19521 0.757923,-1.79282 0.107577,-0.18198 0.252525,-0.46488 0.432051,-0.4572 0.09465,0.0192 0.230172,0.17393 0.281515,0.27732 0.12015,0.24205 0.200134,0.6961 0.200483,0.96051 0.01746,0.4275 -0.338795,0.90042 -0.376866,1.3234 0.05449,0.0597 0.16346,0.03 0.2644,-0.0279 0.166952,-0.0961 0.326571,-0.23647 0.384201,-0.38072 0.126088,-0.31574 0.184067,-0.6919 0.174986,-1.0052 -0.0094,-0.31925 -0.07614,-0.78273 -0.213057,-1.08764 -0.07998,-0.17779 -0.266845,-0.41145 -0.436592,-0.49039 -0.162761,-0.0754 -0.400617,-0.10094 -0.560584,-0.0608 -0.311552,0.16521 -0.5288,0.67864 -0.752684,0.99788 m 10.798141,-0.72021 c -0.133074,0.14809 -0.298279,0.38106 -0.324475,0.55325 -0.01746,0.11736 -0.0234,0.26825 0.03737,0.37687 0.164158,0.29653 0.513083,0.25671 0.64406,0.38071 0.07195,0.0828 0.116658,0.21306 0.07265,0.31469 -0.07125,0.16626 -0.393631,0.46698 -0.56233,0.56233 -0.173589,0.0569 -0.347178,0.11422 -0.520767,0.17115 -0.06531,0.0597 -0.101639,0.17673 -0.06531,0.22074 0.265448,-0.0143 0.727886,0.015 1.074714,-0.14216 0.210962,-0.1212 0.466281,-0.42471 0.529848,-0.61402 0.05973,-0.27279 0.02375,-0.57979 -0.101289,-0.82603 -0.181622,-0.24764 -0.687021,-0.20363 -0.748842,-0.44777 0.07405,-0.22737 0.382105,-0.53962 0.585383,-0.80787 0.06077,-0.0926 0.06951,-0.1666 -0.01851,-0.17428 -0.11037,-0.009 -0.537531,0.36044 -0.602496,0.43239 m -1.724363,-0.45999 c -0.123993,0.0108 -0.250779,0.0342 -0.373374,0.11456 -0.344733,0.27593 -0.607387,0.65349 -0.831271,0.97448 -0.141106,0.33355 -0.363245,0.66361 -0.349972,1.00171 -0.0052,0.1729 -0.03004,0.38036 0.0094,0.5515 0.02829,0.1219 0.141805,0.26406 0.276974,0.34509 0.167302,0.10024 0.385598,0.13307 0.553948,0.12329 0.255668,-0.0702 0.607386,-0.0423 0.799487,-0.22249 0.04855,-0.0824 0.01118,-0.15752 -0.06147,-0.18755 -0.352766,-0.0454 -0.705184,-0.0908 -1.05795,-0.13587 -0.106877,-0.0751 -0.09151,-0.24624 -0.07998,-0.38141 0.02515,-0.27488 0.174986,-0.58922 0.349273,-0.84385 0.152283,-0.15019 0.374421,0.18582 0.602847,0.0419 0.267542,-0.12818 0.415984,-0.36011 0.639869,-0.61193 0.111418,-0.15054 0.128183,-0.32483 0.09046,-0.47501 -0.0234,-0.0922 -0.08732,-0.16766 -0.18791,-0.22598 -0.130977,-0.0762 -0.255319,-0.0793 -0.380358,-0.0685 m -0.443587,0.88262 0.04715,0.0472 -0.04715,0.0471 -0.04715,-0.0471 0.04715,-0.0472 m 0.316093,-0.15648 -0.06706,0.0632 -0.07544,0.044 -0.05449,0.0122 -0.01642,-0.0276 0.03283,-0.058 0.06392,-0.0747 0.07195,-0.0632 0.05973,-0.0325 0.03178,0.0168 -0.0035,0.051 -0.04331,0.0688 m 0.130981,-0.29059 0.04715,0.0472 -0.04715,0.0471 -0.04715,-0.0471 0.04715,-0.0472 m -2.609074,-0.40901 c -0.157871,0.13203 -0.415635,0.61019 -0.396774,0.63009 0.03807,0.0398 0.147743,0.0126 0.249381,-0.0594 0.155078,-0.13098 0.310155,-0.2623 0.465233,-0.39328 0.123992,-0.0849 0.209564,-0.25288 0.131676,-0.32483 -0.0971,-0.0727 -0.311203,0.0464 -0.449516,0.14739 m -24.153201,-1.6173 c -0.180923,0.74849 -0.147044,1.57977 -0.295834,2.33244 -0.09675,0.48934 -0.336001,0.95038 -0.413191,1.43168 -0.0489,0.30491 -0.200133,0.7691 -0.171144,1.09183 0.01223,0.13762 0.132724,0.25252 0.268242,0.28536 0.196292,0.0478 0.45196,0.0196 0.645458,-0.0234 0.446371,-0.15019 0.892394,-0.30038 1.338765,-0.45057 0.151934,0.008 0.304218,0.0164 0.456152,0.0245 0.0978,-0.0199 0.170096,-0.095 0.193497,-0.19943 0.02899,-0.12749 -0.01432,-0.28746 -0.107227,-0.35277 -0.107227,-0.0751 -0.315045,-0.0489 -0.451261,-0.0457 -0.593416,-0.0325 -1.371248,0.56197 -1.780248,0.45475 -0.05903,-0.21306 0.06916,-0.74081 0.132026,-1.03455 0.0695,-0.32517 0.237506,-1.11628 0.36534,-1.30698 0.249032,-0.014 0.498413,-0.0279 0.747445,-0.0419 0.30317,-0.0761 0.633233,-0.15018 0.919288,-0.26229 0.09396,-0.0367 0.15403,-0.0845 0.172541,-0.18233 0.01607,-0.0849 -0.0031,-0.20992 -0.05029,-0.28605 -0.03702,-0.0601 -0.07474,-0.0845 -0.138661,-0.096 -0.405856,0.0265 -0.808918,0.18442 -1.177751,0.31365 -0.120499,0.0286 -0.31749,0.0164 -0.361498,-0.0765 0.07125,-0.52391 0.142504,-1.04746 0.213755,-1.57138 0.0031,-0.12539 -0.06881,-0.27208 -0.207817,-0.26929 -0.138662,-0.007 -0.282563,0.14425 -0.297582,0.2651 m 2.09634,-0.54522 c -0.319934,-0.0147 -0.805424,0.0912 -1.104053,0.17813 -0.113514,0.0217 -0.195943,0.15682 -0.178828,0.29688 0.0098,0.0688 0.03947,0.11946 0.102686,0.14845 0.148441,0.0678 0.566172,0.0608 0.724393,0.0314 0.176384,-0.0325 0.375469,-0.0426 0.554298,-0.13726 0.128882,-0.058 0.211659,-0.18861 0.183019,-0.31889 -0.01921,-0.13238 -0.151236,-0.19769 -0.281515,-0.19874"
         style="fill:#000000;fill-opacity:1;fill-rule:nonzero;stroke-width:0.089414"
         id="path1-2" /><path
         fill-rule="nonzero"
         fill="#000000"
         fill-opacity="1"
         d="m 72.678813,175.46497 c -0.09989,0.0957 -0.199435,0.19141 -0.299328,0.28711 -0.233314,0.10688 -0.46628,0.21375 -0.699595,0.32063 -0.221789,0.14949 -0.385248,0.30981 -0.548359,0.47362 -0.124691,0.12503 -0.167652,0.26998 -0.181972,0.43519 -0.01083,0.12364 -0.0073,0.25916 0.109323,0.37547 0.08662,0.0866 0.184766,0.10967 0.27872,0.11281 0.122945,0.004 0.250429,-0.0244 0.373024,-0.0552 0.183369,-0.0454 0.526006,-0.40202 0.696103,-0.39992 0.140757,0.009 0.224583,0.23995 0.308408,0.35207 0.07055,0.0622 0.161714,0.0576 0.224234,-0.0203 0.03388,-0.60878 0.05239,-1.22281 0.0042,-1.80679 -0.06217,-0.0859 -0.166603,-0.11666 -0.264748,-0.0747 m -1.245513,1.47115 0.04715,0.0471 -0.04715,0.0471 -0.04715,-0.0471 0.04715,-0.0471 m 0.422272,-0.15997 c -0.112815,0.10583 -0.232965,0.19 -0.295835,0.1425 -0.08767,-0.0664 0.192799,-0.2913 0.333906,-0.43275 0.112116,-0.0985 0.232616,-0.17429 0.257764,-0.0971 0.02724,0.0856 -0.157873,0.25776 -0.295835,0.38734 m -0.888552,-1.43901 c -0.568268,0.5288 -1.092877,1.09148 -1.483365,1.62866 -0.0957,0.13203 -0.140058,0.23611 -0.146346,0.37233 -0.0059,0.12399 3.58e-4,0.27347 0.117356,0.35171 0.119801,0.0796 0.341241,0.0636 0.468376,0.0227 0.177781,-0.0573 0.499461,-0.12294 0.634281,-0.26684 0.08452,-0.0905 0.111069,-0.20364 0.06427,-0.26441 -0.08872,-0.10757 -0.417381,0.002 -0.416334,-0.13202 0.442181,-0.52741 0.792851,-0.90742 1.228744,-1.49175 0.05553,-0.1219 0.01746,-0.28291 -0.08872,-0.35276 -0.111418,-0.0702 -0.262654,0.0122 -0.378263,0.13237 m -4.612856,0.31365 c -0.174986,0.31155 -0.349972,0.6231 -0.524958,0.93465 -0.08976,0.11247 -0.190703,0.24554 -0.321681,0.33566 -0.073,0.0499 -0.164159,0.0835 -0.233664,0.0821 -0.07265,-0.001 -0.122246,-0.044 -0.159269,-0.12575 -0.03772,-0.0835 -0.03947,-0.15507 0.01013,-0.24832 0.08802,-0.16696 0.78377,-0.81172 0.739063,-0.88192 -0.03528,-0.0555 -0.312251,-0.0695 -0.429956,-0.0112 -0.173588,0.0863 -0.39887,0.41808 -0.51902,0.59935 -0.07719,0.16137 -0.15403,0.32273 -0.23087,0.4841 -0.08068,0.0594 -0.28396,0.0517 -0.392234,0.0293 -0.05344,-0.0112 -0.09151,-0.0273 -0.113165,-0.0713 -0.02899,-0.058 -0.0084,-0.15019 0.02794,-0.22877 0.181972,-0.32552 0.602148,-0.2871 0.799487,-0.64126 0.128533,-0.17709 0.123993,-0.44813 0.09815,-0.63744 -0.01921,-0.10757 -0.158919,-0.0974 -0.294088,-0.0443 -0.17359,0.12888 -0.347178,0.25776 -0.520418,0.38664 -0.119801,-0.0604 -0.239951,-0.12085 -0.359752,-0.18163 -0.119102,-0.0175 -0.25951,-0.0171 -0.378263,0.0332 -0.156475,0.0664 -0.336001,0.15578 -0.362895,0.24939 -0.02934,0.42855 -0.05833,0.85676 -0.08767,1.28498 0.02969,0.0803 0.08697,0.0765 0.123643,0.004 0.118753,-0.34507 0.104782,-0.73732 0.323078,-1.06947 0.095,-0.14984 0.242396,-0.27313 0.366388,-0.24345 0.09849,0.0164 0.199784,0.11317 0.190005,0.22703 -0.125389,0.23367 -0.250779,0.46733 -0.375819,0.701 -0.03877,0.12748 -0.05833,0.34577 0.02375,0.46697 0.06007,0.0894 0.154728,0.11282 0.253922,0.11631 0.232617,-0.0388 0.465232,-0.0772 0.697848,-0.11596 0.123643,0.11457 0.246937,0.22947 0.37058,0.34404 0.09256,0.043 0.190703,0.0286 0.287103,0 0.234362,-0.0709 0.59097,-0.47536 0.77364,-0.50016 0.07055,0.0108 0.249033,0.15333 0.361848,0.0471 0.0737,-0.0671 0.169048,-1.00975 0.129929,-1.17007 -0.01188,-0.1156 -0.176732,-0.20397 -0.272782,-0.15437 m -1.71633,0.212 0.04715,0.0471 -0.04715,0.0471 -0.04715,-0.0471 0.04715,-0.0471 m 0.08941,-0.0894 0.04715,0.0471 -0.04715,0.0471 -0.04715,-0.0471 0.04715,-0.0471 m 0.08941,-0.0894 0.04715,0.0472 -0.04715,0.0471 -0.04715,-0.0471 0.04715,-0.0472 m -2.597199,-0.48689 c -0.09884,0.0932 -0.197688,0.18651 -0.296532,0.27977 -0.208517,0.065 -0.452659,0.12574 -0.706581,0.33076 -0.334953,0.26614 -0.524609,0.59377 -0.6968,0.89693 -0.04785,0.11911 -0.05344,0.26196 0.0087,0.38455 0.0496,0.0978 0.151236,0.19944 0.249382,0.24833 0.06322,0.0318 0.130279,0.0402 0.193148,0.0384 0.159967,-0.005 0.316093,-0.0747 0.46628,-0.15753 0.225981,-0.15996 0.45196,-0.32028 0.678289,-0.48025 0.03912,-0.006 0.05344,0.029 0.05693,0.0786 0.01187,0.1708 -0.06112,0.42996 -0.114911,0.60215 -0.08208,0.26474 -0.221788,0.5302 -0.384899,0.79459 -0.181273,0.29794 -0.625898,0.71812 -0.867246,0.84001 -0.0475,0.0611 -0.05134,0.17394 -7.16e-4,0.2389 0.02794,0.0356 0.09745,0.0678 0.155077,0.0831 0.105132,0.0283 0.19245,0.0251 0.294788,-0.029 0.127135,-0.0671 0.260558,-0.18057 0.365689,-0.2857 0.358354,-0.40761 0.637773,-0.84036 0.817649,-1.25984 0.09221,-0.25741 0.15403,-0.55254 0.176732,-0.8145 0.03318,-0.38281 0.01642,-0.78761 0.0045,-1.17147 -0.01013,-0.1893 -0.04087,-0.47081 -0.217947,-0.61367 -0.05239,-0.029 -0.121897,-0.03 -0.181622,-0.004 m -0.649649,1.29895 c -0.174986,0.15402 -0.470122,0.37233 -0.507145,0.28221 -0.0084,-0.0912 0.222138,-0.32482 0.376517,-0.46419 0.139011,-0.12538 0.315045,-0.26928 0.348575,-0.19244 0.03528,0.0821 -0.08348,0.25008 -0.217947,0.37442 m 0.296195,-0.54381 0.04715,0.0472 -0.04715,0.0471 -0.04715,-0.0471 0.04715,-0.0472 m -9.050027,-1.32654 c -0.145647,0.15088 -0.232966,0.3084 -0.300375,0.46 -0.119801,0.26859 -0.195594,0.5494 -0.238904,0.82078 -0.0241,0.14949 -0.02515,0.30597 0,0.45616 0.02026,0.1212 0.06112,0.25217 0.128882,0.35521 0.08662,0.13167 0.254272,0.33809 0.415985,0.45405 0.205024,0.13238 0.431004,0.12784 0.645458,0.11142 0.391186,-0.20293 0.813109,-0.42227 1.169367,-0.81276 0.121548,-0.14914 0.207818,-0.30806 0.256018,-0.46104 0.0475,-0.15054 0.051,-0.30875 0.03702,-0.45929 -0.01397,-0.14949 -0.05693,-0.31295 -0.146346,-0.46524 -0.0702,-0.12015 -0.197689,-0.27208 -0.320634,-0.3353 -0.27383,-0.11177 -0.538928,0.0157 -0.808218,-0.006 -0.165905,-0.10094 -0.353814,-0.35695 -0.557441,-0.29338 -0.10129,0.0161 -0.193149,0.0845 -0.280816,0.17498 m 27.294331,-0.25113 c -0.150188,0.10793 -0.308409,0.28117 -0.465233,0.45231 -0.202578,0.32343 -0.405157,0.64721 -0.607735,0.97099 -0.105481,-0.0499 -0.01712,-0.42926 -0.06497,-0.62346 -0.02026,-0.11177 -0.176034,-0.19943 -0.290595,-0.15089 -0.252177,0.0995 -0.623104,0.38595 -0.925576,0.62416 -0.145996,0.11491 -0.279069,0.26719 -0.375818,0.42402 -0.134121,0.21514 -0.08138,0.43833 -0.07475,0.65593 0.0241,0.0975 0.08732,0.1708 0.185814,0.23577 0.12958,0.0849 0.253223,0.12503 0.382454,0.11071 0.09186,-0.0105 0.200134,-0.0398 0.276625,-0.0891 0.07998,-0.0817 0.160317,-0.16346 0.2403,-0.24518 0.02794,-0.004 0.04471,0.0342 0.0475,0.08 -0.08976,0.43799 -0.256716,0.935 -0.450214,1.39814 -0.119801,0.23856 -0.354862,0.59796 -0.522862,0.78203 -0.125041,0.08 -0.249731,0.15997 -0.374771,0.2396 -0.01118,0.044 0.01676,0.10722 0.06322,0.1425 0.159269,0.0887 0.37512,-0.001 0.557441,-0.0727 0.226329,-0.12923 0.426812,-0.41284 0.549756,-0.60494 0.253923,-0.39608 0.358704,-0.77958 0.48095,-1.17461 0.08662,-0.28046 0.0702,-0.76036 0.171494,-0.94828 0.110719,-0.10024 0.24484,0.57665 0.553947,0.60774 0.132025,0.029 0.335652,0.0314 0.471869,0 0.09745,-0.0227 0.19734,-0.0859 0.252874,-0.19244 0.05344,-0.1027 0.04785,-0.21621 -0.0035,-0.26266 -0.141107,0.006 -0.282213,0.0112 -0.42332,0.0168 -0.08941,-0.0115 -0.17778,-0.0678 -0.24519,-0.15019 -0.103734,-0.12644 -0.108973,-0.28536 -0.08313,-0.41075 0.007,-0.1949 0.260558,-0.0126 0.370579,-0.14739 0.143901,-0.11981 0.340193,-0.34613 0.460343,-0.56059 0.147393,-0.2623 0.275227,-0.63184 0.301423,-0.91859 0.0091,-0.10024 -0.01886,-0.20327 -0.101639,-0.25043 -0.100241,-0.0573 -0.265797,-0.004 -0.357306,0.0615 m -0.540323,1.48822 0.04715,0.0471 -0.04715,0.0471 -0.04715,-0.0471 0.04715,-0.0471 m 0.189306,-0.28571 -0.0052,0.0381 -0.03213,0.0335 -0.03667,-0.001 -0.01502,-0.0293 0.02235,-0.0391 0.03807,-0.0199 0.02864,0.0178 m 0.07894,-0.16133 0.04715,0.0471 -0.04715,0.0471 -0.04715,-0.0471 0.04715,-0.0471 m -1.352387,0.3105 c -0.05588,0.16521 -0.165207,0.34787 -0.271037,0.51972 -0.06881,0.11107 -0.162761,0.24169 -0.274528,0.33495 -0.08697,0.0727 -0.153332,0.0968 -0.219345,0.0611 -0.06287,-0.0339 -0.117355,-0.12259 -0.117355,-0.19978 -3.58e-4,-0.0793 0.05344,-0.1652 0.105131,-0.24833 0.117007,-0.18652 0.318887,-0.44044 0.470471,-0.57456 0.08522,-0.0754 0.224583,-0.17184 0.294438,-0.15543 0.07859,0.0182 0.0496,0.15264 0.01223,0.26231 m 1.461011,-0.37756 -0.01432,0.0182 -0.01746,-0.0231 -0.0066,-0.0349 0.01432,-0.0182 0.01746,0.0231 0.0066,0.0349 m 0.08941,-0.17883 -0.01432,0.0182 -0.01746,-0.0231 -0.0066,-0.0349 0.01432,-0.0182 0.01746,0.0231 0.0066,0.0349 m 0.07021,-0.20118 0.04715,0.0471 -0.04715,0.0471 -0.04715,-0.0471 0.04715,-0.0471 m 7.075583,-0.66467 c -0.103035,-0.0314 -0.186861,-0.0227 -0.286403,0.0196 -0.215503,0.0911 -0.443928,0.24414 -0.643013,0.40934 -0.207818,0.21725 -0.415636,0.4345 -0.623454,0.65175 -0.155427,0.0866 -0.510987,0.0611 -0.670954,0.0314 -0.05518,-0.0105 -0.09256,-0.0234 -0.106877,-0.0678 -0.01432,-0.0447 0.0014,-0.0831 0.04994,-0.14879 0.318887,-0.30282 0.638123,-0.60564 0.957009,-0.90847 0.05938,-0.0789 0.04401,-0.15367 -0.03842,-0.14878 -0.05065,0.003 -0.11561,0.044 -0.174288,0.0849 -0.517274,0.42821 -0.803678,0.63951 -1.151904,1.14177 -0.02235,0.0681 -0.01467,0.13587 0.01572,0.19211 0.03353,0.0625 0.07859,0.0877 0.136565,0.10407 0.230172,0.0541 0.618214,-0.0569 0.733126,0.087 0.01921,0.0758 -0.0964,0.20921 -0.204674,0.27942 -0.184417,0.13795 -0.609134,0.12992 -0.57735,0.30456 0.04296,0.0681 0.382804,0.0905 0.515178,0.0957 0.177082,-0.0276 0.354513,-0.0548 0.531595,-0.0824 0.13971,0.0911 0.285706,0.20642 0.450563,0.21549 0.120848,0.007 0.25951,-0.03 0.380009,-0.10897 0.09151,-0.0597 0.201532,-0.15927 0.274181,-0.25776 0.07684,-0.10443 0.107226,-0.20957 0.05588,-0.25777 -0.159618,-0.0709 -0.484792,0.18128 -0.661874,0.0761 -0.0971,-0.0726 -0.120848,-0.23645 -0.05623,-0.36568 0.114212,-0.2162 0.459643,-0.50819 0.660825,-0.65873 0.188259,-0.14111 0.608085,-0.25183 0.680036,-0.35033 0.02864,-0.0391 0.03004,-0.10722 0.0021,-0.16241 -0.04471,-0.087 -0.151236,-0.14634 -0.247286,-0.17533 m -29.137099,1.05236 c -0.118403,0.17918 -0.236807,0.35835 -0.35556,0.53718 -0.152632,0.40935 -0.280816,0.86201 -0.310155,1.28078 0.01292,0.0552 0.03912,0.0821 0.104083,0.0964 0.09256,0.0206 0.177781,-0.0154 0.223885,-0.0838 0.128183,-0.23297 0.156125,-0.67411 0.330413,-0.79985 0.09221,-0.003 0.313298,0.37931 0.353115,0.51867 0.05449,0.20782 -0.127834,0.4118 -0.007,0.63289 0.073,0.13517 0.23087,0.20118 0.35067,0.16486 0.121897,-0.0192 0.257066,-0.0559 0.375819,-0.11492 0.130279,-0.0646 0.376516,-0.22108 0.41354,-0.33704 0.01851,-0.0583 -0.0091,-0.0891 -0.05833,-0.10723 -0.148092,0.009 -0.296184,0.0189 -0.444276,0.0283 -0.08278,-0.007 -0.117007,-0.0405 -0.10094,-0.11142 0.01467,-0.0657 0.06986,-0.15367 0.130279,-0.1893 0.137614,-0.0601 0.357656,-0.0224 0.475361,-0.22459 0.145997,-0.18406 0.169398,-0.37966 0.133074,-0.57106 -0.01781,-0.0667 -0.04401,-0.11631 -0.106529,-0.15752 -0.09815,-0.0643 -0.273132,-0.0615 -0.375469,-0.0381 -0.175684,0.0185 -0.2644,0.29408 -0.436592,0.41528 -0.05973,0.0395 -0.08976,0.0402 -0.133423,0.001 -0.0971,-0.0866 -0.352067,-0.56896 -0.403411,-0.68213 0.04191,-0.40969 0.03353,-0.95944 0.02794,-1.42922 -0.0091,-0.0877 -0.04296,-0.1673 -0.101289,-0.13307 -0.127834,0.33739 0.0045,0.88715 -0.08522,1.30348 m 1.362167,1.07262 -0.06741,0.0772 -0.0723,0.0646 -0.05868,0.0342 -0.03039,-0.0161 0.0049,-0.0517 0.04506,-0.0734 0.06741,-0.0772 0.0723,-0.0646 0.05868,-0.0342 0.03039,0.0161 -0.0049,0.0517 -0.04506,0.0733 m 24.906698,-2.50987 c -0.314347,0.004 -0.627645,0.20851 -0.89938,0.35171 -0.145298,-0.10373 -0.333905,-0.19035 -0.53369,-0.1893 -0.217248,0.004 -0.435544,-0.002 -0.651744,0.1914 -0.156475,0.13342 -0.306663,0.30666 -0.381407,0.45335 -0.154728,0.42787 -0.235411,0.84769 -0.262653,1.28219 0.0031,0.17813 -0.0049,0.3863 0.126785,0.53614 0.09151,0.0929 0.243444,0.13447 0.371977,0.0772 0.101289,-0.0451 0.200483,-0.14879 0.257415,-0.24239 0.145297,-0.23856 0.163111,-0.57421 0.20153,-0.82045 0.01746,-0.29094 0.03493,-0.58189 0.05274,-0.87248 0.06986,-0.13133 0.333905,-0.2913 0.45161,-0.30073 0.09046,-0.007 0.191751,0.0859 0.187909,0.19141 -0.0087,0.23785 -0.309456,0.61646 -0.36045,0.88191 -0.03528,0.18511 -0.0031,0.46942 0.09675,0.64895 0.113514,0.18406 0.353814,0.32098 0.530896,0.33845 0.153331,0.002 0.533341,-0.16102 0.641615,-0.27348 0.0709,-0.0734 0.07405,-0.16626 -0.01642,-0.18093 -0.117356,0.029 -0.234711,0.058 -0.352417,0.0873 -0.0957,-0.0147 -0.23506,-0.10478 -0.317489,-0.19873 -0.137964,-0.15474 -0.09046,-0.33007 -0.05868,-0.49842 0.05099,-0.19978 0.161015,-0.40725 0.329365,-0.60704 0.133073,-0.15752 0.347178,-0.36813 0.490729,-0.39118 0.04541,-0.007 0.09256,0.0105 0.112466,0.043 0.02061,0.0339 0.01607,0.0845 -0.0056,0.13552 -0.175684,0.21445 -0.35137,0.42891 -0.527054,0.64371 0.03143,0.0559 0.14425,0.096 0.243443,0.0943 0.09815,-0.001 0.197341,-0.0377 0.267195,-0.0978 0.121197,-0.10443 0.366737,-0.43799 0.447419,-0.62554 0.06147,-0.14321 0.01991,-0.33182 -0.08348,-0.47781 -0.100242,-0.1418 -0.229822,-0.1928 -0.359402,-0.18022 M 73.402767,174.645 c -0.118404,0.34472 -0.183718,0.73138 -0.214454,1.08379 -0.03213,0.36569 -0.05518,0.81346 3.58e-4,1.1774 0.02131,0.14111 0.12993,0.32971 0.282213,0.4579 0.17778,0.15193 0.383852,0.0995 0.564077,0.0943 0.120849,-0.0898 0.242047,-0.17953 0.362895,-0.26894 0.155776,0.0178 0.334255,0.24274 0.526356,0.15543 0.128532,-0.0231 0.259161,-0.0587 0.358704,-0.15299 0.0957,-0.1177 0.191401,-0.23541 0.287102,-0.35311 0.140059,0.0824 0.280118,0.16451 0.420176,0.24658 0.114213,0.003 0.267893,-0.0688 0.377215,-0.12853 0.109323,-0.10059 0.218646,-0.20118 0.328318,-0.30177 0.04506,0 0.08976,0.0779 0.121547,0.14565 0.06112,0.0433 0.177431,0.0444 0.231917,-0.007 0.09885,-0.11491 -0.04436,-0.34788 -0.01327,-0.52007 0.08068,-0.36394 0.161363,-0.72858 0.242395,-1.09252 -0.0024,-0.0982 -0.03388,-0.20153 -0.119102,-0.24205 -0.113514,-0.0541 -0.273132,0.0293 -0.324475,0.1439 -0.17813,0.48829 -0.231219,0.97936 -0.535437,1.40513 -0.08767,0.10199 -0.275227,0.18477 -0.362545,0.14041 -0.07195,-0.0363 -0.121897,-0.18093 -0.140409,-0.28152 -0.01641,-0.0894 -0.0024,-0.15613 0.04506,-0.24903 0.05903,-0.11491 0.122246,-0.22423 0.20188,-0.30666 0.111418,-0.19699 0.505399,-0.16626 0.462089,-0.30911 -0.11561,-0.11176 -0.421573,0.0136 -0.613674,0.0381 -0.08732,0.0587 -0.174636,0.1177 -0.261955,0.17638 -0.113863,-0.14739 -0.227377,-0.29444 -0.34124,-0.44148 -0.114562,-0.10164 -0.223186,-0.11177 -0.320284,-0.13272 -0.06182,-0.0395 -0.08802,-0.1212 -0.08557,-0.20467 0.0737,-0.26859 0.147744,-0.53754 0.221441,-0.80613 -0.01781,-0.0981 -0.09011,-0.18023 -0.181623,-0.18336 -0.06566,-0.002 -0.09919,0.0269 -0.142155,0.081 -0.111068,0.14006 -0.224931,0.37827 -0.281165,0.54452 -0.103385,0.34718 -0.14425,0.74605 -0.179526,1.04154 -0.0073,0.01 -0.441482,-0.0706 -0.513083,-0.11597 -0.06357,-0.0402 -0.08173,-0.11875 -0.07614,-0.20432 0.095,-0.41912 0.190353,-0.83825 0.285705,-1.25738 -0.0042,-0.074 -0.06322,-0.11282 -0.164158,-0.0971 -0.07195,0.0112 -0.103036,0.0353 -0.143901,0.0891 -0.119801,0.15787 -0.239602,0.44323 -0.305265,0.63498 m 0.549756,1.46486 c 0.06252,0.12818 0.06776,0.38803 0.073,0.51902 0.0045,0.10827 -0.08732,0.31539 -0.186512,0.34543 -0.101989,0.0276 -0.20677,-0.14111 -0.215503,-0.27313 -0.0227,-0.17744 -0.03178,-0.42402 0.0021,-0.59796 0.01572,-0.0814 0.05728,-0.14006 0.133771,-0.13831 0.07405,0.001 0.152982,0.0625 0.193149,0.14495 m 1.136186,-0.26964 c 0.04576,0.088 0.05693,0.16555 0.05973,0.25392 0.0045,0.14215 0.0056,0.28431 -0.04331,0.42332 -0.03493,0.10024 -0.106179,0.25811 -0.177432,0.2609 -0.07614,0.003 -0.128183,-0.15018 -0.140407,-0.25357 0.01711,-0.29758 -0.0709,-0.80088 0.06042,-0.95177 0.06916,0.007 0.188957,0.16731 0.240998,0.2672 m 15.287704,-2.26749 c -0.154029,0.0507 -0.320284,0.19455 -0.445673,0.34194 -0.167651,0.19629 -0.330412,0.43205 -0.418779,0.63638 -0.06531,0.26474 -0.130279,0.52915 -0.195244,0.79355 -0.132375,-0.13308 -0.119102,-0.5784 -0.16835,-0.88262 -0.04226,-0.12399 -0.14914,-0.27278 -0.280816,-0.26789 -0.135867,-9e-4 -0.261256,0.13762 -0.345431,0.26021 -0.160317,0.23366 -0.518322,1.13339 -0.565823,1.04991 0.06741,-0.4062 0.135169,-0.81241 0.202578,-1.21861 0.0049,-0.10164 -0.170794,-0.12539 -0.257414,-0.0664 -0.172541,0.42157 -0.404809,1.01009 -0.487935,1.50991 -0.02305,0.14215 -0.04052,0.31854 -0.0052,0.46173 0.01746,0.0713 0.04052,0.1219 0.101989,0.18233 0.08417,0.0828 0.189305,0.11211 0.286753,0.11246 0.100591,0 0.191053,-0.03 0.273831,-0.10897 0.213056,-0.38455 0.426113,-0.76945 0.639519,-1.15435 0.189656,0.0227 0.244492,0.39433 0.350671,0.50295 0.123992,0.0933 0.265099,-0.087 0.330762,-0.0699 0.09046,0.15124 0.180923,0.30247 0.271385,0.45406 0.09849,0.11246 0.229124,0.20537 0.349624,0.27592 0.151934,0.0894 0.304216,0.14634 0.460691,0.17219 0.110371,0.0185 0.27418,0.0416 0.37023,-0.0335 0.05623,-0.044 0.07614,-0.0978 0.0716,-0.17009 -0.0042,-0.0692 -0.03493,-0.12679 -0.07928,-0.16451 -0.235061,-0.0995 -0.530546,-0.14635 -0.775038,-0.40132 -0.20677,-0.18896 -0.226329,-0.39747 -0.241697,-0.58328 0.01013,-0.10968 0.130279,-0.25253 0.240649,-0.29164 0.173589,0.008 0.347178,0.0161 0.520767,0.0241 0.122246,-0.0409 0.236808,-0.15158 0.301423,-0.2665 0.127834,-0.24274 0.07405,-0.49282 0.08662,-0.73766 -0.0063,-0.0936 -0.02794,-0.19035 -0.11526,-0.27592 -0.14425,-0.13832 -0.324126,-0.12434 -0.477108,-0.0845 m -0.415286,1.23923 -0.01432,0.0182 -0.01746,-0.0231 -0.0066,-0.0349 0.01432,-0.0182 0.01746,0.0231 0.0066,0.0349 m 0.47606,-0.35278 c -0.09116,0.10794 -0.209913,0.17395 -0.27907,0.13099 -0.05588,-0.0346 -0.0496,-0.10374 0.01048,-0.18442 0.105829,-0.14251 0.274529,-0.29653 0.324474,-0.23646 0.05274,0.0643 0.02864,0.18966 -0.05588,0.28989 m -33.595925,-1.2483 c -0.187909,0.50365 -0.220042,1.183 -0.382105,1.69747 -0.08208,0.15474 -0.163809,0.30981 -0.245889,0.46454 0.03423,0.12294 0.06846,0.24554 0.102687,0.36848 -0.111419,0.5054 -0.216899,0.98565 -0.300376,1.5162 0.0028,0.094 0.0241,0.1935 0.111768,0.27802 0.06077,0.0594 0.117705,0.0894 0.194895,0.0898 0.128532,0.001 0.307011,-0.1411 0.338097,-0.27592 -0.03388,-0.15369 -0.06776,-0.30736 -0.101639,-0.46105 0.08243,-0.43379 0.144599,-0.88366 0.282911,-1.30663 0.159619,-0.32343 0.640917,-0.17463 0.798789,-0.39887 0.02166,-0.0831 -0.04925,-0.17254 -0.130628,-0.21969 -0.185814,-0.0702 -0.475711,-0.0423 -0.514829,-0.24065 0.05588,-0.34893 0.111767,-0.6975 0.167651,-1.04608 -0.0035,-0.13447 -0.04086,-0.3552 -0.09675,-0.46558 -0.02829,-0.0559 -0.05973,-0.0838 -0.117007,-0.0838 -0.05693,0 -0.08697,0.0283 -0.107576,0.0838 m 8.871897,-1.96012 c -0.03877,0.12294 -0.04331,0.24414 -0.04017,0.36534 0.0038,0.16661 0.02969,0.49772 0.138662,0.63847 0.05449,0.0706 0.170096,0.1191 0.253223,0.10409 0.06147,-0.0108 0.07579,-0.0405 0.07929,-0.0982 -0.04156,-0.27313 -0.08313,-0.54592 -0.12504,-0.81905 0.02061,-0.20851 0.04086,-0.41738 0.06112,-0.6259 -0.0094,-0.0552 -0.03737,-0.0894 -0.09081,-0.0712 -0.10583,0.0363 -0.233315,0.36953 -0.276276,0.50644 m -6.111588,-0.81032 c -0.08906,0.40482 -0.174288,0.93432 -0.189306,1.36217 -0.0031,0.14321 -0.0255,0.34439 0.118403,0.41075 0.05588,0.0251 0.08662,0.007 0.107227,-0.0374 0.145997,-0.66467 0.159968,-1.38453 0.350322,-2.08203 -0.0059,-0.0587 -0.03493,-0.0887 -0.08872,-0.0908 -0.105131,-0.004 -0.26405,0.28397 -0.29793,0.43729 m 6.353985,-0.34193 c -0.01223,0.0601 0.0091,0.12923 0.04052,0.15018 0.04051,0.0269 0.07579,-0.003 0.105829,-0.0552 0.04925,-0.0845 0.06811,-0.20956 0.02165,-0.2382 -0.0496,-0.0304 -0.147743,0.0443 -0.168,0.1432 m 8.929527,0.5267 c -0.03353,0.2885 -0.02899,0.62555 -0.0066,0.9151 0.0073,0.0936 0.02969,0.19769 0.132723,0.22703 0.05623,0.0161 0.125739,-0.009 0.163461,-0.0524 0.06846,-0.5756 0.06566,-1.34645 0.08383,-1.86337 -0.05344,-0.0314 -0.35137,0.58328 -0.373374,0.77364 m -13.842409,-0.56163 c -0.08418,-0.0464 -0.308059,-0.24693 -0.404809,-0.13692 0.0014,0.26265 0.0024,0.52566 0.0038,0.78831 -0.165556,0.35871 -0.330762,0.71776 -0.496318,1.07681 -0.01607,0.0887 -0.03074,0.19246 -0.0042,0.28536 0.01746,0.0604 0.0489,0.11805 0.11491,0.13762 0.09535,0.0279 0.20223,-0.0444 0.264051,-0.13203 0.122595,-0.25008 0.215851,-0.57526 0.385598,-0.72579 0.217947,0.0433 0.220392,0.62066 0.588876,0.91055 0.06846,0.0531 0.122595,0.0769 0.199434,0.0709 0.06671,-0.006 0.124692,-0.0409 0.14949,-0.0908 -0.06846,-0.4806 -0.503652,-1.0356 -0.541374,-1.52528 -0.007,-0.24554 0.185114,-0.55779 0.271386,-0.81241 0.008,-0.0555 -0.0042,-0.0821 -0.06427,-0.0985 -0.193847,-0.0796 -0.358006,0.21375 -0.466629,0.25217 m 13.24096,-0.49667 c -0.121198,0.0615 -0.204675,0.21097 -0.265099,0.33007 -0.151584,0.29757 -0.362546,1.6077 -0.361847,1.60805 -0.09395,-0.15088 -0.18756,-0.30177 -0.281514,-0.45266 -0.119801,-0.0342 -0.239602,-0.0685 -0.359403,-0.10269 -0.08103,-0.32202 -0.162412,-0.6444 -0.243444,-0.96643 -0.03912,-0.0587 -0.100591,-0.11911 -0.167651,-0.1439 -0.106528,-0.0398 -0.215851,-9e-4 -0.263352,0.0754 0.03388,0.53998 0.224932,1.09253 0.252873,1.62797 0.02934,0.1149 0.07684,0.26649 0.175686,0.36499 0.07649,0.0765 0.17778,0.10931 0.274528,0.0947 0.164159,0 0.216899,-0.24345 0.273481,-0.26091 0.09535,0.0328 0.135169,0.39398 0.34159,0.4813 0.123993,0.0618 0.281166,0.0409 0.354862,-0.0576 0.08173,-0.5061 0.16346,-1.01254 0.245539,-1.51899 0.04436,-0.34683 0.391536,-0.73593 0.376866,-1.06319 -0.05414,-0.0688 -0.245888,-0.0702 -0.353115,-0.0161 m -2.679626,-0.009 c -0.191752,0.0695 -0.386298,0.22074 -0.555345,0.32971 -0.190704,0.12854 -0.49562,0.32483 -0.537882,0.555 -0.0063,0.18127 -0.06008,0.40202 0.10094,0.55256 0.292342,0.11595 0.584335,0.23191 0.876327,0.34787 0.08418,0.051 0.123294,0.095 0.06811,0.15682 -0.06601,0.074 -0.215153,0.11421 -0.316791,0.13762 -0.349624,0.0436 -0.739063,0.0471 -1.077509,0.14215 -0.05414,0.0227 -0.08103,0.0507 -0.08068,0.10792 3.58e-4,0.0573 0.02759,0.0901 0.08208,0.12155 0.37547,0.14391 0.794249,0.0821 1.187531,0.0908 0.148791,-0.0168 0.318188,-0.0866 0.466979,-0.16625 0.095,-0.051 0.189655,-0.11841 0.237506,-0.21026 0.07195,-0.13762 0.07055,-0.43904 7.15e-4,-0.55675 -0.237855,-0.26998 -0.76421,-0.34787 -0.969583,-0.55673 -0.02061,-0.0653 0.04156,-0.14705 0.119801,-0.22424 0.224233,-0.18547 0.448467,-0.37093 0.6727,-0.55639 0.04645,-0.0852 0.04541,-0.19629 -0.01083,-0.25218 -0.05623,-0.0562 -0.165555,-0.0552 -0.26405,-0.0192 m 6.269459,-0.19908 c -0.143202,0.0168 -0.334254,0.0451 -0.468724,0.1156 -0.18791,0.0988 -0.383154,0.35067 -0.479204,0.51484 -0.133771,0.22877 -0.225281,0.49771 -0.225631,0.73173 -3.57e-4,0.16659 0.02899,0.39328 0.06881,0.55499 0.0241,0.0974 0.08662,0.18896 0.186512,0.25148 0.138662,0.0873 0.334605,0.12713 0.474314,0.10478 0.204674,-0.0653 0.483395,-0.13762 0.593416,-0.3608 0.03039,-0.0632 0.04995,-0.13412 0.04121,-0.18966 -0.0098,-0.0629 -0.03947,-0.0947 -0.104084,-0.10059 -0.121896,0.0472 -0.244142,0.094 -0.366387,0.14076 -0.095,0.0224 -0.246588,0.0227 -0.317839,-0.0217 -0.125041,-0.0849 -0.06706,-0.30352 -0.08033,-0.46069 0.0045,-0.12015 0.03493,-0.21934 0.120849,-0.34404 0.123643,-0.17952 0.257764,-0.35206 0.403062,-0.45125 0.102686,-0.0699 0.222487,-0.13518 0.344034,-0.1453 0.136567,0.008 0.273132,0.0164 0.409698,0.0248 0.03318,-0.0454 -0.167302,-0.21935 -0.316442,-0.30422 -0.101987,-0.0583 -0.183718,-0.0723 -0.283261,-0.0608 m -17.990381,0.058 c -0.06147,0.0314 -0.126437,0.0873 -0.156126,0.14565 -0.02829,0.0555 -0.02724,0.1219 0.0091,0.15927 0.06007,0.0611 0.170446,0.0342 0.270338,-0.0154 0.127485,-0.0632 0.257414,-0.16276 0.224583,-0.2382 -0.04121,-0.0943 -0.218995,-0.11771 -0.347876,-0.0513 m 15.303071,-0.10513 c -0.09919,0.0538 -0.16835,0.17639 -0.138313,0.20957 0.04611,0.051 0.334605,-0.15158 0.282912,-0.21585 -0.01851,-0.0224 -0.08662,-0.0251 -0.144599,0.006 m -10.778932,-0.0209 c -0.03248,0.0534 -0.04052,0.11596 -0.0042,0.14111 0.02689,0.0185 0.0936,-0.004 0.127135,-0.0548 0.03458,-0.052 0.02899,-0.11945 -0.0021,-0.14145 -0.04156,-0.0297 -0.08767,8.9e-4 -0.12085,0.0552 m 3.506358,-0.0234 c -0.05239,0.47536 -0.02829,0.99194 -0.113514,1.44599 -0.02969,0.15822 -0.121547,0.37163 -0.193148,0.48864 -0.06007,0.0981 -0.08418,-0.87598 -0.180924,-1.12397 -0.02096,-0.0534 -0.05064,-0.0803 -0.106528,-0.08 -0.15368,-0.006 -0.117007,0.20887 -0.161714,0.32447 -0.162063,0.1254 -0.324126,0.25078 -0.486538,0.37582 -0.176733,0.18721 -0.514131,0.56373 -0.537183,0.73173 -0.01921,0.14041 0.03772,0.42577 0.118753,0.56687 0.05588,0.0968 0.153681,0.168 0.258462,0.18582 0.103735,0.0175 0.195245,-0.0175 0.271386,-0.0894 0.130977,-0.19873 0.261955,-0.39747 0.392933,-0.59586 0.06147,-0.0629 0.08767,-0.0363 0.09989,0.0468 0.04925,0.33809 -0.04471,0.79983 -0.09954,1.14072 -0.03667,0.22947 -0.09291,0.4799 -0.205023,0.70309 -0.07021,0.14006 -0.173938,0.30212 -0.309457,0.42751 -0.192101,0.10653 -0.38455,0.2134 -0.576651,0.32029 -0.03982,0.0831 0.119452,0.14634 0.246937,0.16415 0.200483,0.029 0.401315,-0.073 0.510638,-0.15368 0.04017,0.002 0.06601,0.0405 0.08802,0.0891 0.136217,0.35557 0.06357,0.75409 0.08103,1.13026 -0.06531,0.20118 -0.130628,0.40236 -0.196292,0.60354 0.05973,0.006 0.193498,0.0196 0.25497,0.14146 0.0227,0.23401 0.04541,0.46837 0.06811,0.70239 0.08452,0.21864 0.12504,0.5529 0.278721,0.68841 0.0737,0.0318 0.104083,-0.0447 0.112815,-0.13237 0.0045,-0.47117 -0.04017,-0.97971 0.04331,-1.42469 0.03807,-0.0667 0.128882,-0.14145 0.210961,-0.17953 0.122246,-0.0566 0.23576,-0.0325 0.349624,-0.008 0.05693,-0.015 0.08767,-0.0534 0.08837,-0.11283 0.0014,-0.0922 -0.07824,-0.14948 -0.174986,-0.18126 -0.191053,-0.015 -0.382106,-0.0297 -0.573158,-0.0447 -0.01153,-0.37896 -0.02305,-0.75793 -0.03423,-1.13688 -0.01013,-0.19455 -0.322729,-0.25882 -0.369183,-0.37059 0.09186,-0.22353 0.184067,-0.44742 0.275927,-0.6713 0.04121,-0.28675 0.08208,-0.5735 0.123293,-0.86026 0.101639,0.0461 0.203277,0.0919 0.304916,0.13796 0.06042,-0.005 0.121548,-0.0384 0.158221,-0.0852 0.06531,-0.35276 0.130279,-0.70588 0.195593,-1.059 0.203277,0.29864 0.406555,0.59691 0.609483,0.89554 0.06846,0.0527 0.121896,0.0765 0.199085,0.0702 0.06601,-0.006 0.123643,-0.0412 0.144949,-0.0922 -0.01048,-0.27906 -0.231918,-0.63148 -0.373722,-0.91334 -0.180226,-0.26825 -0.360102,-0.53614 -0.540327,-0.80438 -0.177082,-0.44986 -0.0262,-1.02687 -0.152632,-1.3943 -0.05763,-0.0342 -0.09221,0.0454 -0.101639,0.13307 m -0.951093,4.71763 0.04715,0.0471 -0.04715,0.0472 -0.04715,-0.0472 0.04715,-0.0471 m -0.119801,-2.5724 c -0.0709,0.12818 -0.19734,0.31609 -0.296533,0.28815 -0.05554,-0.0157 -0.07824,-0.10513 -0.08103,-0.18302 -0.0024,-0.0807 0.01572,-0.15647 0.06392,-0.24344 0.123294,-0.1928 0.517973,-0.66921 0.618563,-0.59971 0.04995,0.0912 -0.221089,0.58643 -0.304915,0.73802 m -14.861939,-2.05059 c -0.137265,0.23018 -0.26929,0.49004 -0.328317,0.72929 -0.03074,0.27592 -0.06252,0.55464 0.09849,0.83057 0.12015,0.18093 0.349972,0.38909 0.523212,0.53404 0.128532,0.10688 0.241348,0.16974 0.368483,0.19944 0.142853,0.0335 0.320983,0.0908 0.465582,0.0821 0.190354,-0.0115 0.565823,-0.15333 0.728585,-0.25461 0.156823,-0.0971 0.311202,-0.22948 0.425065,-0.37792 0.11526,-0.15054 0.198737,-0.30666 0.250081,-0.45825 0.06182,-0.18337 0.07544,-0.36918 0.05833,-0.5529 -0.01432,-0.15402 -0.06985,-0.30806 -0.162761,-0.46383 -0.141806,-0.23785 -0.429257,-0.52566 -0.663969,-0.61786 -0.24065,-0.0583 -0.477108,-0.0217 -0.715662,0.0199 -0.15368,-0.0451 -0.30771,-0.0905 -0.46139,-0.13552 -0.10094,0 -0.190704,0.0273 -0.287453,0.10444 -0.126437,0.10024 -0.229822,0.24589 -0.298279,0.36114 m 17.10183,-0.89797 c 0.0059,0.57804 0.108274,1.1718 0.114911,1.73344 -0.02375,0.11351 -0.0475,0.22702 -0.0716,0.34054 0.0723,0.25916 0.114911,0.82254 0.254271,1.10021 0.06112,0.12189 0.206421,0.24729 0.251128,0.22563 0.128882,-0.34019 -0.06252,-0.94374 -0.03353,-1.37718 0.01397,-0.23192 0.424017,-0.11282 0.414587,-0.30003 -0.03563,-0.14075 -0.392234,-0.0332 -0.474313,-0.22179 -0.0227,-0.34578 -0.04541,-0.69121 -0.06846,-1.03699 -0.03563,-0.16381 -0.06252,-0.41075 -0.145996,-0.54906 -0.03283,-0.0548 -0.06846,-0.0821 -0.125739,-0.0814 -0.08627,0.001 -0.116308,0.0761 -0.11526,0.16661 m -6.214974,-0.0594 c -0.03458,0.052 -0.02899,0.11944 0.0021,0.14145 0.04156,0.0297 0.08767,-8.9e-4 0.120849,-0.0552 0.03248,-0.0534 0.04052,-0.11595 0.0042,-0.1411 -0.02689,-0.0185 -0.09361,0.004 -0.127136,0.0548 m 2.277264,-0.12434 c -0.03318,0.57141 -0.06671,1.14282 -0.100241,1.71458 -0.117007,0.89903 -0.234363,1.79841 -0.351719,2.69779 -0.008,0.0912 -0.01048,0.18616 0.02235,0.28186 0.03353,0.0978 0.101639,0.20643 0.196292,0.22913 0.0978,0.0234 0.169747,-0.0517 0.195593,-0.13588 0.12469,-0.95596 0.24973,-1.91192 0.374421,-2.86753 0.03458,-0.63393 -0.0098,-1.28323 -0.04296,-1.90494 -0.0049,-0.0929 -0.06951,-0.17638 -0.168699,-0.17918 -0.09954,-0.003 -0.118404,0.0762 -0.12504,0.16417 m -7.119941,-0.85642 c -0.04541,0.0346 -0.0737,0.095 -0.0978,0.15507 -0.159618,0.39468 -0.218994,0.85398 -0.285705,1.25984 -0.0091,0.38035 -0.01816,0.76036 -0.0269,1.14037 -0.107576,0.0992 -0.214803,0.19874 -0.32203,0.29793 -0.0024,0.18826 0.403061,0.0699 0.413889,0.29444 -0.06811,0.57909 -0.193846,1.13864 -0.342288,1.77012 3.58e-4,0.0681 0.01257,0.13063 0.05064,0.18547 0.04052,0.0583 0.08592,0.088 0.157871,0.0887 0.139361,0.007 0.278372,-0.14355 0.302122,-0.26406 0.11526,-0.62589 0.223186,-1.29405 0.307361,-1.86267 0.189655,-0.18372 0.699245,0.0157 0.892743,-0.22249 0.03213,-0.0695 -0.04401,-0.10163 -0.132374,-0.11072 -0.236458,0.0157 -0.492825,0.0325 -0.722298,-0.014 -0.09116,-0.0185 -0.13447,-0.0611 -0.152283,-0.15018 -0.07125,-0.61018 0.117356,-1.23538 0.08906,-1.84732 0.01153,-0.0803 0.04785,-0.17707 0.0964,-0.22632 0.06147,-0.0817 0.127135,0.0213 0.174986,0.14145 0.07265,0.29095 0.145647,0.58189 0.218295,0.87284 0.09605,0.10932 0.337049,0.46454 0.342638,0.28396 -0.0063,-0.26649 -0.0017,-0.77504 -0.08278,-1.00487 -0.06462,-0.18336 -0.140058,-0.37057 -0.267194,-0.55114 -0.0936,-0.13273 -0.207818,-0.24415 -0.343685,-0.27418 -0.09675,-0.021 -0.205722,-0.0122 -0.270687,0.0377 m 18.131489,-0.0262 c -0.03423,0.20921 -0.06846,0.41843 -0.103037,0.62799 -0.01222,0.35976 -0.0248,0.71951 -0.03737,1.07926 -0.117356,0.21481 -0.235061,0.42995 -0.352417,0.64511 0.06462,0.0622 0.12958,0.12434 0.194195,0.18651 0.05204,0.2672 -0.0024,0.53858 -0.05658,0.80159 0.007,0.10966 0.143202,0.37371 0.207468,0.41039 0.04087,0.0237 0.06811,-0.001 0.08627,-0.0465 0.06357,-0.44183 0.107575,-0.99055 0.232266,-1.40757 0.05798,-0.11177 0.263353,0.0653 0.383852,0.12014 0.05833,0.007 0.08941,-0.0157 0.095,-0.0775 0.01956,-0.24483 -0.395727,-0.36988 -0.406903,-0.55464 -0.0084,-0.51623 -0.03388,-0.98321 -0.01432,-1.49839 -0.0098,-0.11176 -0.03877,-0.28954 -0.129581,-0.3353 -0.0503,-0.0251 -0.07998,0.003 -0.09884,0.0489 m -0.252523,2.29543 0.04715,0.0471 -0.04715,0.0472 -0.04715,-0.0472 0.04715,-0.0471 m 2.907702,0.75548 c -0.07963,0.36464 -0.158919,0.72928 -0.238204,1.09427 -0.0084,0.0615 -0.0098,0.11841 0.0241,0.16765 0.03318,0.0486 0.09465,0.0842 0.161365,0.0887 0.109672,0.007 0.208865,-0.0618 0.267543,-0.15752 0.07125,-0.2382 0.142503,-0.47675 0.213756,-0.71531 0.103385,-0.1652 0.267194,-0.34857 0.429955,-0.40201 0.08103,-0.0265 0.165207,-0.0168 0.237856,0.0245 0.07335,0.0412 0.127135,0.11421 0.190004,0.19943 0.127136,0.28222 0.254272,0.56477 0.381407,0.84734 0.06217,0.0356 0.0971,-0.0457 0.106529,-0.13517 0.02165,-0.20642 0.01921,-0.44881 -0.03004,-0.65349 -0.0461,-0.19245 -0.102337,-0.46663 -0.266146,-0.63777 -0.08033,-0.0842 -0.16381,-0.10374 -0.261956,-0.11002 -0.184067,-0.0112 -0.828476,0.10304 -0.838256,0.0891 -0.04331,-0.95177 0.08452,-2.0897 0.05344,-3.11797 -0.0084,-0.0863 -0.04226,-0.16555 -0.09954,-0.13167 -0.126437,1.08309 -0.297582,2.38274 -0.33181,3.55002"
         id="path3-6"
         style="stroke-width:0.089414" /></g></g></svg>
