<?xml version="1.0" encoding="UTF-8" standalone="no"?>
<!-- Created with Inkscape (http://www.inkscape.org/) -->

<svg
   width="45.53624mm"
   height="20.127802mm"
   viewBox="0 0 45.53624 20.127802"
   version="1.1"
   id="svg1"
   xml:space="preserve"
   xmlns="http://www.w3.org/2000/svg"
   xmlns:svg="http://www.w3.org/2000/svg"><defs
     id="defs1" /><g
     id="layer1"
     transform="translate(-82.791569,-121.88786)"><g
       id="g33"
       transform="translate(-23.491525,5.2627119)"><path
         d="m 134.3539,133.82723 c -0.15717,-0.0531 -0.40376,-0.0521 -0.56198,-0.0175 -0.10967,0.0238 -0.26964,0.11491 -0.35975,0.17429 -0.0566,0.037 -0.0852,0.0618 -0.087,0.12399 -0.001,0.0608 0.0255,0.0995 0.0789,0.13587 0.26963,0.15124 0.62415,0.0685 0.87283,0.33425 0.10513,0.12539 0.1226,0.28606 0.0548,0.39189 -0.54557,0.33251 -1.09078,0.66467 -1.63635,0.99718 -0.1453,0.0636 -0.2899,0.1163 -0.4331,0.14005 -0.1205,0.0199 -0.22353,0.0122 -0.34334,-0.0433 -0.17533,-0.0929 -0.46104,-0.24449 -0.5005,-0.44742 0.006,-0.32692 0.1418,-0.69191 0.34228,-1.04153 0.11282,-0.17743 0.22249,-0.35905 0.36849,-0.5288 0.12888,-0.14984 0.27837,-0.25217 0.41843,-0.32587 0.10094,-0.0534 0.23646,-0.15054 0.33879,-0.13063 0.1212,0.0761 0.2424,0.15228 0.3636,0.22843 0.10513,0.0168 0.17393,-0.058 0.18441,-0.15054 0.0122,-0.10513 -0.0325,-0.27628 -0.10024,-0.38595 -0.0384,-0.0625 -0.0961,-0.1198 -0.15787,-0.15333 -0.28571,-0.0772 -0.55709,-0.0657 -0.83721,0.0321 -0.18791,0.0779 -0.36674,0.20153 -0.54906,0.38351 -0.25532,0.25566 -0.47431,0.54521 -0.61018,0.8138 -0.12993,0.25672 -0.23576,0.55116 -0.28011,0.81695 -0.0391,0.23367 -0.0699,0.59412 0.01,0.82534 0.0552,0.16031 0.20049,0.29828 0.34753,0.40341 0.20572,0.14704 0.43031,0.28012 0.63917,0.32098 0.19944,0.0388 0.43939,0.037 0.63917,0.001 0.20782,-0.0374 0.43764,-0.11911 0.63847,-0.20433 0.57002,-0.41843 1.25355,-0.78587 1.76768,-1.06424 0.0643,-0.34054 0.0681,-0.73557 0.001,-1.09916 -0.10408,-0.20887 -0.42716,-0.46907 -0.60878,-0.5309 m 2.29647,-0.81834 c -0.16346,0.20502 -0.27103,0.43065 -0.34228,0.64021 -0.0576,0.17045 -0.11911,0.37338 -0.11911,0.54662 0,0.31819 0.11841,0.68562 0.20468,0.99717 0.066,0.23961 0.16905,0.48864 0.3098,0.72754 0.0898,0.15228 0.22703,0.30352 0.38211,0.42157 0.17429,0.13238 0.37268,0.27733 0.5515,0.30317 0.22808,0.0328 0.51099,0.0279 0.73697,-0.0283 0.25951,-0.065 0.56617,-0.28151 0.81695,-0.45964 0.19315,-0.13692 0.49388,-0.34194 0.60076,-0.51658 0.13865,-0.22668 0.33879,-0.55604 0.38175,-0.81136 0.0506,-0.30247 0.0552,-0.69506 -0.0189,-0.99683 -0.0541,-0.21934 -0.14775,-0.53473 -0.27278,-0.72823 -0.0905,-0.13971 -0.28187,-0.25532 -0.42647,-0.32622 -0.35975,-0.17674 -0.80612,-0.34229 -1.17705,-0.39049 -0.29129,-0.0377 -0.70204,-0.0122 -1.00312,0.0782 -0.19943,0.0597 -0.46208,0.33984 -0.62485,0.54312 m 1.98109,0.0681 0.0471,0.0471 -0.0471,0.0472 -0.0471,-0.0472 0.0471,-0.0471 m -0.30841,0.0258 c 0.0758,0.0919 0.15158,0.18372 0.22737,0.27593 0.0912,-0.0527 0.18232,-0.10548 0.27348,-0.15787 0.0933,0.0147 0.22494,0.0852 0.32238,0.15438 0.11107,0.0782 0.20642,0.18895 0.2672,0.30421 0.10303,0.1949 0.15298,0.40796 0.15752,0.60669 0.004,0.1715 -0.0164,0.35207 -0.0793,0.52286 -0.0601,0.16207 -0.23751,0.37233 -0.36953,0.50575 -0.18687,0.18896 -0.4614,0.37303 -0.68668,0.51029 -0.18127,0.11037 -0.35102,0.20852 -0.51797,0.20887 -0.11351,3.5e-4 -0.21795,-0.0328 -0.3374,-0.11945 -0.11561,-0.0835 -0.22633,-0.19665 -0.30596,-0.31226 -0.22773,-0.43833 -0.44044,-0.88436 -0.47886,-1.31606 -0.003,-0.14774 0.0101,-0.2864 0.0716,-0.43345 0.0716,-0.17149 0.17882,-0.35102 0.30875,-0.52251 0.0856,-0.11281 0.20013,-0.24868 0.31435,-0.31155 0.0996,-0.0545 0.23471,-0.0859 0.33565,-0.0821 0.13273,0.005 0.39328,0.0887 0.49737,0.16625 m -4.05716,-5.0966 c -0.50785,-0.0849 -1.11174,-0.21375 -1.62517,-0.19804 -0.21551,0.006 -0.43031,0.0894 -0.64476,0.19106 -0.1233,0.0587 -0.23891,0.14704 -0.3643,0.26824 -0.27941,0.27069 -0.47571,0.53858 -0.63183,0.81695 -0.11317,0.20153 -0.16835,0.4317 -0.18547,0.63673 -0.03,0.36219 0.0901,0.82708 0.19106,1.18438 0.0433,0.15403 0.12154,0.30038 0.26789,0.4572 0.14565,0.15543 0.30212,0.26755 0.4558,0.33321 0.25183,0.10723 0.49003,0.1453 0.73348,0.12469 0.26195,-0.022 0.56303,-0.0814 0.8145,-0.18442 0.3849,-0.20362 0.79949,-0.29688 1.16483,-0.6451 0.14355,-0.146 0.30072,-0.35661 0.39293,-0.5316 0.11282,-0.21445 0.25288,-0.50435 0.26126,-0.72754 0.0115,-0.30282 -0.004,-0.70972 -0.12609,-1.00416 -0.0716,-0.17254 -0.2176,-0.4069 -0.35311,-0.54836 -0.10618,-0.11037 -0.22703,-0.15263 -0.35102,-0.17324 m 0.24763,1.53751 c -0.0147,0.16311 -0.0828,0.36289 -0.17254,0.52216 -0.0947,0.16765 -0.2665,0.37826 -0.40132,0.50784 -0.31818,0.26825 -0.69819,0.39957 -1.04363,0.56338 -0.168,0.0688 -0.35206,0.10199 -0.52146,0.12085 -0.22389,0.008 -0.46942,-0.11177 -0.66711,-0.3126 -0.16556,-0.18721 -0.19839,-0.40062 -0.2431,-0.60354 -0.0478,-0.21935 -0.0821,-0.48305 -0.0419,-0.69681 0.0272,-0.14459 0.10513,-0.28465 0.21306,-0.43554 0.16904,-0.23646 0.33809,-0.47361 0.58014,-0.69575 0.11526,-0.10583 0.23401,-0.20223 0.34927,-0.2417 0.11107,-0.0377 0.23471,-0.0297 0.34578,-0.0203 0.28012,0.0241 0.88052,0.1694 1.13898,0.29968 0.16591,0.0835 0.31645,0.32692 0.37897,0.47676 0.0646,0.15508 0.0995,0.35591 0.0849,0.51553 m 0.9633,0.4558 c 0.0667,0.24309 0.0744,0.49073 0.27627,0.73452 0.2637,0.33914 0.6025,0.52251 0.89694,0.6961 0.22458,0.0947 0.56931,0.15508 0.81415,0.19629 0.30422,0.051 0.69226,0.0524 0.99683,0.002 0.2389,-0.0391 0.49283,-0.17499 0.72928,-0.32937 0.23856,-0.15577 0.58154,-0.54382 0.77574,-0.83826 0.13167,-0.19978 0.17568,-0.43449 0.20782,-0.64161 0.0461,-0.37058 -0.16975,-0.73138 -0.28047,-1.09497 -0.10374,-0.20747 -0.30037,-0.42891 -0.526,-0.64232 -0.0982,-0.0926 -0.18058,-0.15228 -0.27383,-0.17359 -0.26859,0.009 -0.53684,0.0175 -0.80543,0.0262 -0.14984,-0.0982 -0.30003,-0.19629 -0.44987,-0.29444 -0.17044,-0.0367 -0.3849,-0.0154 -0.55464,0.0266 -0.34264,0.0845 -0.7698,0.22458 -1.08869,0.43414 -0.15822,0.10444 -0.29828,0.219 -0.39747,0.35486 -0.13971,0.19071 -0.23401,0.42647 -0.29688,0.63394 -0.0817,0.27068 -0.0709,0.63707 -0.0238,0.90985 m 0.69226,-0.96748 c 0.0562,-0.11701 0.13971,-0.2197 0.25741,-0.31156 0.13971,-0.10897 0.2899,-0.20362 0.4345,-0.26544 0.32203,-0.11666 0.65314,-0.30213 0.96015,-0.29759 0.18651,0.006 0.32657,0.24799 0.52216,0.30213 0.0968,-0.0255 0.1935,-0.0513 0.2906,-0.0772 0.12224,0.0101 0.29968,0.15193 0.42088,0.24833 0.11595,0.0922 0.18476,0.19245 0.2382,0.3126 0.088,0.19734 0.21585,0.48584 0.23646,0.69505 0.0129,0.13308 -0.0374,0.28816 -0.13273,0.42367 -0.16625,0.23541 -0.37057,0.47921 -0.61052,0.66747 -0.15404,0.12084 -0.28816,0.20432 -0.43659,0.24344 -0.20503,0.0545 -0.40586,0.0597 -0.61019,0.0531 -0.23681,-0.008 -0.66292,-0.11945 -0.88122,-0.21026 -0.13936,-0.0576 -0.30875,-0.17359 -0.42786,-0.26371 -0.13551,-0.10198 -0.21759,-0.24938 -0.28221,-0.39537 -0.0873,-0.19874 -0.16136,-0.40935 -0.14949,-0.60844 0.0105,-0.16905 0.0915,-0.35207 0.17045,-0.51622 m 7.12552,-1.21408 c -0.30316,-0.0866 -0.60598,-0.17324 -0.90915,-0.25986 -0.21551,0.0241 -0.44463,0.1233 -0.64476,0.24065 -0.14949,0.0877 -0.30981,0.22773 -0.43973,0.38211 -0.22249,0.2651 -0.37897,0.54626 -0.49039,0.81695 -0.1142,0.27837 -0.16415,0.6217 -0.1666,0.90636 -0.009,0.24065 0.0101,0.4834 0.15158,0.73592 0.10164,0.17394 0.3161,0.39608 0.49772,0.54347 0.15264,0.12399 0.30457,0.15124 0.45789,0.17603 0.23996,0.0388 0.58678,0.0643 0.8236,-0.008 0.44183,-0.17569 0.95316,-0.55675 1.32199,-0.90078 0.13552,-0.16311 0.28466,-0.42018 0.36918,-0.62171 0.0622,-0.14809 0.11981,-0.31399 0.12435,-0.46453 0.006,-0.1935 -0.0524,-0.56233 -0.12155,-0.72719 -0.0719,-0.17219 -0.25741,-0.39852 -0.42576,-0.52845 -0.1701,-0.13098 -0.36954,-0.2176 -0.54837,-0.29059 m 0.35522,1.02896 c 0.0527,0.25846 0.087,0.51587 -0.0416,0.77468 -0.10269,0.17359 -0.20083,0.35976 -0.36011,0.5075 -0.24484,0.22738 -0.53474,0.39503 -0.78446,0.52531 -0.12364,0.0643 -0.22599,0.10163 -0.34613,0.10233 -0.15613,7.2e-4 -0.36464,-0.0276 -0.51309,-0.11665 -0.11351,-0.0678 -0.19909,-0.19245 -0.24868,-0.30492 -0.0674,-0.15158 -0.13971,-0.3608 -0.13971,-0.51902 0.03,-0.32063 0.1453,-0.64162 0.34508,-0.96399 0.087,-0.14565 0.18861,-0.30038 0.32238,-0.42332 0.14635,-0.13413 0.34613,-0.30108 0.51274,-0.37932 0.22667,-0.088 0.46243,0.0842 0.68527,0.14216 0.17988,0.0992 0.47117,0.45859 0.56827,0.65524 m -2.43095,-3.4861 c 0.0765,0.17952 0.25602,0.3849 0.42681,0.54591 0.15299,0.1446 0.30457,0.25218 0.4572,0.27488 0.2445,0.0367 0.57212,0.10618 0.8201,0.0919 0.31993,-0.0189 0.68667,-0.11212 0.99578,-0.2148 0.36115,-0.11666 0.72229,-0.23297 1.08345,-0.34928 0.12085,-0.0611 0.25043,-0.1659 0.33565,-0.26649 0.0692,-0.0817 0.10792,-0.16801 0.12189,-0.26231 0.0444,-0.30422 0.0409,-0.70134 -0.0105,-1.00451 -0.0398,-0.23716 -0.13832,-0.49632 -0.29723,-0.72893 -0.13308,-0.19455 -0.33705,-0.49283 -0.51204,-0.60599 -0.22668,-0.146 -0.64615,-0.24834 -0.90776,-0.2906 -0.22633,-0.037 -0.50191,-0.0433 -0.72789,-7.1e-4 -0.20398,0.0384 -0.44393,0.15926 -0.64057,0.29828 -0.25741,0.18197 -0.59341,0.51797 -0.77364,0.77538 -0.18197,0.25986 -0.34578,0.55395 -0.39083,0.8194 -0.0157,0.30596 -0.0528,0.61158 0.0196,0.91789 m 3.62336,-0.47851 c -0.0147,0.14321 -0.18126,0.22913 -0.32552,0.27698 -0.56127,0.15228 -1.12465,0.42471 -1.68419,0.43589 -0.21411,0 -0.48968,0.008 -0.694,-0.0863 -0.15229,-0.0702 -0.32728,-0.28256 -0.39364,-0.44427 -0.074,-0.18058 -0.0178,-0.41843 0.0475,-0.60076 0.0922,-0.25671 0.39119,-0.69156 0.49318,-0.88156 0.23191,-0.2665 0.62939,-0.48654 0.91684,-0.61891 0.088,-0.0335 0.15787,-0.0524 0.24239,-0.0136 0.0933,0.0821 0.18687,0.16416 0.28048,0.24659 0.14249,0.0513 0.28535,0.10304 0.42785,0.15438 0.23751,0.15613 0.49423,0.46558 0.56897,0.67061 0.0912,0.29094 0.15997,0.57804 0.12014,0.86095 m 4.63137,-6.14931 c 0.002,-0.10443 -0.0325,-0.19035 -0.11351,-0.18895 -0.0541,10e-4 -0.0911,0.0342 -0.10233,0.0995 -0.015,0.0884 0.0496,0.21026 0.11211,0.23925 0.0685,0.0321 0.10129,-0.0437 0.10373,-0.14984 m -1.08449,-1.42608 c 0.0388,0.10478 0.14669,0.18546 0.23646,0.22808 0.35975,0.0587 0.7195,0.11735 1.07926,0.17603 0.37197,0.17988 0.80193,0.27593 1.11627,0.60494 0.0859,0.0995 0.19804,0.22773 0.25323,0.34019 0.0835,0.16975 0.14424,0.42018 0.19175,0.61473 0.0524,0.32203 0.0126,0.64196 -0.0716,0.96294 -0.0493,0.16556 -0.22843,0.36674 -0.35766,0.48864 -0.20362,0.1928 -0.53229,0.48968 -0.77644,0.55674 -0.32202,0.088 -0.85082,0.19629 -1.14561,0.14774 -0.20363,-0.0335 -0.37232,-0.17184 -0.59796,-0.40516 -0.23785,-0.24554 -0.47256,-0.51971 -0.58084,-0.78726 -0.0646,-0.15962 -0.1205,-0.5536 -0.0828,-0.70413 0.0489,-0.1956 0.14425,-0.42123 0.26161,-0.6046 0.10408,-0.16241 0.25147,-0.38524 0.40236,-0.49457 0.1205,-0.0873 0.2885,-0.12399 0.42262,-0.14774 0.21132,0.029 0.42227,0.058 0.63358,0.087 0.0622,-0.008 0.12155,-0.0395 0.13971,-0.0936 0.0377,-0.11316 -0.10129,-0.24519 -0.21934,-0.31399 -0.14984,-0.094 -0.31575,-0.15962 -0.46663,-0.16032 -0.21271,-7.2e-4 -0.54208,0.0723 -0.74011,0.20188 -0.25951,0.1701 -0.47466,0.4792 -0.6025,0.70309 -0.16939,0.29723 -0.34054,0.68877 -0.38315,1.00067 -0.0311,0.22737 0.0402,0.60249 0.11491,0.82289 0.14984,0.33041 0.4579,0.67409 0.70344,0.99228 0.18162,0.19559 0.48025,0.42297 0.71322,0.51832 0.13866,0.0569 0.32447,0.0482 0.46627,0.0293 0.39678,-0.0534 0.91475,-0.12539 1.26332,-0.25776 0.20712,-0.0786 0.43694,-0.18547 0.62905,-0.36709 0.314,-0.30491 0.60738,-0.60459 0.72439,-0.91405 0.17115,-0.43449 0.0723,-0.84629 0.0971,-1.27031 -0.008,-0.25776 -0.0803,-0.56128 -0.18686,-0.81834 -0.0754,-0.18267 -0.19804,-0.36534 -0.36464,-0.54836 -0.14391,-0.15752 -0.30213,-0.31225 -0.45301,-0.37373 -0.45685,-0.18546 -0.89693,-0.4076 -1.35378,-0.49527 -0.14635,-0.0279 -0.89519,-0.0489 -0.99299,0.0168 -0.0737,0.0496 -0.11142,0.15927 -0.0726,0.26405"
         style="fill:#9d9d9d;fill-opacity:1;fill-rule:nonzero;stroke-width:0.089414"
         id="path1-6" /><path
         d="m 119.36226,134.56463 c 0.0115,0.63323 -0.0454,1.30209 -0.0531,1.90284 0.0499,0.0678 0.15682,0.11247 0.25777,0.10269 0.13761,-0.005 0.27802,-0.14949 0.29583,-0.27314 0.0269,-0.48793 0.0122,-0.97028 0.0126,-1.45577 -0.003,-0.0919 -0.0147,-0.18337 -0.0723,-0.28151 -0.0559,-0.095 -0.13621,-0.17359 -0.2389,-0.17185 -0.10618,0.002 -0.17708,0.0852 -0.20188,0.17674 m 5.20872,-0.81695 c -0.0961,0.0632 -0.1921,0.12608 -0.2878,0.18895 -0.13901,-0.0639 -0.27838,-0.12748 -0.41739,-0.1914 -0.1191,-0.0216 -0.25217,-0.002 -0.37302,0.029 -0.12399,0.0321 -0.25148,0.0803 -0.37198,0.17324 -0.0912,0.0702 -0.17533,0.16311 -0.2368,0.25497 -0.11841,0.17638 -0.17988,0.37477 -0.20957,0.5529 -0.0251,0.15019 -0.0241,0.30701 0,0.45685 0.0283,0.17708 0.0674,0.37757 0.15508,0.55046 0.0587,0.11561 0.1694,0.2644 0.29479,0.36429 0.0995,0.0796 0.18371,0.10129 0.28326,0.10373 0.12154,0.004 0.25741,-0.015 0.37721,-0.0685 0.19001,-0.0842 0.37058,-0.30596 0.49143,-0.48129 0.26719,-0.38805 0.44602,-0.78517 0.56443,-1.1802 0.0447,-0.14844 0.051,-0.3126 0.0412,-0.46349 -0.007,-0.0981 -0.0265,-0.1914 -0.12015,-0.25112 -0.0548,-0.0349 -0.12888,-0.0472 -0.1907,-0.0384 m -0.46069,0.74465 c -0.0922,0.23296 -0.21341,0.48968 -0.314,0.69575 -0.0877,0.15543 -0.23157,0.36883 -0.36429,0.36255 -0.1474,-0.0747 -0.17953,-0.35242 -0.2162,-0.52356 -0.005,-0.13168 0.058,-0.2927 0.12713,-0.42332 0.0643,-0.1219 0.15228,-0.21551 0.2651,-0.25951 0.13342,-0.052 0.37896,-0.11107 0.4785,-0.0486 0.0601,0.0381 0.0594,0.10618 0.0238,0.19664 m -4.46058,-1.06668 c -0.0943,0.0423 -0.17848,0.15193 -0.22947,0.24623 -0.0541,0.10025 -0.0713,0.19315 -0.0597,0.29549 0.0112,0.0985 0.0485,0.20887 0.12365,0.23227 0.051,0.0157 0.11211,-0.0105 0.168,-0.0545 0.11037,-0.0866 0.19699,-0.23751 0.24763,-0.35905 0.0646,-0.12295 0.0493,-0.28501 -0.0643,-0.35626 -0.0524,-0.0311 -0.124,-0.0321 -0.18582,-0.004 m 7.4308,-0.13062 c -0.14705,-0.0213 -0.31749,-0.0126 -0.46349,0.0293 -0.0957,0.0273 -0.18057,0.0737 -0.27662,0.15578 -0.32518,0.27732 -0.6032,0.61437 -0.72649,0.90567 -0.13517,0.31958 -0.23751,0.67933 -0.2658,1.00625 -0.008,0.094 0.0129,0.19036 0.10164,0.27768 0.0849,0.0838 0.19035,0.11421 0.28675,0.11386 0.10129,-3.6e-4 0.20118,-0.0311 0.25881,-0.11456 0.0566,-0.35836 0.12225,-0.723 0.27314,-1.06668 0.0604,-0.1453 0.15368,-0.29584 0.29967,-0.41704 0.12923,-0.10722 0.29689,-0.21969 0.43101,-0.23156 0.26719,0.0231 0.53439,0.0465 0.80158,0.0695 0.0587,-0.0346 0.0726,-0.0835 0.074,-0.15263 0.002,-0.0961 -0.0349,-0.21236 -0.0849,-0.27628 -0.0985,-0.12608 -0.52985,-0.27313 -0.70937,-0.29932 m -6.02008,-0.96714 c -0.008,0.20956 -0.015,0.41913 -0.0224,0.62869 -0.0531,0.1191 -0.10582,0.23855 -0.15891,0.35801 -0.10933,0.49701 -0.0831,1.19556 -0.0995,1.71667 0.006,0.33321 -0.0332,0.65978 0.0269,0.99683 0.0559,0.15054 0.20153,0.35032 0.36394,0.37023 0.0978,0.0157 0.20782,-0.0182 0.29129,-0.10129 0.0604,-0.0608 0.0845,-0.11456 0.095,-0.18826 -0.0513,-0.21201 -0.10269,-0.42401 -0.15403,-0.63637 -0.0182,-0.19734 0.0203,-0.89065 0.11281,-1.02128 0.12888,-0.15577 0.37827,-0.0279 0.58329,-0.2871 0.15403,-0.15124 0.26824,-0.31819 0.25532,-0.47921 0.004,-0.12958 -0.14809,-0.28465 -0.28012,-0.28291 -0.1914,-0.0133 -0.2906,0.30701 -0.45336,0.36814 -0.0464,0.0171 -0.0877,0 -0.10862,-0.037 0.0168,-0.43799 0.0335,-0.87563 0.05,-1.31362 -0.0171,-0.11771 -0.15334,-0.27383 -0.29759,-0.26685 -0.11002,0.001 -0.17882,0.0856 -0.20397,0.17534 m -4.80705,-0.17883 c -0.49353,0.24065 -0.95841,0.35905 -1.42294,0.42052 -0.10688,0.009 -0.23926,0.0217 -0.32972,-0.0339 -0.0552,-0.0643 -0.12958,-0.14914 -0.21375,-0.18232 -0.0873,-0.0346 -0.19141,0.002 -0.25427,0.072 -0.37897,1.28743 -0.51064,2.63038 -1.00207,3.94365 -0.0175,0.0982 0.0136,0.20852 0.0978,0.25986 0.052,0.0318 0.12154,0.0328 0.18686,0.009 0.2658,-0.18407 0.46733,-0.31155 0.71741,-0.37268 0.33041,-0.0154 0.66117,-0.0307 0.99193,-0.0457 0.0674,-0.0168 0.12574,-0.0409 0.17604,-0.10548 0.051,-0.065 0.065,-0.12609 0.0426,-0.1928 -0.0224,-0.0671 -0.0692,-0.0929 -0.13098,-0.11072 -0.4586,-0.006 -0.91754,-0.0108 -1.37614,-0.0161 -0.0527,-0.10164 0.10304,-0.50749 0.14844,-0.65803 0.0269,-0.0877 0.0744,-0.16556 0.16277,-0.22598 0.53194,-0.16206 1.081,-0.19035 1.61958,-0.32552 0.0915,-0.0283 0.15438,-0.0793 0.16381,-0.17848 0.009,-0.0943 -0.0339,-0.20712 -0.10234,-0.25916 -0.0454,-0.0346 -0.10758,-0.043 -0.16765,-0.0471 -0.48933,-0.0849 -1.01604,0.25112 -1.41107,0.14425 -0.08,-0.20154 0.0559,-0.61158 0.12714,-0.89694 0.043,-0.11875 0.10338,-0.2176 0.2162,-0.23296 0.20328,0.0234 0.40655,0.0465 0.60983,0.0695 0.35312,-0.0761 0.71985,-0.0936 1.08799,-0.27383 0.14075,-0.0786 0.35311,-0.2141 0.42367,-0.37337 0.0555,-0.12504 0.0168,-0.2878 -0.0831,-0.35801 -0.0751,-0.0531 -0.18267,-0.0506 -0.27802,-0.0293 m 2.0443,-0.24379 c -0.10234,0.0545 -0.16626,0.15124 -0.18896,0.24554 -0.009,0.44986 -0.0189,0.90008 -0.0283,1.34994 -0.036,0.22389 -0.17429,0.71916 -0.27768,0.86341 -0.13586,0.0922 -0.5026,-0.0985 -0.75932,0.11805 -0.29199,0.21934 -0.51762,0.53369 -0.65419,0.79739 -0.0744,0.15019 -0.12748,0.30771 -0.15263,0.4593 -0.0297,0.17708 -0.029,0.37442 -0.0171,0.5522 0.009,0.13901 0.0611,0.24135 0.20083,0.30072 0.14495,0.0618 0.32273,0.094 0.46733,0.0817 0.17359,-0.015 0.39223,-0.12399 0.55499,-0.23192 0.39748,-0.26928 0.47013,-0.89553 0.68772,-1.11523 0.05,-0.003 0.16486,0.22319 0.20433,0.34369 0.0258,0.14635 0.052,0.29269 0.0779,0.43939 0.0576,0.0716 0.16415,0.11072 0.26998,0.0699 0.065,-0.0251 0.12819,-0.0873 0.16207,-0.14635 0.0597,-0.67444 -0.0482,-1.34994 -0.13273,-1.99889 -0.0346,-0.60843 0.13343,-1.21372 0.0894,-1.87595 -0.007,-0.0981 -0.0269,-0.1907 -0.11841,-0.24973 -0.10233,-0.0667 -0.26964,-0.0646 -0.38524,-0.003 m -0.71252,3.1232 c -0.0758,0.20293 -0.15718,0.40411 -0.28641,0.60389 -0.073,0.11317 -0.16101,0.24275 -0.26125,0.31784 -0.0727,0.0541 -0.15857,0.0866 -0.20852,0.066 -0.0548,-0.0224 -0.0569,-0.0936 -0.0286,-0.18198 0.0779,-0.24274 0.24973,-0.56372 0.3587,-0.77364 0.0674,-0.15577 0.29758,-0.25427 0.40621,-0.21969 0.0576,0.0286 0.0527,0.0992 0.0199,0.18756 m 9.66929,-6.36726 c -0.14146,0.2665 -0.28327,0.533 -0.42472,0.79949 -0.0594,0.0831 -0.12679,0.14739 -0.19524,0.14774 -0.0926,3.6e-4 -0.15718,-0.11421 -0.19769,-0.22877 -0.0671,-0.29688 -0.13447,-0.59377 -0.20188,-0.89065 -0.0381,-0.058 -0.08,-0.088 -0.13901,-0.0887 -0.0601,-3.6e-4 -0.0891,0.0297 -0.10898,0.0845 -0.0852,0.23436 -0.0503,0.74849 -0.015,1.00975 0.0171,0.12399 0.0824,0.24868 0.16032,0.37512 0.0583,0.095 0.12364,0.19 0.2162,0.23855 0.20747,0.11526 0.47851,-0.0234 0.60774,-0.0702 0.0562,0.006 0.0699,0.0852 0.0562,0.1694 -0.0531,0.32901 -0.16276,0.72823 -0.27977,1.05096 -0.0625,0.17149 -0.19105,0.38944 -0.26964,0.53649 -0.0845,0.15717 -0.2857,0.39537 -0.40795,0.49282 -0.15997,0.0842 -0.31993,0.16835 -0.4799,0.25253 -0.0196,0.0454 0.01,0.073 0.0576,0.0912 0.25916,0.0265 0.55884,0.0629 0.83511,-0.0936 0.14879,-0.0922 0.34369,-0.2403 0.45685,-0.36324 0.12155,-0.13273 0.20642,-0.35591 0.29165,-0.52776 0.18301,-0.56896 0.31085,-1.14142 0.41458,-1.71213 0.0241,-0.32588 0.0451,-0.75793 0.0227,-1.08729 -0.006,-0.0919 -0.0251,-0.1935 -0.1226,-0.24729 -0.0936,-0.0513 -0.19699,-0.0185 -0.27662,0.0611 m -18.40602,-0.44602 c -0.0765,0.0765 -0.1191,0.18826 -0.13342,0.27558 -0.0604,0.37268 -0.0157,0.80647 -0.003,1.18159 0.0112,0.3395 0.0189,0.86585 0.10408,1.17636 0.0311,0.11421 0.14285,0.17987 0.28955,0.1886 0.0639,0.004 0.13167,-0.006 0.17987,-0.0395 0.0765,-0.0534 0.11212,-0.15718 0.10968,-0.25917 -0.0534,-0.42331 -0.10688,-0.84698 -0.16032,-1.2703 0.0203,-0.35801 0.0314,-0.72195 0.002,-1.07961 0.005,-0.11526 -0.0772,-0.2389 -0.21446,-0.24798 -0.072,-0.005 -0.11875,0.0196 -0.17428,0.0744 m 16.08055,-0.5529 c -0.12364,0.0101 -0.25078,0.0328 -0.37407,0.11422 -0.12469,0.0824 -0.24798,0.22458 -0.33006,0.34403 -0.12295,0.17883 -0.20223,0.36255 -0.2885,0.54417 -0.12993,0.27313 -0.19944,0.54102 -0.26056,0.8152 -0.0468,0.20957 -0.0437,0.42926 -0.036,0.63987 0.004,0.095 0.0164,0.18023 0.0716,0.28012 0.0531,0.0964 0.13517,0.19699 0.22319,0.24449 0.18127,0.0796 0.37756,0.0304 0.56338,-0.0206 0.17638,-0.0587 0.41389,-0.12748 0.47746,-0.32098 0.0464,-0.11037 0.0957,-0.29059 0.0279,-0.35416 -0.17254,-0.14111 -0.44114,0.27802 -0.6025,0.20467 -0.0786,-0.0122 -0.16101,-0.0691 -0.19385,-0.14495 -0.022,-0.0499 -0.0182,-0.10513 -0.007,-0.15682 0.021,-0.0992 0.0727,-0.24135 0.15089,-0.29304 0.22912,-0.0203 0.45824,-0.0409 0.68702,-0.0611 0.15368,-0.0538 0.33111,-0.20433 0.39922,-0.34963 0.12224,-0.2602 0.17498,-0.72928 0.16032,-1.01184 0.015,-0.14355 -0.11736,-0.34508 -0.292,-0.43555 -0.12085,-0.0618 -0.25706,-0.0482 -0.37617,-0.0381 m -0.0119,1.09288 c -0.0922,0.17708 -0.28675,0.30387 -0.39817,0.28152 -0.11911,-0.0398 0.0314,-0.27384 0.11211,-0.42647 0.0667,-0.11945 0.18966,-0.2885 0.27453,-0.27173 0.0919,0.0437 0.10618,0.27243 0.0115,0.41668 m 0.10407,-0.56862 0.0472,0.0472 -0.0472,0.0471 -0.0472,-0.0471 0.0472,-0.0472 m -12.60004,-0.0496 c -0.1432,0.24519 -0.39922,0.52705 -0.38805,0.81765 0.0143,0.10198 0.0831,0.20118 0.18058,0.25636 0.29933,0.0238 0.59865,0.0475 0.89763,0.0713 0.10513,0.0356 0.22493,0.13343 0.2644,0.21865 0.0213,0.0461 0.0189,0.0751 -0.022,0.0999 -0.17185,0.066 -0.51972,-0.0178 -0.66502,0.16172 -0.0559,0.0905 -0.0133,0.27487 0.0859,0.32272 0.15508,0.0751 0.64406,0.10094 0.81486,0.0583 0.15682,-0.0391 0.33635,-0.21969 0.37372,-0.38001 0.0206,-0.21899 0.0227,-0.43833 -0.10967,-0.65523 -0.10199,-0.14984 -0.29758,-0.30038 -0.44009,-0.34998 -0.23506,-0.087 -0.61996,0.0524 -0.7209,-0.10129 0.0224,-0.25252 0.55535,-0.57001 0.68353,-0.87493 0.0101,-0.0625 -0.0185,-0.12573 -0.066,-0.15752 -0.0734,-0.0493 -0.18232,-0.0227 -0.27558,0.001 -0.27173,0.0402 -0.43938,0.34648 -0.61332,0.51098 m 9.62563,-0.46662 c -0.18442,0.15437 -0.41494,0.37756 -0.45266,0.5529 -0.007,0.18895 -0.0552,0.38489 0.0901,0.56267 0.2169,0.314 0.59342,0.34439 0.73243,0.61298 0.0272,0.10932 -0.0891,0.22528 -0.19804,0.31365 -0.22668,0.13936 -0.45371,0.27872 -0.68039,0.41843 -0.0265,0.0419 -0.0251,0.0995 0.006,0.14215 0.0465,0.0646 0.16067,0.10583 0.25392,0.12015 0.17813,0.0269 0.67899,-0.11386 0.81591,-0.19734 0.13062,-0.0796 0.34787,-0.37232 0.38071,-0.52321 0.015,-0.24624 0.0402,-0.50156 -0.11107,-0.74011 -0.23611,-0.37337 -0.6741,-0.1942 -0.80229,-0.5288 -0.0342,-0.22668 0.42996,-0.4579 0.50436,-0.71147 0.0168,-0.10443 -0.0587,-0.17394 -0.15299,-0.18407 -0.12329,-0.0129 -0.2637,0.0601 -0.38594,0.16207 m -1.94406,-0.18652 c -0.12434,0.0101 -0.25183,0.0328 -0.37512,0.11317 -0.15228,0.0992 -0.32168,0.28501 -0.44253,0.43135 -0.17289,0.20956 -0.30352,0.42611 -0.39643,0.63568 -0.0915,0.20607 -0.1666,0.42506 -0.21899,0.63672 -0.0374,0.15089 -0.0433,0.30492 -0.0304,0.4565 0.0154,0.17778 0.0713,0.37338 0.16591,0.55116 0.0629,0.11805 0.17324,0.27069 0.29723,0.33565 0.30876,0.0695 0.61717,0.0664 0.92627,0.004 0.20503,-0.0964 0.49353,-0.34055 0.56897,-0.52496 0.0346,-0.0845 0.072,-0.20992 0.0583,-0.28396 -0.0108,-0.0611 -0.0398,-0.0915 -0.10478,-0.0968 -0.18372,0.10164 -0.36779,0.20328 -0.55151,0.30492 -0.14634,0.0545 -0.46139,0.13796 -0.57839,0.0744 -0.11491,-0.0622 -0.21795,-0.32657 -0.22703,-0.4565 -0.007,-0.11212 0.0674,-0.31504 0.13447,-0.33845 0.15612,-0.002 0.46907,0.0678 0.70204,-0.0224 0.15822,-0.0796 0.30946,-0.28536 0.39084,-0.42472 0.15647,-0.26649 0.24798,-0.55115 0.25706,-0.82533 0.003,-0.0915 0.005,-0.18651 -0.0269,-0.28151 -0.0335,-0.0978 -0.10059,-0.19979 -0.18372,-0.24973 -0.10199,-0.0615 -0.24764,-0.0482 -0.36534,-0.0388 m 0.11351,0.66432 c -0.0332,0.18162 -0.1404,0.52321 -0.25811,0.66746 -0.10408,0.12783 -0.43869,0.29024 -0.53753,0.23645 -0.0779,-0.0423 0.0416,-0.23086 0.13482,-0.36429 0.15542,-0.22283 0.53334,-0.74605 0.61507,-0.71775 0.0451,0.0157 0.0604,0.0974 0.0457,0.17813 m -2.62968,-0.59342 c -0.20362,0.0842 -0.70483,0.6493 -0.78062,0.64825 -0.0852,-0.007 -0.11945,-0.27907 -0.28431,-0.24309 -0.0968,0.008 -0.18128,0.0814 -0.22808,0.16974 -0.16031,0.64337 -0.0272,1.25704 -0.0786,1.88783 -0.058,0.3601 -0.11561,0.7202 -0.17324,1.08065 -0.003,0.11596 -0.021,0.25183 0.0112,0.36988 0.0168,0.0611 0.0451,0.11805 0.11072,0.15473 0.0555,0.0307 0.12819,0.0321 0.18163,0.003 0.0992,-0.0545 0.17533,-0.23506 0.18721,-0.34578 0.0639,-0.80193 0.14564,-1.63076 0.15193,-2.3796 0.0803,-0.0346 0.16067,-0.0692 0.241,-0.10374 0.10723,-0.16031 0.2651,-0.46104 0.43799,-0.57455 0.10792,-0.0709 0.36045,-0.22424 0.51378,-0.27907 0.0807,-0.029 0.17149,-0.0325 0.22947,0.004 0.11945,0.0831 0.0782,0.29863 0.0458,0.4572 -0.0569,0.22319 -0.20118,0.4799 -0.35452,0.6996 -0.11456,0.16416 -0.3119,0.37197 -0.48095,0.45021 -0.12713,0.0587 -0.23715,0.0206 -0.35276,0.005 -0.0545,0.009 -0.0852,0.0363 -0.0996,0.0995 -0.0126,0.0538 -0.005,0.13203 0.028,0.19909 0.052,0.10583 0.15193,0.17184 0.25112,0.19175 0.12504,0.0251 0.26021,-0.0143 0.38001,-0.0636 0.124,-0.0513 0.24624,-0.1205 0.36954,-0.21969 0.12015,-0.0971 0.263,-0.22947 0.3346,-0.35067 0.13552,-0.22982 0.29583,-0.56932 0.35766,-0.81346 0.0475,-0.18896 0.14459,-0.54452 0.0943,-0.73801 -0.0314,-0.11911 -0.14809,-0.27873 -0.26091,-0.34125 -0.27069,-0.0747 -0.55569,-0.0657 -0.83232,0.0321 m -7.36932,0.39153 c -0.15263,0.26021 -0.22808,0.5564 -0.25078,0.8187 0.009,0.45266 -0.0618,0.89833 0.0758,1.35693 0.0398,0.1432 0.10968,0.32901 0.23437,0.45964 0.0768,0.0807 0.15018,0.0999 0.24938,0.10548 0.19769,0.0108 0.46279,-0.0119 0.65279,-0.12573 0.19629,-0.11771 0.61577,-0.56234 0.63952,-0.72195 0.009,-0.0594 -0.004,-0.12434 -0.0447,-0.16067 -0.0384,-0.0342 -0.10373,-0.0402 -0.1666,-0.0276 -0.2651,0.0538 -0.49946,0.23401 -0.71636,0.38245 -0.10827,0.0433 -0.23052,0.0168 -0.28815,-0.0611 -0.0699,-0.0936 -0.0985,-0.33775 -0.11142,-0.48654 -0.0171,-0.20293 -0.0164,-0.41703 0.0286,-0.61926 0.0587,-0.2651 0.13307,-0.5302 0.28326,-0.77853 0.0311,-0.0517 0.0618,-0.0926 0.0999,-0.0978 0.0465,0.0342 0.11806,0.0723 0.15788,0.0405 0.0199,-0.0161 0.0367,-0.0845 0.0388,-0.1453 0.003,-0.10688 -0.0178,-0.19385 -0.0988,-0.27034 -0.0754,-0.0716 -0.19105,-0.12539 -0.2878,-0.1191 -0.20293,0.0154 -0.39468,0.28675 -0.49562,0.45021 m -1.45682,-0.0716 c 0.0342,0.052 0.0999,0.088 0.16136,0.0919 0.1006,0.006 0.1687,-0.0667 0.1942,-0.17149 0.0154,-0.0643 0.009,-0.13761 -0.023,-0.18582 -0.0342,-0.052 -0.0999,-0.088 -0.16137,-0.0919 -0.10059,-0.006 -0.16869,0.0667 -0.19384,0.17149 -0.0157,0.0643 -0.009,0.13761 0.0227,0.18581 m -1.72855,-2.16689 c -0.0884,0.0754 -0.16032,0.18337 -0.21166,0.27034 -0.14705,0.25043 -0.28222,0.54731 -0.37268,0.81345 -0.0685,0.20154 -0.12958,0.42717 -0.14704,0.63184 -0.0713,0.84175 0.0999,1.6835 0.0936,2.5249 0.0604,0.36639 0.15613,0.81241 0.26964,1.16413 0.0255,0.0793 0.10688,0.14914 0.19664,0.15403 0.14705,-0.0101 0.11282,-0.33915 0.13832,-0.5323 -0.15718,-0.69086 -0.18617,-1.42887 -0.19979,-2.02997 0.24344,-0.13447 0.48724,-0.26894 0.73068,-0.40376 0.0926,-0.0664 0.19385,-0.15089 0.20817,-0.23262 0.009,-0.0482 -0.0251,-0.0831 -0.074,-0.0758 -0.12085,0.0643 -0.24135,0.12818 -0.36219,0.19245 -0.13203,0.0293 -0.31435,0.0461 -0.43136,0.0538 -0.0779,0.005 -0.1184,-0.0304 -0.13202,-0.11492 0.0328,-0.49282 0.25043,-1.04572 0.48025,-1.57033 0.0506,-0.10513 0.10897,-0.24798 0.17149,-0.32308 0.11701,-0.0478 0.23436,-0.0957 0.35172,-0.14355 0.0395,-0.0814 10e-4,-0.1921 -0.0618,-0.27523 -0.0856,-0.11176 -0.23297,-0.19245 -0.36045,-0.20397 -0.10234,-0.009 -0.1942,0.0209 -0.28745,0.10059 m 14.14977,-1.33353 c -0.0873,0.25113 -0.14775,0.57526 -0.13517,0.82848 0.0101,0.20572 0.037,0.64336 0.13552,0.81695 0.0534,0.0936 0.16031,0.17499 0.263,0.17324 0.0705,-0.001 0.11526,-0.0328 0.14844,-0.0926 0.0618,-0.65034 -0.2162,-1.25354 -0.15508,-1.90214 -0.007,-0.0482 -0.0297,-0.0786 -0.0866,-0.0569 -0.0747,0.0283 -0.13761,0.1404 -0.17009,0.23296 m -1.96676,0.0901 c -0.0496,0.10827 -0.0175,0.19978 0.0597,0.30177 0.20573,0.27173 0.61403,0.38804 0.64302,0.52565 0.0199,0.0947 -0.0919,0.22563 -0.20293,0.31365 -0.17778,0.15403 -0.47432,0.12749 -0.58608,0.31155 -0.0468,0.10583 0.0405,0.26999 0.15752,0.28431 0.15403,0.0391 0.4097,-0.029 0.56687,-0.10583 0.2155,-0.12294 0.45231,-0.30526 0.53055,-0.52845 0.0458,-0.13656 0.0475,-0.3353 0.0164,-0.47361 -0.0157,-0.0709 -0.0377,-0.12015 -0.0964,-0.19175 -0.2368,-0.29968 -0.62939,-0.17848 -0.70623,-0.36919 0.16975,-0.19489 0.3395,-0.38944 0.50924,-0.58433 0.0468,-0.0985 0.0416,-0.21376 -0.002,-0.24659 0.0688,0.0513 -0.80647,0.58294 -0.88925,0.76282 m 6.5901,-1.07332 c -0.25602,0.23541 -0.68074,0.92697 -0.67969,0.89588 0.15822,0.49597 0.0569,0.97448 0.25357,1.45927 0.0517,0.12085 0.12923,0.24728 0.24834,0.37128 0.0912,0.0953 0.17917,0.15612 0.27522,0.17778 0.18128,0.0405 0.58329,0.0611 0.73697,-0.0332 0.12783,-0.0782 0.33495,-0.38106 0.34508,-0.53055 0.006,-0.0922 -0.0594,-0.16975 -0.1666,-0.18162 -0.15438,0.0643 -0.30841,0.12853 -0.46279,0.1928 -0.0835,0.0213 -0.16276,0.0164 -0.24449,-0.0262 -0.20293,-0.10024 -0.23262,-0.33356 -0.29374,-0.52216 -0.0192,-0.0915 -0.0129,-0.14879 0.0534,-0.2176 0.17149,-0.0981 0.34264,-0.19664 0.51378,-0.29479 0.18512,-0.14599 0.38001,-0.37861 0.43834,-0.54836 0.043,-0.27907 0.0573,-0.55255 -0.0437,-0.83476 -0.0311,-0.0632 -0.0698,-0.11526 -0.13377,-0.15368 -0.0838,-0.0503 -0.19524,-0.0517 -0.28501,-0.0475 -0.1928,0.009 -0.37721,0.12993 -0.55499,0.29339 m 0.19979,0.68248 0.0472,0.0472 -0.0472,0.0472 -0.0472,-0.0472 0.0472,-0.0472 m 0.0894,-0.0894 0.0472,0.0472 -0.0472,0.0472 -0.0472,-0.0472 0.0472,-0.0472 m 0.0894,-0.0894 0.0472,0.0472 -0.0472,0.0472 -0.0472,-0.0472 0.0472,-0.0472 m 0.0894,-0.0894 0.0472,0.0472 -0.0472,0.0472 -0.0472,-0.0472 0.0472,-0.0472 m -5.07215,-0.39364 c -0.008,0.0573 0.0119,0.0873 0.0657,0.0901 0.13307,0.0101 0.22423,-0.20887 0.28082,-0.36115 0.0342,-0.12399 0.006,-0.29339 -0.0981,-0.3374 -0.0164,-0.007 -0.22039,0.41249 -0.24833,0.60843 m 17.87827,-0.81345 c -0.34404,-0.1474 -0.80648,-0.26894 -1.18719,-0.30213 -0.18092,-0.0157 -0.83337,0.30248 -1.09078,0.47467 -0.21376,0.1425 -0.45056,0.42052 -0.56373,0.61367 -0.20991,0.35836 -0.35521,0.72579 -0.46383,1.08485 -0.11352,0.39293 -0.0412,0.7897 -0.0618,1.18438 0.006,0.0971 0.0245,0.17499 0.10303,0.27523 0.18023,0.22982 0.43345,0.39608 0.63358,0.51797 0.18512,0.11317 0.3629,0.19629 0.54697,0.21341 0.2857,0.0265 0.62764,0.0395 0.91125,-0.03 0.29339,-0.072 0.62066,-0.25427 0.90776,-0.45964 0.3168,-0.22668 0.58259,-0.57735 0.77748,-0.8676 0.16276,-0.24274 0.28536,-0.48514 0.34718,-0.72579 0.0548,-0.2141 0.0775,-0.42227 0.0402,-0.63707 -0.0311,-0.17883 -0.059,-0.37827 -0.11805,-0.55081 -0.0423,-0.12364 -0.12505,-0.24344 -0.23891,-0.36813 -0.17568,-0.19245 -0.36569,-0.34683 -0.54311,-0.42297 m 0.25985,1.43272 c 0.0157,0.13866 -0.0412,0.29339 -0.0901,0.43379 -0.051,0.146 -0.12469,0.2906 -0.23891,0.43904 -0.18337,0.23821 -0.36254,0.49073 -0.6018,0.672 -0.16729,0.12679 -0.35381,0.25951 -0.52705,0.33635 -0.1942,0.0866 -0.41284,0.12924 -0.60808,0.13447 -0.1198,0.004 -0.22563,-0.003 -0.34543,-0.0594 -0.17569,-0.0821 -0.46035,-0.23017 -0.57002,-0.38246 -0.0919,-0.12748 -0.11665,-0.34997 -0.11596,-0.5033 7.2e-4,-0.14565 0.0374,-0.28466 0.087,-0.43485 0.10548,-0.31993 0.24065,-0.6493 0.42507,-0.97063 0.0842,-0.14634 0.21166,-0.29688 0.3608,-0.39677 0.31958,-0.15787 0.64127,-0.32587 0.95911,-0.29619 0.22318,0.0178 0.47954,0.0831 0.70029,0.1935 0.13901,0.0695 0.30561,0.17743 0.42157,0.32308 0.1212,0.15159 0.12574,0.35102 0.14355,0.51134 m -23.26546,-1.94406 c -0.0643,0.0377 -0.0849,0.0723 -0.10513,0.13726 -0.1453,0.46594 -0.14984,0.98146 -0.18966,1.43831 -0.0437,0.50016 -0.0262,1.00801 -0.006,1.50921 -0.005,0.0943 -0.0199,0.16242 -0.0933,0.22843 -0.45545,0.22353 -1.00137,0.56408 -1.44215,0.68667 -0.16835,-0.14355 -0.19524,-0.482 -0.20991,-0.70029 0.051,-0.19071 0.29653,-0.14425 0.45021,-0.19664 0.0744,-0.0458 0.15089,-0.14914 0.21236,-0.2431 0.10443,-0.15962 0.13866,-0.30876 0.16416,-0.46453 0.023,-0.14111 0.0443,-0.32029 0.004,-0.46419 -0.0279,-0.0995 -0.0953,-0.16555 -0.19804,-0.1921 -0.1177,-0.0304 -0.27278,-0.0265 -0.3849,0.029 -0.22283,0.13587 -0.40515,0.40726 -0.52915,0.60529 -0.13202,0.26161 -0.23261,0.73068 -0.19454,1.00172 0.0384,0.27069 0.0905,0.55569 0.20363,0.82254 0.0506,0.11875 0.13272,0.27383 0.25636,0.33565 0.0922,0.0458 0.1914,0.03 0.2871,0.002 0.2176,-0.0636 0.4352,-0.15822 0.63987,-0.29548 0.28571,-0.27802 0.57176,-0.55605 0.85747,-0.83407 0.14705,0.15683 0.13377,0.61577 0.26894,0.90008 0.0416,0.0915 0.0908,0.14914 0.18337,0.1687 0.13447,0.0283 0.33775,-0.0133 0.46907,-0.10583 0.18791,-0.13237 0.50016,-0.46523 0.57002,-0.6231 0.0772,-0.36115 0.44008,-0.71532 0.42611,-1.08625 -0.0213,-0.17184 -0.0423,-0.39467 -0.18302,-0.56233 -0.11561,-0.13796 -0.24589,-0.18511 -0.37651,-0.19244 -0.13133,-0.008 -0.25986,0.002 -0.36255,0.10757 -0.11491,0.11771 -0.20537,0.32098 -0.21166,0.47222 -0.005,0.10129 0.0311,0.18162 0.12679,0.18896 0.18686,0.007 0.39782,-0.31051 0.46663,-0.15299 0.058,0.14251 -0.0513,0.37093 -0.12819,0.57107 -0.10268,0.23436 -0.21759,0.47571 -0.43834,0.69715 -0.0506,0.0506 -0.10338,0.095 -0.1411,0.096 -0.0597,10e-4 -0.0807,-0.0905 -0.10024,-0.17289 -0.0699,-0.29374 -0.15578,-0.65035 -0.15753,-0.96575 -0.002,-0.32342 -0.0224,-0.65698 0.006,-0.97901 0.0744,-0.50924 0.14914,-1.01883 0.22354,-1.52807 0.009,-0.0992 -0.004,-0.19978 -0.0866,-0.25253 -0.0737,-0.0472 -0.19525,-0.0346 -0.27698,0.0136 m -1.71947,2.8085 c -0.037,0.0835 -0.0782,0.13063 -0.14984,0.10479 -0.0939,-0.0342 -0.11596,-0.14321 -0.0552,-0.24729 0.0548,-0.12294 0.21969,-0.41249 0.30456,-0.42995 0.0786,-0.0161 -0.0346,0.42611 -0.0995,0.57245 m 18.71792,-2.95415 c -0.42542,-0.005 -0.84385,-0.0426 -1.27346,0.0915 -0.0632,0.023 -0.11281,0.0482 -0.14809,0.11037 l -0.066,0.44637 c -0.32063,0.31784 -0.63498,0.63848 -0.82359,0.97553 -0.11072,0.19768 -0.21026,0.43798 -0.22947,0.64021 -0.0248,0.26371 -0.0653,0.65384 0.0199,0.91091 0.0758,0.22842 0.30037,0.52635 0.46628,0.72439 0.17044,0.20328 0.5295,0.52706 0.78552,0.66642 0.3346,0.13307 0.67514,0.0202 1.00625,-0.0409 0.17778,-0.0346 0.37268,-0.12643 0.54452,-0.19978 0.17953,-0.0765 0.36534,-0.1949 0.54382,-0.34369 0.18476,-0.15403 0.36778,-0.35346 0.47187,-0.5288 0.21445,-0.36185 0.43554,-0.79739 0.50819,-1.1767 0.0597,-0.3119 0.0353,-0.68737 0.0182,-1.00277 -0.009,-0.17289 -0.15333,-0.48164 -0.28361,-0.61996 -0.12259,-0.13027 -0.3105,-0.23471 -0.45335,-0.31434 -0.32273,-0.17953 -0.74955,-0.30946 -1.08694,-0.3388 m 1.1994,1.38487 c 0.0297,0.15997 0.0178,0.3594 -0.008,0.52077 -0.10373,0.4083 -0.23052,0.82359 -0.52845,1.23363 -0.11526,0.14286 -0.27767,0.31016 -0.42157,0.41773 -0.20468,0.15299 -0.47851,0.2644 -0.7003,0.33286 -0.16695,0.0517 -0.35136,0.0482 -0.51832,0.0388 -0.0922,-0.005 -0.1652,-0.023 -0.25951,-0.0968 -0.14774,-0.11491 -0.29723,-0.2878 -0.39992,-0.42471 -0.12434,-0.16521 -0.2623,-0.35347 -0.2864,-0.52042 -0.0237,-0.16276 -0.0168,-0.35591 0.0314,-0.51937 0.0866,-0.29479 0.21586,-0.58992 0.43485,-0.88052 0.12574,-0.1666 0.3133,-0.37198 0.49073,-0.51518 0.1212,-0.0974 0.23052,-0.12364 0.35032,-0.14949 0.22982,-0.0492 0.555,-0.11596 0.78866,-0.0985 0.22912,0.0171 0.57421,0.10513 0.7684,0.2623 0.11421,0.0922 0.23332,0.26685 0.25811,0.39887 m -24.01325,-1.18718 c -0.0304,0.24834 0.0381,0.67829 0.0968,0.91684 0.39887,1.16658 0.74744,2.32861 1.0349,3.50182 0.0269,0.0594 0.0604,0.11421 0.12643,0.1432 0.0943,0.0416 0.20363,0.003 0.26021,-0.0671 0.12679,-0.263 0.13692,-0.59621 0.1474,-0.88226 0.0164,-0.0866 0.0625,-0.17569 0.12329,-0.17184 0.19489,0.15926 0.34299,0.61018 0.55988,0.89169 0.0692,0.0873 0.15648,0.15892 0.24135,0.13307 0.10199,-0.0314 0.16067,-0.21375 0.1914,-0.32482 0.0653,-0.23646 0.11457,-0.55185 0.12889,-0.80228 0.052,-0.92523 -0.13727,-1.8543 -0.0884,-2.77533 0.0374,-0.15368 0.0747,-0.30736 0.11212,-0.46139 -0.0353,-0.0953 -0.14914,-0.12609 -0.24834,-0.1219 -0.14425,0.006 -0.25392,0.0768 -0.28465,0.19245 -0.0866,0.32867 -0.0381,0.8407 -0.01,1.18369 0.0573,0.38735 0.11456,0.77434 0.17184,1.16169 10e-4,0.22807 0.0259,0.48025 -0.007,0.70378 -0.0147,0.10024 -0.0789,0.25288 -0.14076,0.24903 -0.22144,-0.16311 -0.2906,-0.72544 -0.61228,-0.95002 -0.11421,-0.0541 -0.28116,-0.0133 -0.35102,0.0786 -0.11072,0.16835 0.0234,0.70797 -0.14355,0.58992 -0.22877,-1.0101 -0.77818,-2.1166 -0.91614,-3.1962 -0.0182,-0.0562 -0.0444,-0.10444 -0.10688,-0.13552 -0.0562,-0.0283 -0.13203,-0.0339 -0.18861,-0.006 -0.065,0.0321 -0.0891,0.0863 -0.0968,0.14844 m 10.55715,-2.86544 c -0.21516,0.004 -0.65315,0.27174 -0.82394,0.3856 -0.19001,0.12714 -0.48689,0.39503 -0.60634,0.59865 -0.0831,0.14251 -0.11072,0.31819 -0.12364,0.46559 -0.0108,0.1184 -0.0237,0.25566 0.0388,0.37302 0.0639,0.1198 0.21864,0.24379 0.33879,0.3105 0.0988,0.0552 0.18442,0.0692 0.28012,0.0723 0.20607,0.007 0.44602,-0.022 0.6465,-0.1191 0.20468,-0.14774 0.4097,-0.29548 0.61438,-0.44288 0.16241,-0.0437 0.34787,0.28501 0.54032,0.15508 0.095,-0.0545 0.11771,-0.15612 0.11596,-0.24868 -0.0444,-0.45546 -0.0891,-0.91126 -0.13342,-1.36671 -0.24868,-0.21969 -0.59656,0.0133 -0.8875,-0.18337 m 0.29548,0.63917 c -0.058,0.16207 -0.20677,0.35905 -0.3367,0.4813 -0.15822,0.14879 -0.41319,0.3849 -0.59376,0.47012 -0.11282,0.0534 -0.2169,0.0594 -0.30876,-0.0213 -0.0877,-0.0768 -0.0849,-0.17953 -0.0513,-0.29269 0.0332,-0.11107 0.10653,-0.21865 0.22494,-0.33112 0.27662,-0.26265 0.55849,-0.42052 0.85432,-0.60424 0.0919,-0.0569 0.15298,-0.0726 0.19734,-0.0105 0.0524,0.0727 0.0489,0.21131 0.014,0.30841 m 6.13464,-1.00206 c -0.15159,0.16765 -0.27104,0.36778 -0.34613,0.54416 -0.11561,0.27174 -0.21236,0.54347 -0.27279,0.81486 -0.0451,0.20293 -0.0583,0.43764 -0.0293,0.64196 0.0206,0.146 0.11422,0.32029 0.21935,0.45755 0.0664,0.0863 0.14669,0.15368 0.2396,0.20957 0.1212,0.0733 0.25043,0.12818 0.37163,0.15193 0.14809,0.029 0.3098,0.0272 0.45824,0.0136 0.18582,-0.0175 0.47851,-0.0849 0.64406,-0.22598 0.10304,-0.0877 0.2899,-0.52775 0.28711,-0.71007 -10e-4,-0.0597 -0.0168,-0.13517 -0.051,-0.18058 -0.0608,-0.0803 -0.17114,-0.11106 -0.23576,-0.0705 -0.0538,0.11491 -0.21061,0.35067 -0.39887,0.44952 -0.13447,0.0705 -0.36883,0.11735 -0.51029,0.10967 -0.16311,-0.009 -0.35591,-0.16311 -0.44008,-0.32133 -0.0569,-0.10653 -0.051,-0.2176 0.002,-0.32308 0.17848,-0.17638 0.35696,-0.35242 0.53544,-0.52845 0.15019,-0.18756 0.29967,-0.43834 0.35696,-0.64546 0.0398,-0.14425 0.008,-0.32797 -0.0968,-0.47466 -0.0968,-0.13587 -0.23681,-0.20468 -0.37408,-0.16905 -0.12888,0.0339 -0.2609,0.14774 -0.3594,0.25637 m -2.14978,-0.68772 c -0.0636,0.0325 -0.12189,0.0877 -0.17289,0.14739 -0.17638,0.32971 -0.35276,0.65943 -0.5288,0.98914 -0.0304,-0.14774 -0.0604,-0.29548 -0.0908,-0.44288 -0.058,-0.11351 -0.21306,-0.26964 -0.33425,-0.36359 -0.13168,-0.10199 -0.24904,-0.11212 -0.38141,-0.10443 -0.0975,0.006 -0.19559,0.0258 -0.28151,0.10967 -0.21097,0.27802 -0.1006,0.63638 -0.27558,0.85956 -0.0667,0.0968 -0.25951,-0.17184 -0.40411,-0.0234 0.0297,0.41319 0.0216,0.88925 -0.0646,1.31047 0.0101,0.20433 -0.31155,0.001 -0.31225,0.17534 0.1949,1.48057 0.40865,2.95346 0.71182,4.41517 0.051,0.23087 0.0821,0.5054 0.18302,0.7216 0.0978,0.13586 0.13098,0.34752 0.26999,0.34962 0.0604,3.6e-4 0.11107,-0.0283 0.15089,-0.0877 0.0363,-0.0541 0.044,-0.1177 0.0398,-0.18407 -0.12154,-0.62275 -0.24274,-1.24516 -0.36429,-1.86791 0.18686,-0.15683 0.67899,-0.53334 1.00242,-0.72928 0.0898,-0.0713 0.16101,-0.17255 0.13132,-0.25986 -0.043,-0.10758 -0.21864,-0.14879 -0.33949,-0.10548 -0.29374,0.0901 -0.89938,0.6252 -0.92173,0.58468 -0.11177,-0.75688 -0.22389,-1.51375 -0.33566,-2.27028 0.0164,-0.23401 0.10269,-0.58573 0.14879,-0.79075 0.0828,-0.1198 0.16556,-0.23995 0.24834,-0.35976 0.12853,-0.3842 0.25671,-0.7684 0.38525,-1.1526 0.058,-0.11246 0.11421,-0.23331 0.20502,-0.15647 0.0685,0.0475 0.12015,0.14914 0.13587,0.23052 0.0416,0.2176 0.0136,0.48025 0.007,0.70169 -0.0597,0.4813 -0.11945,0.96225 -0.17918,1.44355 0.007,0.0894 0.0286,0.1893 0.12644,0.22178 0.0678,0.0231 0.12714,0.008 0.19245,-0.0419 0.43066,-0.90392 0.74116,-1.99959 1.23922,-2.85356 0.12993,0.64371 0.006,1.70201 0.0685,2.49975 0.0178,0.0604 0.0437,0.10688 0.11002,0.12853 0.0671,0.0216 0.12714,0.007 0.19245,-0.044 0.0933,-0.0734 0.11212,-0.17952 0.11806,-0.26719 0.0265,-0.41005 0.0667,-0.84559 0.0646,-1.27276 -0.002,-0.36953 -0.0437,-0.73242 -0.0646,-1.08309 -0.006,-0.0929 -0.0238,-0.17673 -0.10793,-0.27698 -0.0814,-0.0971 -0.18476,-0.16101 -0.28116,-0.18232 -0.0933,-0.0206 -0.20119,-0.0143 -0.29095,0.0318 m 9.51212,-0.40656 c -0.24694,-0.12469 -0.64092,-0.24763 -0.91789,-0.25741 -0.20223,-0.0524 -0.34963,0.20572 -0.4579,0.27907 -0.17464,7.1e-4 -0.34893,0.001 -0.52356,0.001 -0.33426,0.094 -0.66851,0.18791 -1.00277,0.28187 -0.22528,0.15298 -0.44392,0.47396 -0.5983,0.70308 -0.14041,0.20852 -0.22528,0.42856 -0.27698,0.63848 -0.0765,0.3084 -0.0573,0.68387 -0.0304,0.99438 0.0119,0.13796 0.0377,0.32622 0.12259,0.46034 0.10374,0.16416 0.36325,0.33286 0.52007,0.37756 0.38245,0.10898 0.84978,0.1722 1.26193,0.18163 0.40899,-0.0541 0.79215,-0.12225 1.18753,-0.3133 0.18197,-0.1191 0.38315,-0.29339 0.51098,-0.42996 0.17499,-0.18686 0.45022,-0.48095 0.54731,-0.70902 0.13238,-0.31121 0.19525,-0.81905 0.21481,-1.17251 -0.003,-0.21725 0.0182,-0.43415 -0.1198,-0.6521 -0.10374,-0.15682 -0.29479,-0.3112 -0.43764,-0.3835 m -0.26964,1.90529 c -0.10618,0.25392 -0.47501,0.66466 -0.75513,0.84978 -0.20852,0.13761 -0.64022,0.24624 -0.86201,0.23855 -0.24694,-0.008 -0.55499,-0.0161 -0.80542,-0.0699 -0.16521,-0.0454 -0.37442,-0.0653 -0.45546,-0.22004 -0.0849,-0.15264 -0.0583,-0.41948 -0.0423,-0.59866 0.0129,-0.1453 0.0587,-0.29374 0.11386,-0.43834 0.0555,-0.14564 0.12504,-0.2885 0.2438,-0.43414 0.117,-0.1439 0.27872,-0.30143 0.42192,-0.39573 0.24763,-0.16381 1.17705,-0.53474 1.33143,-0.51378 0.20782,0.0283 0.48374,0.15228 0.68318,0.23855 0.10583,0.0458 0.24659,0.11945 0.29444,0.22389 -0.0562,0.37337 -0.11212,0.74674 -0.16835,1.11977 m 11.07826,-2.4306 c -0.27977,-0.0245 -0.63603,-0.0496 -0.91231,0.002 -0.56513,0.32832 -1.16692,0.73383 -1.7034,1.0824 -0.20259,0.21446 -0.3395,0.48794 -0.44952,0.723 -0.0744,0.15927 -0.10862,0.29968 -0.11351,0.45685 -0.008,0.27208 -0.0231,0.54941 0.0608,0.82184 0.0688,0.22353 0.20607,0.52915 0.41039,0.71217 0.20782,0.18616 0.57596,0.36219 0.81591,0.38385 0.24099,0.0213 0.58503,-0.0608 0.82009,-0.12155 0.20991,-0.0541 0.42926,-0.13656 0.63603,-0.27802 0.35032,-0.2396 0.78586,-0.577 1.07856,-0.88122 0.23121,-0.38944 0.28116,-0.84733 0.3601,-1.26716 -0.0311,-0.33356 -0.003,-0.78342 -0.10583,-1.0803 -0.0398,-0.11457 -0.14565,-0.26615 -0.26021,-0.3643 -0.20852,-0.15647 -0.42612,-0.14145 -0.63707,-0.19 m 0.39188,1.02931 c 0.0307,0.22004 0.0182,0.47955 0,0.70134 -0.0573,0.26335 -0.0517,0.52042 -0.2623,0.78132 -0.42507,0.37163 -0.88612,0.7478 -1.31467,0.95631 -0.19595,0.0681 -0.40586,0.11317 -0.6046,0.0968 -0.14704,-0.0119 -0.28605,-0.0464 -0.4303,-0.17324 -0.11317,-0.0995 -0.21096,-0.22458 -0.26999,-0.336 -0.0877,-0.16416 -0.14599,-0.35311 -0.15403,-0.51867 -0.007,-0.14669 0.0342,-0.28221 0.10513,-0.4317 0.0821,-0.17254 0.16591,-0.35486 0.32972,-0.52007 0.19663,-0.19839 0.43519,-0.44637 0.62415,-0.59341 0.17708,-0.14705 0.42332,-0.0744 0.60075,-0.15508 0.12155,-0.10234 0.24275,-0.20433 0.36395,-0.30666 0.15647,-0.0374 0.35381,-0.0108 0.51272,0.0241 0.11666,0.0251 0.22738,0.0513 0.32413,0.14494 0.0982,0.095 0.15927,0.2176 0.17534,0.33007 m -6.19786,-0.93885 c -0.26754,-0.0405 -0.70728,-0.10897 -0.99229,-0.0796 -0.17324,0.0182 -0.39747,0.0464 -0.55849,0.10129 -0.40515,0.25846 -0.88994,0.66606 -1.22699,1.05899 -0.32308,0.47222 -0.52077,0.93431 -0.73033,1.44774 -0.0716,0.17569 -0.0276,0.37792 0.0265,0.555 0.0657,0.21445 0.17639,0.431 0.3402,0.64196 0.21166,0.28466 0.5239,0.39503 0.78795,0.51553 0.31819,0.12539 0.59656,0.13517 0.90707,0.12609 0.36848,-0.0108 0.81486,-0.0901 1.1781,-0.22459 0.25707,-0.095 0.58957,-0.33669 0.81939,-0.52216 0.16486,-0.13237 0.27733,-0.28501 0.34578,-0.43624 0.146,-0.32273 0.25602,-0.67375 0.28431,-1.00102 0.0269,-0.31015 0.0486,-0.68772 -0.0101,-0.99613 -0.0402,-0.21201 -0.1652,-0.43799 -0.3587,-0.64441 -0.26056,-0.25147 -0.54592,-0.4778 -0.81241,-0.54242 m 0.56373,1.38312 c 0.03,0.2197 0.0203,0.48025 -0.0262,0.7003 -0.0423,0.20048 -0.0779,0.41808 -0.1914,0.61367 -0.11911,0.20537 -0.31575,0.42891 -0.47955,0.5529 -0.2197,0.16626 -0.46698,0.28012 -0.6975,0.35137 -0.25567,0.0789 -0.61892,0.15543 -0.87842,0.14006 -0.19874,-0.0119 -0.4153,-0.0947 -0.60983,-0.19315 -0.13762,-0.0699 -0.30807,-0.17953 -0.40796,-0.32308 -0.0817,-0.11735 -0.15542,-0.29688 -0.15507,-0.42192 0.0695,-0.31819 0.21655,-0.64301 0.35591,-0.96469 0.0849,-0.17185 0.1872,-0.37058 0.32342,-0.51134 0.18547,-0.19175 0.5253,-0.51378 0.77678,-0.67934 0.20887,-0.13761 0.56723,-0.21725 0.78237,-0.1893 0.16836,0.0216 0.35871,0.0915 0.52252,0.17289 0.1694,0.0835 0.37442,0.18581 0.48514,0.32831 0.0953,0.12225 0.18092,0.28711 0.19979,0.42332 m -22.03286,-1.8341 c -0.15508,0.004 -0.30247,0.0353 -0.45895,0.0894 -0.20991,0.073 -0.44287,0.14739 -0.64196,0.29583 -0.17953,0.13377 -0.3835,0.34963 -0.50435,0.52217 -0.2899,0.45196 -0.63219,0.90217 -0.7478,1.35518 -0.0758,0.39468 -0.074,0.96679 -0.0112,1.36356 0.0224,0.14181 0.13237,0.33042 0.28361,0.4586 0.27208,0.1921 0.55255,0.073 0.82708,0.0985 0.21201,-0.0182 0.43135,-0.0971 0.63987,-0.20153 0.65838,-0.37442 1.34121,-1.03978 1.97863,-1.60875 0.0493,-0.0695 0.0723,-0.12015 0.0657,-0.19594 -0.006,-0.0653 -0.0398,-0.12574 -0.0901,-0.16242 -0.1177,-0.0856 -0.32273,-0.029 -0.46034,0.0129 -0.30038,0.12853 -0.60913,0.18057 -0.90427,0.41738 -0.0569,0.0608 -0.0863,0.11072 -0.0891,0.18407 0.0461,0.1418 0.12154,0.22702 0.0496,0.35241 -0.20956,0.25672 -0.50854,0.4345 -0.76106,0.56967 -0.24554,0.12015 -0.53858,0.14809 -0.77085,0.10024 -0.10688,-0.022 -0.18512,-0.10897 -0.22319,-0.23157 -0.074,-0.23646 -0.0737,-0.71566 0.002,-0.95771 0.12329,-0.39398 0.55045,-1.22001 0.78097,-1.50327 0.0946,-0.11631 0.22423,-0.20293 0.3346,-0.25567 0.197,-0.0943 0.41075,-0.18127 0.61473,-0.23261 0.21375,-0.0534 0.87667,0.0768 0.96713,-0.009 0.0692,-0.0737 0.0356,-0.33111 -0.0744,-0.41354 -0.23576,-0.0943 -0.54033,-0.037 -0.80647,-0.0482 m 18.77659,-0.15612 c -0.0486,0.0964 -0.0988,0.20921 -0.0604,0.26126 0.043,0.0587 0.1446,0.0203 0.19629,-0.0583 0.065,-0.0992 0.087,-0.29514 0.023,-0.3402 -0.0576,-0.0409 -0.11037,0.0409 -0.15891,0.13727"
         style="fill:#000000;fill-opacity:1;fill-rule:nonzero;stroke-width:0.089414"
         id="path1-8" /></g></g></svg>
